M48
; DRILL file {KiCad 8.0.7} date 2025-05-08T16:31:51-0500
; FORMAT={-:-/ absolute / metric / decimal}
; #@! TF.CreationDate,2025-05-08T16:31:51-05:00
; #@! TF.GenerationSoftware,Kicad,Pcbnew,8.0.7
; #@! TF.FileFunction,Plated,1,4,PTH
FMAT,2
METRIC
; #@! TA.AperFunction,Plated,PTH,ComponentDrill
T1C0.250
; #@! TA.AperFunction,Plated,PTH,ViaDrill
T2C0.300
; #@! TA.AperFunction,Plated,PTH,ViaDrill
T3C0.350
; #@! TA.AperFunction,Plated,PTH,ComponentDrill
T4C1.000
; #@! TA.AperFunction,Plated,PTH,ComponentDrill
T5C1.700
%
G90
G05
T1
X219.1Y-132.6
X219.1Y-134.8
X220.3Y-132.8
X220.3Y-134.6
X221.0Y-132.8
X221.0Y-134.6
X221.7Y-132.8
X221.7Y-134.6
T2
X202.8Y-118.3
X203.2Y-114.1
X203.3Y-138.5
X203.4Y-123.4
X203.4Y-127.5
X203.4Y-133.0
X203.5Y-143.0
X204.0Y-146.0
X205.5Y-153.75
X206.0Y-144.0
X206.4Y-134.1
X207.7Y-135.7
X210.0Y-137.0
X210.25Y-152.0
X210.25Y-158.25
X212.25Y-151.75
X214.0Y-124.9
X215.5Y-158.25
X217.2Y-132.0
X217.2Y-133.7
X217.2Y-134.6
X217.8Y-153.3
X218.0Y-143.0
X218.2Y-124.4
X218.25Y-166.75
X218.8Y-158.2
X219.5Y-113.5
X219.5Y-115.0
X219.5Y-116.2
X219.5Y-117.4
X219.6Y-122.0
X220.0Y-130.0
X220.4Y-124.3
X221.3Y-117.1
X221.9Y-123.2
X223.5Y-120.1
X223.6Y-157.9
X224.0Y-135.6
X224.8Y-141.2
X224.887Y-130.95
X225.8Y-168.2
X225.9Y-135.6
X226.2Y-131.4
X227.1Y-120.2
X227.5Y-123.8
X227.6Y-114.7
X229.4Y-139.1
X229.7Y-121.0
X230.0Y-152.0
X230.5Y-160.3
X230.55Y-144.65
X231.0Y-115.1
X231.0Y-149.4
X231.5Y-145.7
X232.9Y-133.3
X232.9Y-136.6
X233.1Y-162.1
X233.5Y-166.3
X233.8Y-135.9
X233.9Y-147.3
X234.6Y-115.1
X234.8Y-133.2
X234.8Y-136.6
X235.0Y-147.1
X235.0Y-162.9
X235.2Y-122.8
X235.4Y-126.3
X235.4Y-146.0
X236.6Y-121.2
X236.7Y-155.1
X237.6Y-166.2
X238.8Y-132.9
X238.9Y-136.675
X239.0Y-115.3
X239.4Y-135.9
X239.5Y-120.6
X239.6Y-132.8
X239.8Y-142.6
X239.8Y-157.8
X240.5Y-140.0
X240.5Y-167.9
X240.9Y-135.9
X241.3Y-149.8
X241.6Y-116.7
X241.6Y-120.6
X241.7Y-132.2
X242.3Y-131.4
X243.2Y-140.8
X243.2Y-142.5
X243.2Y-167.4
X243.4Y-138.6
X243.449Y-127.8
X243.9Y-152.7
X244.0Y-128.6
X245.2Y-138.2
X245.2Y-143.8
X245.3Y-157.8
X245.9Y-131.4
X247.2Y-162.1
X248.4Y-166.7
X248.4Y-170.9
X248.8Y-145.7
X249.1Y-170.1
X249.2Y-167.3
X250.6Y-137.2
X250.8Y-148.3
X251.5Y-146.8
X252.3Y-118.7
X252.4Y-145.0
X252.5Y-137.2
X252.9Y-152.4
X253.1Y-126.5
X253.4Y-143.8
X253.6Y-155.6
X254.8Y-147.8
X254.9Y-133.1
X256.4Y-159.1
X256.5Y-164.6
X256.5Y-170.1
X257.7Y-124.6
X257.9Y-114.1
X259.7Y-170.1
X260.7Y-114.1
X260.7Y-120.8
X262.0Y-124.6
X262.0Y-141.4
X262.7Y-170.1
X262.9Y-164.8
X263.6Y-114.1
X264.3Y-159.4
X265.4Y-156.5
X265.7Y-164.9
X265.7Y-167.3
X265.7Y-170.1
X265.9Y-142.1
X265.9Y-145.0
X265.9Y-148.5
X266.0Y-128.0
X266.0Y-139.0
X266.2Y-114.1
X266.2Y-116.4
X266.2Y-118.7
X266.2Y-121.1
T3
X221.5Y-143.0
X236.0Y-129.3
T4
X235.5Y-164.8
X238.0Y-159.8
X240.5Y-164.8
X243.0Y-159.8
X245.5Y-164.8
T5
X204.3Y-164.0
X204.3Y-169.0
X211.3Y-164.0
X211.3Y-169.0
X222.3Y-164.0
X222.3Y-169.0
X229.3Y-164.0
X229.3Y-169.0
M30
