%TF.GenerationSoftware,KiCad,Pcbnew,8.0.7*%
%TF.CreationDate,2025-05-08T16:31:26-05:00*%
%TF.ProjectId,OU_AIMNet_MPPT_v1.0,4f555f41-494d-44e6-9574-5f4d5050545f,rev?*%
%TF.SameCoordinates,Original*%
%TF.FileFunction,Paste,Top*%
%TF.FilePolarity,Positive*%
%FSLAX46Y46*%
G04 Gerber Fmt 4.6, Leading zero omitted, Abs format (unit mm)*
G04 Created by KiCad (PCBNEW 8.0.7) date 2025-05-08 16:31:26*
%MOMM*%
%LPD*%
G01*
G04 APERTURE LIST*
G04 Aperture macros list*
%AMRoundRect*
0 Rectangle with rounded corners*
0 $1 Rounding radius*
0 $2 $3 $4 $5 $6 $7 $8 $9 X,Y pos of 4 corners*
0 Add a 4 corners polygon primitive as box body*
4,1,4,$2,$3,$4,$5,$6,$7,$8,$9,$2,$3,0*
0 Add four circle primitives for the rounded corners*
1,1,$1+$1,$2,$3*
1,1,$1+$1,$4,$5*
1,1,$1+$1,$6,$7*
1,1,$1+$1,$8,$9*
0 Add four rect primitives between the rounded corners*
20,1,$1+$1,$2,$3,$4,$5,0*
20,1,$1+$1,$4,$5,$6,$7,0*
20,1,$1+$1,$6,$7,$8,$9,0*
20,1,$1+$1,$8,$9,$2,$3,0*%
G04 Aperture macros list end*
%ADD10RoundRect,0.250000X-0.350000X0.275000X-0.350000X-0.275000X0.350000X-0.275000X0.350000X0.275000X0*%
%ADD11RoundRect,0.160000X0.160000X-0.197500X0.160000X0.197500X-0.160000X0.197500X-0.160000X-0.197500X0*%
%ADD12RoundRect,0.250000X-0.300000X0.300000X-0.300000X-0.300000X0.300000X-0.300000X0.300000X0.300000X0*%
%ADD13RoundRect,0.250000X-0.337500X-0.475000X0.337500X-0.475000X0.337500X0.475000X-0.337500X0.475000X0*%
%ADD14RoundRect,0.250001X-0.462499X-0.624999X0.462499X-0.624999X0.462499X0.624999X-0.462499X0.624999X0*%
%ADD15RoundRect,0.237500X0.237500X-0.250000X0.237500X0.250000X-0.237500X0.250000X-0.237500X-0.250000X0*%
%ADD16RoundRect,0.250001X2.049999X0.799999X-2.049999X0.799999X-2.049999X-0.799999X2.049999X-0.799999X0*%
%ADD17RoundRect,0.250001X-2.049999X-0.799999X2.049999X-0.799999X2.049999X0.799999X-2.049999X0.799999X0*%
%ADD18RoundRect,0.075000X-0.075000X0.700000X-0.075000X-0.700000X0.075000X-0.700000X0.075000X0.700000X0*%
%ADD19RoundRect,0.075000X-0.700000X0.075000X-0.700000X-0.075000X0.700000X-0.075000X0.700000X0.075000X0*%
%ADD20RoundRect,0.250000X0.475000X-0.337500X0.475000X0.337500X-0.475000X0.337500X-0.475000X-0.337500X0*%
%ADD21R,1.050000X0.550000*%
%ADD22RoundRect,0.250000X-0.475000X0.337500X-0.475000X-0.337500X0.475000X-0.337500X0.475000X0.337500X0*%
%ADD23RoundRect,0.160000X-0.160000X0.197500X-0.160000X-0.197500X0.160000X-0.197500X0.160000X0.197500X0*%
%ADD24RoundRect,0.250000X-0.350000X-0.450000X0.350000X-0.450000X0.350000X0.450000X-0.350000X0.450000X0*%
%ADD25RoundRect,0.237500X-0.250000X-0.237500X0.250000X-0.237500X0.250000X0.237500X-0.250000X0.237500X0*%
%ADD26RoundRect,0.160000X0.197500X0.160000X-0.197500X0.160000X-0.197500X-0.160000X0.197500X-0.160000X0*%
%ADD27R,1.000000X1.300000*%
%ADD28RoundRect,0.250000X0.337500X0.475000X-0.337500X0.475000X-0.337500X-0.475000X0.337500X-0.475000X0*%
%ADD29RoundRect,0.250000X0.350000X-0.275000X0.350000X0.275000X-0.350000X0.275000X-0.350000X-0.275000X0*%
%ADD30RoundRect,0.237500X0.250000X0.237500X-0.250000X0.237500X-0.250000X-0.237500X0.250000X-0.237500X0*%
%ADD31RoundRect,0.249999X-0.450001X-1.425001X0.450001X-1.425001X0.450001X1.425001X-0.450001X1.425001X0*%
%ADD32RoundRect,0.250000X-0.275000X-0.350000X0.275000X-0.350000X0.275000X0.350000X-0.275000X0.350000X0*%
%ADD33R,1.528000X0.650000*%
%ADD34RoundRect,0.250000X1.300000X0.850000X-1.300000X0.850000X-1.300000X-0.850000X1.300000X-0.850000X0*%
%ADD35RoundRect,0.250000X0.500000X0.510000X-0.500000X0.510000X-0.500000X-0.510000X0.500000X-0.510000X0*%
%ADD36RoundRect,0.250000X0.350000X0.450000X-0.350000X0.450000X-0.350000X-0.450000X0.350000X-0.450000X0*%
%ADD37RoundRect,0.250000X0.300000X0.300000X-0.300000X0.300000X-0.300000X-0.300000X0.300000X-0.300000X0*%
%ADD38RoundRect,0.750000X1.750000X-0.750000X1.750000X0.750000X-1.750000X0.750000X-1.750000X-0.750000X0*%
G04 APERTURE END LIST*
D10*
%TO.C,FB5*%
X231500000Y-137300000D03*
X231500000Y-139600000D03*
%TD*%
D11*
%TO.C,R7*%
X205700000Y-141895000D03*
X205700000Y-140700000D03*
%TD*%
D12*
%TO.C,D6*%
X258200000Y-151400000D03*
X258200000Y-154200000D03*
%TD*%
D13*
%TO.C,C2*%
X206225000Y-158200000D03*
X208300000Y-158200000D03*
%TD*%
D14*
%TO.C,D7*%
X251387500Y-164600000D03*
X254362500Y-164600000D03*
%TD*%
D15*
%TO.C,R29*%
X254200000Y-153225000D03*
X254200000Y-151400000D03*
%TD*%
D16*
%TO.C,C16*%
X219200000Y-118900000D03*
X210400000Y-118900000D03*
%TD*%
D17*
%TO.C,C31*%
X226100000Y-118700000D03*
X234900000Y-118700000D03*
%TD*%
D18*
%TO.C,U3*%
X246250000Y-134325000D03*
X245750000Y-134325000D03*
X245250000Y-134325000D03*
X244750000Y-134325000D03*
X244250000Y-134325000D03*
X243750000Y-134325000D03*
X243250000Y-134325000D03*
X242750000Y-134325000D03*
X242250000Y-134325000D03*
X241750000Y-134325000D03*
X241250000Y-134325000D03*
X240750000Y-134325000D03*
X240250000Y-134325000D03*
X239750000Y-134325000D03*
X239250000Y-134325000D03*
X238750000Y-134325000D03*
D19*
X236825000Y-136250000D03*
X236825000Y-136750000D03*
X236825000Y-137250000D03*
X236825000Y-137750000D03*
X236825000Y-138250000D03*
X236825000Y-138750000D03*
X236825000Y-139250000D03*
X236825000Y-139750000D03*
X236825000Y-140250000D03*
X236825000Y-140750000D03*
X236825000Y-141250000D03*
X236825000Y-141750000D03*
X236825000Y-142250000D03*
X236825000Y-142750000D03*
X236825000Y-143250000D03*
X236825000Y-143750000D03*
D18*
X238750000Y-145675000D03*
X239250000Y-145675000D03*
X239750000Y-145675000D03*
X240250000Y-145675000D03*
X240750000Y-145675000D03*
X241250000Y-145675000D03*
X241750000Y-145675000D03*
X242250000Y-145675000D03*
X242750000Y-145675000D03*
X243250000Y-145675000D03*
X243750000Y-145675000D03*
X244250000Y-145675000D03*
X244750000Y-145675000D03*
X245250000Y-145675000D03*
X245750000Y-145675000D03*
X246250000Y-145675000D03*
D19*
X248175000Y-143750000D03*
X248175000Y-143250000D03*
X248175000Y-142750000D03*
X248175000Y-142250000D03*
X248175000Y-141750000D03*
X248175000Y-141250000D03*
X248175000Y-140750000D03*
X248175000Y-140250000D03*
X248175000Y-139750000D03*
X248175000Y-139250000D03*
X248175000Y-138750000D03*
X248175000Y-138250000D03*
X248175000Y-137750000D03*
X248175000Y-137250000D03*
X248175000Y-136750000D03*
X248175000Y-136250000D03*
%TD*%
D20*
%TO.C,C14*%
X224800000Y-127937500D03*
X224800000Y-125862500D03*
%TD*%
D21*
%TO.C,U6*%
X207100000Y-148100000D03*
X207100000Y-149050000D03*
X207100000Y-150000000D03*
X209700000Y-150000000D03*
X209700000Y-149050000D03*
X209700000Y-148100000D03*
%TD*%
D22*
%TO.C,C32*%
X261200000Y-151325000D03*
X261200000Y-153400000D03*
%TD*%
D23*
%TO.C,R12*%
X225400000Y-132802500D03*
X225400000Y-133997500D03*
%TD*%
D24*
%TO.C,R15*%
X250800000Y-132000000D03*
X252800000Y-132000000D03*
%TD*%
D20*
%TO.C,C3*%
X207700000Y-154175000D03*
X207700000Y-152100000D03*
%TD*%
D13*
%TO.C,C17*%
X237962500Y-129400000D03*
X240037500Y-129400000D03*
%TD*%
D25*
%TO.C,R3*%
X238087500Y-152000000D03*
X239912500Y-152000000D03*
%TD*%
D11*
%TO.C,R11*%
X224000000Y-133997500D03*
X224000000Y-132802500D03*
%TD*%
D26*
%TO.C,R10*%
X218297500Y-130500000D03*
X217102500Y-130500000D03*
%TD*%
D27*
%TO.C,S1*%
X265300000Y-135200000D03*
X265300000Y-130800000D03*
X263700000Y-135200000D03*
X263700000Y-130800000D03*
%TD*%
D11*
%TO.C,R13*%
X226700000Y-133990000D03*
X226700000Y-132795000D03*
%TD*%
D28*
%TO.C,C8*%
X214100000Y-141200000D03*
X212025000Y-141200000D03*
%TD*%
D29*
%TO.C,FB3*%
X204000000Y-158410000D03*
X204000000Y-156110000D03*
%TD*%
D22*
%TO.C,C33*%
X263900000Y-151362500D03*
X263900000Y-153437500D03*
%TD*%
D13*
%TO.C,C6*%
X202925000Y-149000000D03*
X205000000Y-149000000D03*
%TD*%
D14*
%TO.C,D8*%
X251387500Y-170100000D03*
X254362500Y-170100000D03*
%TD*%
D29*
%TO.C,FB2*%
X209000000Y-128650000D03*
X209000000Y-126350000D03*
%TD*%
D13*
%TO.C,C36*%
X229462500Y-142737500D03*
X231537500Y-142737500D03*
%TD*%
D30*
%TO.C,R1*%
X207954048Y-156100000D03*
X206129048Y-156100000D03*
%TD*%
D20*
%TO.C,C15*%
X228300000Y-127937500D03*
X228300000Y-125862500D03*
%TD*%
D28*
%TO.C,C5*%
X235037500Y-149000000D03*
X232962500Y-149000000D03*
%TD*%
D23*
%TO.C,R9*%
X216000000Y-131502500D03*
X216000000Y-132697500D03*
%TD*%
%TO.C,R14*%
X228000000Y-132797500D03*
X228000000Y-133992500D03*
%TD*%
D31*
%TO.C,R5*%
X207850000Y-144600000D03*
X213950000Y-144600000D03*
%TD*%
D28*
%TO.C,C11*%
X214100000Y-134000000D03*
X212025000Y-134000000D03*
%TD*%
D32*
%TO.C,FB4*%
X238120000Y-155000000D03*
X240420000Y-155000000D03*
%TD*%
D33*
%TO.C,U7*%
X245889000Y-151095000D03*
X245889000Y-152365000D03*
X245889000Y-153635000D03*
X245889000Y-154905000D03*
X251311000Y-154905000D03*
X251311000Y-153635000D03*
X251311000Y-152365000D03*
X251311000Y-151095000D03*
%TD*%
D34*
%TO.C,D11*%
X218000000Y-164000000D03*
D35*
X214780000Y-164000000D03*
%TD*%
D20*
%TO.C,C13*%
X221200000Y-127937500D03*
X221200000Y-125862500D03*
%TD*%
D23*
%TO.C,R8*%
X216000000Y-134102500D03*
X216000000Y-135297500D03*
%TD*%
D13*
%TO.C,C19*%
X237962500Y-124300000D03*
X240037500Y-124300000D03*
%TD*%
D28*
%TO.C,C10*%
X214075000Y-136400000D03*
X212000000Y-136400000D03*
%TD*%
%TO.C,C4*%
X230000000Y-158000000D03*
X227925000Y-158000000D03*
%TD*%
D13*
%TO.C,C18*%
X237962500Y-126800000D03*
X240037500Y-126800000D03*
%TD*%
D36*
%TO.C,R4*%
X234970000Y-155000000D03*
X232970000Y-155000000D03*
%TD*%
D12*
%TO.C,D1*%
X212900000Y-155500000D03*
X212900000Y-158300000D03*
%TD*%
D22*
%TO.C,C1*%
X261500000Y-131962500D03*
X261500000Y-134037500D03*
%TD*%
D32*
%TO.C,FB1*%
X237950000Y-131700000D03*
X240250000Y-131700000D03*
%TD*%
D28*
%TO.C,C9*%
X214075000Y-138800000D03*
X212000000Y-138800000D03*
%TD*%
D23*
%TO.C,R6*%
X208300000Y-140705000D03*
X208300000Y-141900000D03*
%TD*%
D37*
%TO.C,D2*%
X235720000Y-152000000D03*
X232920000Y-152000000D03*
%TD*%
D14*
%TO.C,D9*%
X251387500Y-159100000D03*
X254362500Y-159100000D03*
%TD*%
D20*
%TO.C,C7*%
X212200000Y-149900000D03*
X212200000Y-147825000D03*
%TD*%
D38*
%TO.C,L1*%
X221800000Y-147500000D03*
X221800000Y-138000000D03*
%TD*%
D28*
%TO.C,C12*%
X214100000Y-131600000D03*
X212025000Y-131600000D03*
%TD*%
D14*
%TO.C,D10*%
X215312500Y-169000000D03*
X218287500Y-169000000D03*
%TD*%
D30*
%TO.C,R2*%
X212200000Y-153556750D03*
X210375000Y-153556750D03*
%TD*%
M02*
