%TF.GenerationSoftware,KiCad,Pcbnew,8.0.7*%
%TF.CreationDate,2025-05-08T16:31:26-05:00*%
%TF.ProjectId,OU_AIMNet_MPPT_v1.0,4f555f41-494d-44e6-9574-5f4d5050545f,rev?*%
%TF.SameCoordinates,Original*%
%TF.FileFunction,AssemblyDrawing,Bot*%
%FSLAX46Y46*%
G04 Gerber Fmt 4.6, Leading zero omitted, Abs format (unit mm)*
G04 Created by KiCad (PCBNEW 8.0.7) date 2025-05-08 16:31:26*
%MOMM*%
%LPD*%
G01*
G04 APERTURE LIST*
%ADD10C,0.150000*%
%ADD11C,0.080000*%
%ADD12C,0.120000*%
%ADD13C,0.254000*%
%ADD14C,0.040000*%
%ADD15C,0.060000*%
%ADD16C,0.100000*%
G04 APERTURE END LIST*
D10*
X241519047Y-171230057D02*
X241471428Y-171182438D01*
X241471428Y-171182438D02*
X241376190Y-171134819D01*
X241376190Y-171134819D02*
X241138095Y-171134819D01*
X241138095Y-171134819D02*
X241042857Y-171182438D01*
X241042857Y-171182438D02*
X240995238Y-171230057D01*
X240995238Y-171230057D02*
X240947619Y-171325295D01*
X240947619Y-171325295D02*
X240947619Y-171420533D01*
X240947619Y-171420533D02*
X240995238Y-171563390D01*
X240995238Y-171563390D02*
X241566666Y-172134819D01*
X241566666Y-172134819D02*
X240947619Y-172134819D01*
X240566666Y-171230057D02*
X240519047Y-171182438D01*
X240519047Y-171182438D02*
X240423809Y-171134819D01*
X240423809Y-171134819D02*
X240185714Y-171134819D01*
X240185714Y-171134819D02*
X240090476Y-171182438D01*
X240090476Y-171182438D02*
X240042857Y-171230057D01*
X240042857Y-171230057D02*
X239995238Y-171325295D01*
X239995238Y-171325295D02*
X239995238Y-171420533D01*
X239995238Y-171420533D02*
X240042857Y-171563390D01*
X240042857Y-171563390D02*
X240614285Y-172134819D01*
X240614285Y-172134819D02*
X239995238Y-172134819D01*
X239376190Y-171134819D02*
X239280952Y-171134819D01*
X239280952Y-171134819D02*
X239185714Y-171182438D01*
X239185714Y-171182438D02*
X239138095Y-171230057D01*
X239138095Y-171230057D02*
X239090476Y-171325295D01*
X239090476Y-171325295D02*
X239042857Y-171515771D01*
X239042857Y-171515771D02*
X239042857Y-171753866D01*
X239042857Y-171753866D02*
X239090476Y-171944342D01*
X239090476Y-171944342D02*
X239138095Y-172039580D01*
X239138095Y-172039580D02*
X239185714Y-172087200D01*
X239185714Y-172087200D02*
X239280952Y-172134819D01*
X239280952Y-172134819D02*
X239376190Y-172134819D01*
X239376190Y-172134819D02*
X239471428Y-172087200D01*
X239471428Y-172087200D02*
X239519047Y-172039580D01*
X239519047Y-172039580D02*
X239566666Y-171944342D01*
X239566666Y-171944342D02*
X239614285Y-171753866D01*
X239614285Y-171753866D02*
X239614285Y-171515771D01*
X239614285Y-171515771D02*
X239566666Y-171325295D01*
X239566666Y-171325295D02*
X239519047Y-171230057D01*
X239519047Y-171230057D02*
X239471428Y-171182438D01*
X239471428Y-171182438D02*
X239376190Y-171134819D01*
X238614285Y-171468152D02*
X238614285Y-172134819D01*
X238614285Y-171563390D02*
X238566666Y-171515771D01*
X238566666Y-171515771D02*
X238471428Y-171468152D01*
X238471428Y-171468152D02*
X238328571Y-171468152D01*
X238328571Y-171468152D02*
X238233333Y-171515771D01*
X238233333Y-171515771D02*
X238185714Y-171611009D01*
X238185714Y-171611009D02*
X238185714Y-172134819D01*
X237376190Y-171611009D02*
X237709523Y-171611009D01*
X237709523Y-172134819D02*
X237709523Y-171134819D01*
X237709523Y-171134819D02*
X237233333Y-171134819D01*
D11*
X239721428Y-170179530D02*
X239745237Y-170203340D01*
X239745237Y-170203340D02*
X239816666Y-170227149D01*
X239816666Y-170227149D02*
X239864285Y-170227149D01*
X239864285Y-170227149D02*
X239935713Y-170203340D01*
X239935713Y-170203340D02*
X239983332Y-170155720D01*
X239983332Y-170155720D02*
X240007142Y-170108101D01*
X240007142Y-170108101D02*
X240030951Y-170012863D01*
X240030951Y-170012863D02*
X240030951Y-169941435D01*
X240030951Y-169941435D02*
X240007142Y-169846197D01*
X240007142Y-169846197D02*
X239983332Y-169798578D01*
X239983332Y-169798578D02*
X239935713Y-169750959D01*
X239935713Y-169750959D02*
X239864285Y-169727149D01*
X239864285Y-169727149D02*
X239816666Y-169727149D01*
X239816666Y-169727149D02*
X239745237Y-169750959D01*
X239745237Y-169750959D02*
X239721428Y-169774768D01*
X239554761Y-169727149D02*
X239245237Y-169727149D01*
X239245237Y-169727149D02*
X239411904Y-169917625D01*
X239411904Y-169917625D02*
X239340475Y-169917625D01*
X239340475Y-169917625D02*
X239292856Y-169941435D01*
X239292856Y-169941435D02*
X239269047Y-169965244D01*
X239269047Y-169965244D02*
X239245237Y-170012863D01*
X239245237Y-170012863D02*
X239245237Y-170131911D01*
X239245237Y-170131911D02*
X239269047Y-170179530D01*
X239269047Y-170179530D02*
X239292856Y-170203340D01*
X239292856Y-170203340D02*
X239340475Y-170227149D01*
X239340475Y-170227149D02*
X239483332Y-170227149D01*
X239483332Y-170227149D02*
X239530951Y-170203340D01*
X239530951Y-170203340D02*
X239554761Y-170179530D01*
X238792857Y-169727149D02*
X239030952Y-169727149D01*
X239030952Y-169727149D02*
X239054761Y-169965244D01*
X239054761Y-169965244D02*
X239030952Y-169941435D01*
X239030952Y-169941435D02*
X238983333Y-169917625D01*
X238983333Y-169917625D02*
X238864285Y-169917625D01*
X238864285Y-169917625D02*
X238816666Y-169941435D01*
X238816666Y-169941435D02*
X238792857Y-169965244D01*
X238792857Y-169965244D02*
X238769047Y-170012863D01*
X238769047Y-170012863D02*
X238769047Y-170131911D01*
X238769047Y-170131911D02*
X238792857Y-170179530D01*
X238792857Y-170179530D02*
X238816666Y-170203340D01*
X238816666Y-170203340D02*
X238864285Y-170227149D01*
X238864285Y-170227149D02*
X238983333Y-170227149D01*
X238983333Y-170227149D02*
X239030952Y-170203340D01*
X239030952Y-170203340D02*
X239054761Y-170179530D01*
D10*
X216089881Y-143834819D02*
X216661309Y-143834819D01*
X216375595Y-143834819D02*
X216375595Y-142834819D01*
X216375595Y-142834819D02*
X216470833Y-142977676D01*
X216470833Y-142977676D02*
X216566071Y-143072914D01*
X216566071Y-143072914D02*
X216661309Y-143120533D01*
X215470833Y-142834819D02*
X215375595Y-142834819D01*
X215375595Y-142834819D02*
X215280357Y-142882438D01*
X215280357Y-142882438D02*
X215232738Y-142930057D01*
X215232738Y-142930057D02*
X215185119Y-143025295D01*
X215185119Y-143025295D02*
X215137500Y-143215771D01*
X215137500Y-143215771D02*
X215137500Y-143453866D01*
X215137500Y-143453866D02*
X215185119Y-143644342D01*
X215185119Y-143644342D02*
X215232738Y-143739580D01*
X215232738Y-143739580D02*
X215280357Y-143787200D01*
X215280357Y-143787200D02*
X215375595Y-143834819D01*
X215375595Y-143834819D02*
X215470833Y-143834819D01*
X215470833Y-143834819D02*
X215566071Y-143787200D01*
X215566071Y-143787200D02*
X215613690Y-143739580D01*
X215613690Y-143739580D02*
X215661309Y-143644342D01*
X215661309Y-143644342D02*
X215708928Y-143453866D01*
X215708928Y-143453866D02*
X215708928Y-143215771D01*
X215708928Y-143215771D02*
X215661309Y-143025295D01*
X215661309Y-143025295D02*
X215613690Y-142930057D01*
X215613690Y-142930057D02*
X215566071Y-142882438D01*
X215566071Y-142882438D02*
X215470833Y-142834819D01*
X213518452Y-143168152D02*
X213518452Y-143834819D01*
X213947023Y-143168152D02*
X213947023Y-143691961D01*
X213947023Y-143691961D02*
X213899404Y-143787200D01*
X213899404Y-143787200D02*
X213804166Y-143834819D01*
X213804166Y-143834819D02*
X213661309Y-143834819D01*
X213661309Y-143834819D02*
X213566071Y-143787200D01*
X213566071Y-143787200D02*
X213518452Y-143739580D01*
X212708928Y-143311009D02*
X213042261Y-143311009D01*
X213042261Y-143834819D02*
X213042261Y-142834819D01*
X213042261Y-142834819D02*
X212566071Y-142834819D01*
D11*
X214958928Y-141879530D02*
X214982737Y-141903340D01*
X214982737Y-141903340D02*
X215054166Y-141927149D01*
X215054166Y-141927149D02*
X215101785Y-141927149D01*
X215101785Y-141927149D02*
X215173213Y-141903340D01*
X215173213Y-141903340D02*
X215220832Y-141855720D01*
X215220832Y-141855720D02*
X215244642Y-141808101D01*
X215244642Y-141808101D02*
X215268451Y-141712863D01*
X215268451Y-141712863D02*
X215268451Y-141641435D01*
X215268451Y-141641435D02*
X215244642Y-141546197D01*
X215244642Y-141546197D02*
X215220832Y-141498578D01*
X215220832Y-141498578D02*
X215173213Y-141450959D01*
X215173213Y-141450959D02*
X215101785Y-141427149D01*
X215101785Y-141427149D02*
X215054166Y-141427149D01*
X215054166Y-141427149D02*
X214982737Y-141450959D01*
X214982737Y-141450959D02*
X214958928Y-141474768D01*
X214768451Y-141474768D02*
X214744642Y-141450959D01*
X214744642Y-141450959D02*
X214697023Y-141427149D01*
X214697023Y-141427149D02*
X214577975Y-141427149D01*
X214577975Y-141427149D02*
X214530356Y-141450959D01*
X214530356Y-141450959D02*
X214506547Y-141474768D01*
X214506547Y-141474768D02*
X214482737Y-141522387D01*
X214482737Y-141522387D02*
X214482737Y-141570006D01*
X214482737Y-141570006D02*
X214506547Y-141641435D01*
X214506547Y-141641435D02*
X214792261Y-141927149D01*
X214792261Y-141927149D02*
X214482737Y-141927149D01*
X214316071Y-141427149D02*
X213982738Y-141427149D01*
X213982738Y-141427149D02*
X214197023Y-141927149D01*
D10*
X214073809Y-125608152D02*
X214073809Y-126274819D01*
X214311904Y-125227200D02*
X214549999Y-125941485D01*
X214549999Y-125941485D02*
X213930952Y-125941485D01*
X213549999Y-126179580D02*
X213502380Y-126227200D01*
X213502380Y-126227200D02*
X213549999Y-126274819D01*
X213549999Y-126274819D02*
X213597618Y-126227200D01*
X213597618Y-126227200D02*
X213549999Y-126179580D01*
X213549999Y-126179580D02*
X213549999Y-126274819D01*
X213169047Y-125274819D02*
X212502381Y-125274819D01*
X212502381Y-125274819D02*
X212930952Y-126274819D01*
D12*
X214064285Y-128463855D02*
X214330952Y-128082902D01*
X214521428Y-128463855D02*
X214521428Y-127663855D01*
X214521428Y-127663855D02*
X214216666Y-127663855D01*
X214216666Y-127663855D02*
X214140476Y-127701950D01*
X214140476Y-127701950D02*
X214102381Y-127740045D01*
X214102381Y-127740045D02*
X214064285Y-127816236D01*
X214064285Y-127816236D02*
X214064285Y-127930521D01*
X214064285Y-127930521D02*
X214102381Y-128006712D01*
X214102381Y-128006712D02*
X214140476Y-128044807D01*
X214140476Y-128044807D02*
X214216666Y-128082902D01*
X214216666Y-128082902D02*
X214521428Y-128082902D01*
X213759524Y-127740045D02*
X213721428Y-127701950D01*
X213721428Y-127701950D02*
X213645238Y-127663855D01*
X213645238Y-127663855D02*
X213454762Y-127663855D01*
X213454762Y-127663855D02*
X213378571Y-127701950D01*
X213378571Y-127701950D02*
X213340476Y-127740045D01*
X213340476Y-127740045D02*
X213302381Y-127816236D01*
X213302381Y-127816236D02*
X213302381Y-127892426D01*
X213302381Y-127892426D02*
X213340476Y-128006712D01*
X213340476Y-128006712D02*
X213797619Y-128463855D01*
X213797619Y-128463855D02*
X213302381Y-128463855D01*
X212616666Y-127663855D02*
X212769047Y-127663855D01*
X212769047Y-127663855D02*
X212845238Y-127701950D01*
X212845238Y-127701950D02*
X212883333Y-127740045D01*
X212883333Y-127740045D02*
X212959523Y-127854331D01*
X212959523Y-127854331D02*
X212997619Y-128006712D01*
X212997619Y-128006712D02*
X212997619Y-128311474D01*
X212997619Y-128311474D02*
X212959523Y-128387664D01*
X212959523Y-128387664D02*
X212921428Y-128425760D01*
X212921428Y-128425760D02*
X212845238Y-128463855D01*
X212845238Y-128463855D02*
X212692857Y-128463855D01*
X212692857Y-128463855D02*
X212616666Y-128425760D01*
X212616666Y-128425760D02*
X212578571Y-128387664D01*
X212578571Y-128387664D02*
X212540476Y-128311474D01*
X212540476Y-128311474D02*
X212540476Y-128120998D01*
X212540476Y-128120998D02*
X212578571Y-128044807D01*
X212578571Y-128044807D02*
X212616666Y-128006712D01*
X212616666Y-128006712D02*
X212692857Y-127968617D01*
X212692857Y-127968617D02*
X212845238Y-127968617D01*
X212845238Y-127968617D02*
X212921428Y-128006712D01*
X212921428Y-128006712D02*
X212959523Y-128044807D01*
X212959523Y-128044807D02*
X212997619Y-128120998D01*
D10*
X226723809Y-124030057D02*
X226676190Y-123982438D01*
X226676190Y-123982438D02*
X226580952Y-123934819D01*
X226580952Y-123934819D02*
X226342857Y-123934819D01*
X226342857Y-123934819D02*
X226247619Y-123982438D01*
X226247619Y-123982438D02*
X226200000Y-124030057D01*
X226200000Y-124030057D02*
X226152381Y-124125295D01*
X226152381Y-124125295D02*
X226152381Y-124220533D01*
X226152381Y-124220533D02*
X226200000Y-124363390D01*
X226200000Y-124363390D02*
X226771428Y-124934819D01*
X226771428Y-124934819D02*
X226152381Y-124934819D01*
X225771428Y-124030057D02*
X225723809Y-123982438D01*
X225723809Y-123982438D02*
X225628571Y-123934819D01*
X225628571Y-123934819D02*
X225390476Y-123934819D01*
X225390476Y-123934819D02*
X225295238Y-123982438D01*
X225295238Y-123982438D02*
X225247619Y-124030057D01*
X225247619Y-124030057D02*
X225200000Y-124125295D01*
X225200000Y-124125295D02*
X225200000Y-124220533D01*
X225200000Y-124220533D02*
X225247619Y-124363390D01*
X225247619Y-124363390D02*
X225819047Y-124934819D01*
X225819047Y-124934819D02*
X225200000Y-124934819D01*
X223580952Y-124268152D02*
X223580952Y-124934819D01*
X224009523Y-124268152D02*
X224009523Y-124791961D01*
X224009523Y-124791961D02*
X223961904Y-124887200D01*
X223961904Y-124887200D02*
X223866666Y-124934819D01*
X223866666Y-124934819D02*
X223723809Y-124934819D01*
X223723809Y-124934819D02*
X223628571Y-124887200D01*
X223628571Y-124887200D02*
X223580952Y-124839580D01*
X222771428Y-124411009D02*
X223104761Y-124411009D01*
X223104761Y-124934819D02*
X223104761Y-123934819D01*
X223104761Y-123934819D02*
X222628571Y-123934819D01*
D11*
X225021428Y-122979530D02*
X225045237Y-123003340D01*
X225045237Y-123003340D02*
X225116666Y-123027149D01*
X225116666Y-123027149D02*
X225164285Y-123027149D01*
X225164285Y-123027149D02*
X225235713Y-123003340D01*
X225235713Y-123003340D02*
X225283332Y-122955720D01*
X225283332Y-122955720D02*
X225307142Y-122908101D01*
X225307142Y-122908101D02*
X225330951Y-122812863D01*
X225330951Y-122812863D02*
X225330951Y-122741435D01*
X225330951Y-122741435D02*
X225307142Y-122646197D01*
X225307142Y-122646197D02*
X225283332Y-122598578D01*
X225283332Y-122598578D02*
X225235713Y-122550959D01*
X225235713Y-122550959D02*
X225164285Y-122527149D01*
X225164285Y-122527149D02*
X225116666Y-122527149D01*
X225116666Y-122527149D02*
X225045237Y-122550959D01*
X225045237Y-122550959D02*
X225021428Y-122574768D01*
X224854761Y-122527149D02*
X224545237Y-122527149D01*
X224545237Y-122527149D02*
X224711904Y-122717625D01*
X224711904Y-122717625D02*
X224640475Y-122717625D01*
X224640475Y-122717625D02*
X224592856Y-122741435D01*
X224592856Y-122741435D02*
X224569047Y-122765244D01*
X224569047Y-122765244D02*
X224545237Y-122812863D01*
X224545237Y-122812863D02*
X224545237Y-122931911D01*
X224545237Y-122931911D02*
X224569047Y-122979530D01*
X224569047Y-122979530D02*
X224592856Y-123003340D01*
X224592856Y-123003340D02*
X224640475Y-123027149D01*
X224640475Y-123027149D02*
X224783332Y-123027149D01*
X224783332Y-123027149D02*
X224830951Y-123003340D01*
X224830951Y-123003340D02*
X224854761Y-122979530D01*
X224235714Y-122527149D02*
X224188095Y-122527149D01*
X224188095Y-122527149D02*
X224140476Y-122550959D01*
X224140476Y-122550959D02*
X224116666Y-122574768D01*
X224116666Y-122574768D02*
X224092857Y-122622387D01*
X224092857Y-122622387D02*
X224069047Y-122717625D01*
X224069047Y-122717625D02*
X224069047Y-122836673D01*
X224069047Y-122836673D02*
X224092857Y-122931911D01*
X224092857Y-122931911D02*
X224116666Y-122979530D01*
X224116666Y-122979530D02*
X224140476Y-123003340D01*
X224140476Y-123003340D02*
X224188095Y-123027149D01*
X224188095Y-123027149D02*
X224235714Y-123027149D01*
X224235714Y-123027149D02*
X224283333Y-123003340D01*
X224283333Y-123003340D02*
X224307142Y-122979530D01*
X224307142Y-122979530D02*
X224330952Y-122931911D01*
X224330952Y-122931911D02*
X224354761Y-122836673D01*
X224354761Y-122836673D02*
X224354761Y-122717625D01*
X224354761Y-122717625D02*
X224330952Y-122622387D01*
X224330952Y-122622387D02*
X224307142Y-122574768D01*
X224307142Y-122574768D02*
X224283333Y-122550959D01*
X224283333Y-122550959D02*
X224235714Y-122527149D01*
D10*
X226723809Y-129830057D02*
X226676190Y-129782438D01*
X226676190Y-129782438D02*
X226580952Y-129734819D01*
X226580952Y-129734819D02*
X226342857Y-129734819D01*
X226342857Y-129734819D02*
X226247619Y-129782438D01*
X226247619Y-129782438D02*
X226200000Y-129830057D01*
X226200000Y-129830057D02*
X226152381Y-129925295D01*
X226152381Y-129925295D02*
X226152381Y-130020533D01*
X226152381Y-130020533D02*
X226200000Y-130163390D01*
X226200000Y-130163390D02*
X226771428Y-130734819D01*
X226771428Y-130734819D02*
X226152381Y-130734819D01*
X225771428Y-129830057D02*
X225723809Y-129782438D01*
X225723809Y-129782438D02*
X225628571Y-129734819D01*
X225628571Y-129734819D02*
X225390476Y-129734819D01*
X225390476Y-129734819D02*
X225295238Y-129782438D01*
X225295238Y-129782438D02*
X225247619Y-129830057D01*
X225247619Y-129830057D02*
X225200000Y-129925295D01*
X225200000Y-129925295D02*
X225200000Y-130020533D01*
X225200000Y-130020533D02*
X225247619Y-130163390D01*
X225247619Y-130163390D02*
X225819047Y-130734819D01*
X225819047Y-130734819D02*
X225200000Y-130734819D01*
X223580952Y-130068152D02*
X223580952Y-130734819D01*
X224009523Y-130068152D02*
X224009523Y-130591961D01*
X224009523Y-130591961D02*
X223961904Y-130687200D01*
X223961904Y-130687200D02*
X223866666Y-130734819D01*
X223866666Y-130734819D02*
X223723809Y-130734819D01*
X223723809Y-130734819D02*
X223628571Y-130687200D01*
X223628571Y-130687200D02*
X223580952Y-130639580D01*
X222771428Y-130211009D02*
X223104761Y-130211009D01*
X223104761Y-130734819D02*
X223104761Y-129734819D01*
X223104761Y-129734819D02*
X222628571Y-129734819D01*
D11*
X225021428Y-128779530D02*
X225045237Y-128803340D01*
X225045237Y-128803340D02*
X225116666Y-128827149D01*
X225116666Y-128827149D02*
X225164285Y-128827149D01*
X225164285Y-128827149D02*
X225235713Y-128803340D01*
X225235713Y-128803340D02*
X225283332Y-128755720D01*
X225283332Y-128755720D02*
X225307142Y-128708101D01*
X225307142Y-128708101D02*
X225330951Y-128612863D01*
X225330951Y-128612863D02*
X225330951Y-128541435D01*
X225330951Y-128541435D02*
X225307142Y-128446197D01*
X225307142Y-128446197D02*
X225283332Y-128398578D01*
X225283332Y-128398578D02*
X225235713Y-128350959D01*
X225235713Y-128350959D02*
X225164285Y-128327149D01*
X225164285Y-128327149D02*
X225116666Y-128327149D01*
X225116666Y-128327149D02*
X225045237Y-128350959D01*
X225045237Y-128350959D02*
X225021428Y-128374768D01*
X224830951Y-128374768D02*
X224807142Y-128350959D01*
X224807142Y-128350959D02*
X224759523Y-128327149D01*
X224759523Y-128327149D02*
X224640475Y-128327149D01*
X224640475Y-128327149D02*
X224592856Y-128350959D01*
X224592856Y-128350959D02*
X224569047Y-128374768D01*
X224569047Y-128374768D02*
X224545237Y-128422387D01*
X224545237Y-128422387D02*
X224545237Y-128470006D01*
X224545237Y-128470006D02*
X224569047Y-128541435D01*
X224569047Y-128541435D02*
X224854761Y-128827149D01*
X224854761Y-128827149D02*
X224545237Y-128827149D01*
X224307142Y-128827149D02*
X224211904Y-128827149D01*
X224211904Y-128827149D02*
X224164285Y-128803340D01*
X224164285Y-128803340D02*
X224140476Y-128779530D01*
X224140476Y-128779530D02*
X224092857Y-128708101D01*
X224092857Y-128708101D02*
X224069047Y-128612863D01*
X224069047Y-128612863D02*
X224069047Y-128422387D01*
X224069047Y-128422387D02*
X224092857Y-128374768D01*
X224092857Y-128374768D02*
X224116666Y-128350959D01*
X224116666Y-128350959D02*
X224164285Y-128327149D01*
X224164285Y-128327149D02*
X224259523Y-128327149D01*
X224259523Y-128327149D02*
X224307142Y-128350959D01*
X224307142Y-128350959D02*
X224330952Y-128374768D01*
X224330952Y-128374768D02*
X224354761Y-128422387D01*
X224354761Y-128422387D02*
X224354761Y-128541435D01*
X224354761Y-128541435D02*
X224330952Y-128589054D01*
X224330952Y-128589054D02*
X224307142Y-128612863D01*
X224307142Y-128612863D02*
X224259523Y-128636673D01*
X224259523Y-128636673D02*
X224164285Y-128636673D01*
X224164285Y-128636673D02*
X224116666Y-128612863D01*
X224116666Y-128612863D02*
X224092857Y-128589054D01*
X224092857Y-128589054D02*
X224069047Y-128541435D01*
D10*
X214023809Y-129408152D02*
X214023809Y-130074819D01*
X214261904Y-129027200D02*
X214499999Y-129741485D01*
X214499999Y-129741485D02*
X213880952Y-129741485D01*
X213499999Y-129979580D02*
X213452380Y-130027200D01*
X213452380Y-130027200D02*
X213499999Y-130074819D01*
X213499999Y-130074819D02*
X213547618Y-130027200D01*
X213547618Y-130027200D02*
X213499999Y-129979580D01*
X213499999Y-129979580D02*
X213499999Y-130074819D01*
X213119047Y-129074819D02*
X212452381Y-129074819D01*
X212452381Y-129074819D02*
X212880952Y-130074819D01*
D12*
X214014285Y-132263855D02*
X214280952Y-131882902D01*
X214471428Y-132263855D02*
X214471428Y-131463855D01*
X214471428Y-131463855D02*
X214166666Y-131463855D01*
X214166666Y-131463855D02*
X214090476Y-131501950D01*
X214090476Y-131501950D02*
X214052381Y-131540045D01*
X214052381Y-131540045D02*
X214014285Y-131616236D01*
X214014285Y-131616236D02*
X214014285Y-131730521D01*
X214014285Y-131730521D02*
X214052381Y-131806712D01*
X214052381Y-131806712D02*
X214090476Y-131844807D01*
X214090476Y-131844807D02*
X214166666Y-131882902D01*
X214166666Y-131882902D02*
X214471428Y-131882902D01*
X213709524Y-131540045D02*
X213671428Y-131501950D01*
X213671428Y-131501950D02*
X213595238Y-131463855D01*
X213595238Y-131463855D02*
X213404762Y-131463855D01*
X213404762Y-131463855D02*
X213328571Y-131501950D01*
X213328571Y-131501950D02*
X213290476Y-131540045D01*
X213290476Y-131540045D02*
X213252381Y-131616236D01*
X213252381Y-131616236D02*
X213252381Y-131692426D01*
X213252381Y-131692426D02*
X213290476Y-131806712D01*
X213290476Y-131806712D02*
X213747619Y-132263855D01*
X213747619Y-132263855D02*
X213252381Y-132263855D01*
X212528571Y-131463855D02*
X212909523Y-131463855D01*
X212909523Y-131463855D02*
X212947619Y-131844807D01*
X212947619Y-131844807D02*
X212909523Y-131806712D01*
X212909523Y-131806712D02*
X212833333Y-131768617D01*
X212833333Y-131768617D02*
X212642857Y-131768617D01*
X212642857Y-131768617D02*
X212566666Y-131806712D01*
X212566666Y-131806712D02*
X212528571Y-131844807D01*
X212528571Y-131844807D02*
X212490476Y-131920998D01*
X212490476Y-131920998D02*
X212490476Y-132111474D01*
X212490476Y-132111474D02*
X212528571Y-132187664D01*
X212528571Y-132187664D02*
X212566666Y-132225760D01*
X212566666Y-132225760D02*
X212642857Y-132263855D01*
X212642857Y-132263855D02*
X212833333Y-132263855D01*
X212833333Y-132263855D02*
X212909523Y-132225760D01*
X212909523Y-132225760D02*
X212947619Y-132187664D01*
D10*
X226698809Y-126730057D02*
X226651190Y-126682438D01*
X226651190Y-126682438D02*
X226555952Y-126634819D01*
X226555952Y-126634819D02*
X226317857Y-126634819D01*
X226317857Y-126634819D02*
X226222619Y-126682438D01*
X226222619Y-126682438D02*
X226175000Y-126730057D01*
X226175000Y-126730057D02*
X226127381Y-126825295D01*
X226127381Y-126825295D02*
X226127381Y-126920533D01*
X226127381Y-126920533D02*
X226175000Y-127063390D01*
X226175000Y-127063390D02*
X226746428Y-127634819D01*
X226746428Y-127634819D02*
X226127381Y-127634819D01*
X225746428Y-126730057D02*
X225698809Y-126682438D01*
X225698809Y-126682438D02*
X225603571Y-126634819D01*
X225603571Y-126634819D02*
X225365476Y-126634819D01*
X225365476Y-126634819D02*
X225270238Y-126682438D01*
X225270238Y-126682438D02*
X225222619Y-126730057D01*
X225222619Y-126730057D02*
X225175000Y-126825295D01*
X225175000Y-126825295D02*
X225175000Y-126920533D01*
X225175000Y-126920533D02*
X225222619Y-127063390D01*
X225222619Y-127063390D02*
X225794047Y-127634819D01*
X225794047Y-127634819D02*
X225175000Y-127634819D01*
X223555952Y-126968152D02*
X223555952Y-127634819D01*
X223984523Y-126968152D02*
X223984523Y-127491961D01*
X223984523Y-127491961D02*
X223936904Y-127587200D01*
X223936904Y-127587200D02*
X223841666Y-127634819D01*
X223841666Y-127634819D02*
X223698809Y-127634819D01*
X223698809Y-127634819D02*
X223603571Y-127587200D01*
X223603571Y-127587200D02*
X223555952Y-127539580D01*
X222746428Y-127111009D02*
X223079761Y-127111009D01*
X223079761Y-127634819D02*
X223079761Y-126634819D01*
X223079761Y-126634819D02*
X222603571Y-126634819D01*
D11*
X224996428Y-125679530D02*
X225020237Y-125703340D01*
X225020237Y-125703340D02*
X225091666Y-125727149D01*
X225091666Y-125727149D02*
X225139285Y-125727149D01*
X225139285Y-125727149D02*
X225210713Y-125703340D01*
X225210713Y-125703340D02*
X225258332Y-125655720D01*
X225258332Y-125655720D02*
X225282142Y-125608101D01*
X225282142Y-125608101D02*
X225305951Y-125512863D01*
X225305951Y-125512863D02*
X225305951Y-125441435D01*
X225305951Y-125441435D02*
X225282142Y-125346197D01*
X225282142Y-125346197D02*
X225258332Y-125298578D01*
X225258332Y-125298578D02*
X225210713Y-125250959D01*
X225210713Y-125250959D02*
X225139285Y-125227149D01*
X225139285Y-125227149D02*
X225091666Y-125227149D01*
X225091666Y-125227149D02*
X225020237Y-125250959D01*
X225020237Y-125250959D02*
X224996428Y-125274768D01*
X224805951Y-125274768D02*
X224782142Y-125250959D01*
X224782142Y-125250959D02*
X224734523Y-125227149D01*
X224734523Y-125227149D02*
X224615475Y-125227149D01*
X224615475Y-125227149D02*
X224567856Y-125250959D01*
X224567856Y-125250959D02*
X224544047Y-125274768D01*
X224544047Y-125274768D02*
X224520237Y-125322387D01*
X224520237Y-125322387D02*
X224520237Y-125370006D01*
X224520237Y-125370006D02*
X224544047Y-125441435D01*
X224544047Y-125441435D02*
X224829761Y-125727149D01*
X224829761Y-125727149D02*
X224520237Y-125727149D01*
X224234523Y-125441435D02*
X224282142Y-125417625D01*
X224282142Y-125417625D02*
X224305952Y-125393816D01*
X224305952Y-125393816D02*
X224329761Y-125346197D01*
X224329761Y-125346197D02*
X224329761Y-125322387D01*
X224329761Y-125322387D02*
X224305952Y-125274768D01*
X224305952Y-125274768D02*
X224282142Y-125250959D01*
X224282142Y-125250959D02*
X224234523Y-125227149D01*
X224234523Y-125227149D02*
X224139285Y-125227149D01*
X224139285Y-125227149D02*
X224091666Y-125250959D01*
X224091666Y-125250959D02*
X224067857Y-125274768D01*
X224067857Y-125274768D02*
X224044047Y-125322387D01*
X224044047Y-125322387D02*
X224044047Y-125346197D01*
X224044047Y-125346197D02*
X224067857Y-125393816D01*
X224067857Y-125393816D02*
X224091666Y-125417625D01*
X224091666Y-125417625D02*
X224139285Y-125441435D01*
X224139285Y-125441435D02*
X224234523Y-125441435D01*
X224234523Y-125441435D02*
X224282142Y-125465244D01*
X224282142Y-125465244D02*
X224305952Y-125489054D01*
X224305952Y-125489054D02*
X224329761Y-125536673D01*
X224329761Y-125536673D02*
X224329761Y-125631911D01*
X224329761Y-125631911D02*
X224305952Y-125679530D01*
X224305952Y-125679530D02*
X224282142Y-125703340D01*
X224282142Y-125703340D02*
X224234523Y-125727149D01*
X224234523Y-125727149D02*
X224139285Y-125727149D01*
X224139285Y-125727149D02*
X224091666Y-125703340D01*
X224091666Y-125703340D02*
X224067857Y-125679530D01*
X224067857Y-125679530D02*
X224044047Y-125631911D01*
X224044047Y-125631911D02*
X224044047Y-125536673D01*
X224044047Y-125536673D02*
X224067857Y-125489054D01*
X224067857Y-125489054D02*
X224091666Y-125465244D01*
X224091666Y-125465244D02*
X224139285Y-125441435D01*
D10*
X216152381Y-141134819D02*
X216723809Y-141134819D01*
X216438095Y-141134819D02*
X216438095Y-140134819D01*
X216438095Y-140134819D02*
X216533333Y-140277676D01*
X216533333Y-140277676D02*
X216628571Y-140372914D01*
X216628571Y-140372914D02*
X216723809Y-140420533D01*
X215533333Y-140134819D02*
X215438095Y-140134819D01*
X215438095Y-140134819D02*
X215342857Y-140182438D01*
X215342857Y-140182438D02*
X215295238Y-140230057D01*
X215295238Y-140230057D02*
X215247619Y-140325295D01*
X215247619Y-140325295D02*
X215200000Y-140515771D01*
X215200000Y-140515771D02*
X215200000Y-140753866D01*
X215200000Y-140753866D02*
X215247619Y-140944342D01*
X215247619Y-140944342D02*
X215295238Y-141039580D01*
X215295238Y-141039580D02*
X215342857Y-141087200D01*
X215342857Y-141087200D02*
X215438095Y-141134819D01*
X215438095Y-141134819D02*
X215533333Y-141134819D01*
X215533333Y-141134819D02*
X215628571Y-141087200D01*
X215628571Y-141087200D02*
X215676190Y-141039580D01*
X215676190Y-141039580D02*
X215723809Y-140944342D01*
X215723809Y-140944342D02*
X215771428Y-140753866D01*
X215771428Y-140753866D02*
X215771428Y-140515771D01*
X215771428Y-140515771D02*
X215723809Y-140325295D01*
X215723809Y-140325295D02*
X215676190Y-140230057D01*
X215676190Y-140230057D02*
X215628571Y-140182438D01*
X215628571Y-140182438D02*
X215533333Y-140134819D01*
X213580952Y-140468152D02*
X213580952Y-141134819D01*
X214009523Y-140468152D02*
X214009523Y-140991961D01*
X214009523Y-140991961D02*
X213961904Y-141087200D01*
X213961904Y-141087200D02*
X213866666Y-141134819D01*
X213866666Y-141134819D02*
X213723809Y-141134819D01*
X213723809Y-141134819D02*
X213628571Y-141087200D01*
X213628571Y-141087200D02*
X213580952Y-141039580D01*
X212771428Y-140611009D02*
X213104761Y-140611009D01*
X213104761Y-141134819D02*
X213104761Y-140134819D01*
X213104761Y-140134819D02*
X212628571Y-140134819D01*
D11*
X215021428Y-139179530D02*
X215045237Y-139203340D01*
X215045237Y-139203340D02*
X215116666Y-139227149D01*
X215116666Y-139227149D02*
X215164285Y-139227149D01*
X215164285Y-139227149D02*
X215235713Y-139203340D01*
X215235713Y-139203340D02*
X215283332Y-139155720D01*
X215283332Y-139155720D02*
X215307142Y-139108101D01*
X215307142Y-139108101D02*
X215330951Y-139012863D01*
X215330951Y-139012863D02*
X215330951Y-138941435D01*
X215330951Y-138941435D02*
X215307142Y-138846197D01*
X215307142Y-138846197D02*
X215283332Y-138798578D01*
X215283332Y-138798578D02*
X215235713Y-138750959D01*
X215235713Y-138750959D02*
X215164285Y-138727149D01*
X215164285Y-138727149D02*
X215116666Y-138727149D01*
X215116666Y-138727149D02*
X215045237Y-138750959D01*
X215045237Y-138750959D02*
X215021428Y-138774768D01*
X214854761Y-138727149D02*
X214545237Y-138727149D01*
X214545237Y-138727149D02*
X214711904Y-138917625D01*
X214711904Y-138917625D02*
X214640475Y-138917625D01*
X214640475Y-138917625D02*
X214592856Y-138941435D01*
X214592856Y-138941435D02*
X214569047Y-138965244D01*
X214569047Y-138965244D02*
X214545237Y-139012863D01*
X214545237Y-139012863D02*
X214545237Y-139131911D01*
X214545237Y-139131911D02*
X214569047Y-139179530D01*
X214569047Y-139179530D02*
X214592856Y-139203340D01*
X214592856Y-139203340D02*
X214640475Y-139227149D01*
X214640475Y-139227149D02*
X214783332Y-139227149D01*
X214783332Y-139227149D02*
X214830951Y-139203340D01*
X214830951Y-139203340D02*
X214854761Y-139179530D01*
X214378571Y-138727149D02*
X214045238Y-138727149D01*
X214045238Y-138727149D02*
X214259523Y-139227149D01*
D13*
X253667619Y-150904318D02*
X253667619Y-151932413D01*
X253667619Y-151932413D02*
X253607142Y-152053365D01*
X253607142Y-152053365D02*
X253546666Y-152113842D01*
X253546666Y-152113842D02*
X253425714Y-152174318D01*
X253425714Y-152174318D02*
X253183809Y-152174318D01*
X253183809Y-152174318D02*
X253062857Y-152113842D01*
X253062857Y-152113842D02*
X253002380Y-152053365D01*
X253002380Y-152053365D02*
X252941904Y-151932413D01*
X252941904Y-151932413D02*
X252941904Y-150904318D01*
X252397619Y-151025270D02*
X252337143Y-150964794D01*
X252337143Y-150964794D02*
X252216190Y-150904318D01*
X252216190Y-150904318D02*
X251913809Y-150904318D01*
X251913809Y-150904318D02*
X251792857Y-150964794D01*
X251792857Y-150964794D02*
X251732381Y-151025270D01*
X251732381Y-151025270D02*
X251671904Y-151146222D01*
X251671904Y-151146222D02*
X251671904Y-151267175D01*
X251671904Y-151267175D02*
X251732381Y-151448603D01*
X251732381Y-151448603D02*
X252458095Y-152174318D01*
X252458095Y-152174318D02*
X251671904Y-152174318D01*
D10*
X241457142Y-157834819D02*
X242028570Y-157834819D01*
X241742856Y-157834819D02*
X241742856Y-156834819D01*
X241742856Y-156834819D02*
X241838094Y-156977676D01*
X241838094Y-156977676D02*
X241933332Y-157072914D01*
X241933332Y-157072914D02*
X242028570Y-157120533D01*
X240838094Y-156834819D02*
X240742856Y-156834819D01*
X240742856Y-156834819D02*
X240647618Y-156882438D01*
X240647618Y-156882438D02*
X240599999Y-156930057D01*
X240599999Y-156930057D02*
X240552380Y-157025295D01*
X240552380Y-157025295D02*
X240504761Y-157215771D01*
X240504761Y-157215771D02*
X240504761Y-157453866D01*
X240504761Y-157453866D02*
X240552380Y-157644342D01*
X240552380Y-157644342D02*
X240599999Y-157739580D01*
X240599999Y-157739580D02*
X240647618Y-157787200D01*
X240647618Y-157787200D02*
X240742856Y-157834819D01*
X240742856Y-157834819D02*
X240838094Y-157834819D01*
X240838094Y-157834819D02*
X240933332Y-157787200D01*
X240933332Y-157787200D02*
X240980951Y-157739580D01*
X240980951Y-157739580D02*
X241028570Y-157644342D01*
X241028570Y-157644342D02*
X241076189Y-157453866D01*
X241076189Y-157453866D02*
X241076189Y-157215771D01*
X241076189Y-157215771D02*
X241028570Y-157025295D01*
X241028570Y-157025295D02*
X240980951Y-156930057D01*
X240980951Y-156930057D02*
X240933332Y-156882438D01*
X240933332Y-156882438D02*
X240838094Y-156834819D01*
X240076189Y-157834819D02*
X240076189Y-157168152D01*
X240076189Y-157263390D02*
X240028570Y-157215771D01*
X240028570Y-157215771D02*
X239933332Y-157168152D01*
X239933332Y-157168152D02*
X239790475Y-157168152D01*
X239790475Y-157168152D02*
X239695237Y-157215771D01*
X239695237Y-157215771D02*
X239647618Y-157311009D01*
X239647618Y-157311009D02*
X239647618Y-157834819D01*
X239647618Y-157311009D02*
X239599999Y-157215771D01*
X239599999Y-157215771D02*
X239504761Y-157168152D01*
X239504761Y-157168152D02*
X239361904Y-157168152D01*
X239361904Y-157168152D02*
X239266665Y-157215771D01*
X239266665Y-157215771D02*
X239219046Y-157311009D01*
X239219046Y-157311009D02*
X239219046Y-157834819D01*
X241242857Y-155554819D02*
X241576190Y-155078628D01*
X241814285Y-155554819D02*
X241814285Y-154554819D01*
X241814285Y-154554819D02*
X241433333Y-154554819D01*
X241433333Y-154554819D02*
X241338095Y-154602438D01*
X241338095Y-154602438D02*
X241290476Y-154650057D01*
X241290476Y-154650057D02*
X241242857Y-154745295D01*
X241242857Y-154745295D02*
X241242857Y-154888152D01*
X241242857Y-154888152D02*
X241290476Y-154983390D01*
X241290476Y-154983390D02*
X241338095Y-155031009D01*
X241338095Y-155031009D02*
X241433333Y-155078628D01*
X241433333Y-155078628D02*
X241814285Y-155078628D01*
X240909523Y-154554819D02*
X240290476Y-154554819D01*
X240290476Y-154554819D02*
X240623809Y-154935771D01*
X240623809Y-154935771D02*
X240480952Y-154935771D01*
X240480952Y-154935771D02*
X240385714Y-154983390D01*
X240385714Y-154983390D02*
X240338095Y-155031009D01*
X240338095Y-155031009D02*
X240290476Y-155126247D01*
X240290476Y-155126247D02*
X240290476Y-155364342D01*
X240290476Y-155364342D02*
X240338095Y-155459580D01*
X240338095Y-155459580D02*
X240385714Y-155507200D01*
X240385714Y-155507200D02*
X240480952Y-155554819D01*
X240480952Y-155554819D02*
X240766666Y-155554819D01*
X240766666Y-155554819D02*
X240861904Y-155507200D01*
X240861904Y-155507200D02*
X240909523Y-155459580D01*
X239671428Y-154554819D02*
X239576190Y-154554819D01*
X239576190Y-154554819D02*
X239480952Y-154602438D01*
X239480952Y-154602438D02*
X239433333Y-154650057D01*
X239433333Y-154650057D02*
X239385714Y-154745295D01*
X239385714Y-154745295D02*
X239338095Y-154935771D01*
X239338095Y-154935771D02*
X239338095Y-155173866D01*
X239338095Y-155173866D02*
X239385714Y-155364342D01*
X239385714Y-155364342D02*
X239433333Y-155459580D01*
X239433333Y-155459580D02*
X239480952Y-155507200D01*
X239480952Y-155507200D02*
X239576190Y-155554819D01*
X239576190Y-155554819D02*
X239671428Y-155554819D01*
X239671428Y-155554819D02*
X239766666Y-155507200D01*
X239766666Y-155507200D02*
X239814285Y-155459580D01*
X239814285Y-155459580D02*
X239861904Y-155364342D01*
X239861904Y-155364342D02*
X239909523Y-155173866D01*
X239909523Y-155173866D02*
X239909523Y-154935771D01*
X239909523Y-154935771D02*
X239861904Y-154745295D01*
X239861904Y-154745295D02*
X239814285Y-154650057D01*
X239814285Y-154650057D02*
X239766666Y-154602438D01*
X239766666Y-154602438D02*
X239671428Y-154554819D01*
X232824819Y-122607261D02*
X232824819Y-122035833D01*
X232824819Y-122321547D02*
X231824819Y-122321547D01*
X231824819Y-122321547D02*
X231967676Y-122226309D01*
X231967676Y-122226309D02*
X232062914Y-122131071D01*
X232062914Y-122131071D02*
X232110533Y-122035833D01*
X231824819Y-123226309D02*
X231824819Y-123321547D01*
X231824819Y-123321547D02*
X231872438Y-123416785D01*
X231872438Y-123416785D02*
X231920057Y-123464404D01*
X231920057Y-123464404D02*
X232015295Y-123512023D01*
X232015295Y-123512023D02*
X232205771Y-123559642D01*
X232205771Y-123559642D02*
X232443866Y-123559642D01*
X232443866Y-123559642D02*
X232634342Y-123512023D01*
X232634342Y-123512023D02*
X232729580Y-123464404D01*
X232729580Y-123464404D02*
X232777200Y-123416785D01*
X232777200Y-123416785D02*
X232824819Y-123321547D01*
X232824819Y-123321547D02*
X232824819Y-123226309D01*
X232824819Y-123226309D02*
X232777200Y-123131071D01*
X232777200Y-123131071D02*
X232729580Y-123083452D01*
X232729580Y-123083452D02*
X232634342Y-123035833D01*
X232634342Y-123035833D02*
X232443866Y-122988214D01*
X232443866Y-122988214D02*
X232205771Y-122988214D01*
X232205771Y-122988214D02*
X232015295Y-123035833D01*
X232015295Y-123035833D02*
X231920057Y-123083452D01*
X231920057Y-123083452D02*
X231872438Y-123131071D01*
X231872438Y-123131071D02*
X231824819Y-123226309D01*
X232824819Y-123988214D02*
X231824819Y-123988214D01*
X232443866Y-124083452D02*
X232824819Y-124369166D01*
X232158152Y-124369166D02*
X232539104Y-123988214D01*
D14*
X231318200Y-123035357D02*
X231194391Y-122948690D01*
X231318200Y-122886785D02*
X231058200Y-122886785D01*
X231058200Y-122886785D02*
X231058200Y-122985833D01*
X231058200Y-122985833D02*
X231070581Y-123010595D01*
X231070581Y-123010595D02*
X231082962Y-123022976D01*
X231082962Y-123022976D02*
X231107724Y-123035357D01*
X231107724Y-123035357D02*
X231144867Y-123035357D01*
X231144867Y-123035357D02*
X231169629Y-123022976D01*
X231169629Y-123022976D02*
X231182010Y-123010595D01*
X231182010Y-123010595D02*
X231194391Y-122985833D01*
X231194391Y-122985833D02*
X231194391Y-122886785D01*
X231318200Y-123282976D02*
X231318200Y-123134404D01*
X231318200Y-123208690D02*
X231058200Y-123208690D01*
X231058200Y-123208690D02*
X231095343Y-123183928D01*
X231095343Y-123183928D02*
X231120105Y-123159166D01*
X231120105Y-123159166D02*
X231132486Y-123134404D01*
X231169629Y-123431547D02*
X231157248Y-123406785D01*
X231157248Y-123406785D02*
X231144867Y-123394404D01*
X231144867Y-123394404D02*
X231120105Y-123382023D01*
X231120105Y-123382023D02*
X231107724Y-123382023D01*
X231107724Y-123382023D02*
X231082962Y-123394404D01*
X231082962Y-123394404D02*
X231070581Y-123406785D01*
X231070581Y-123406785D02*
X231058200Y-123431547D01*
X231058200Y-123431547D02*
X231058200Y-123481071D01*
X231058200Y-123481071D02*
X231070581Y-123505833D01*
X231070581Y-123505833D02*
X231082962Y-123518214D01*
X231082962Y-123518214D02*
X231107724Y-123530595D01*
X231107724Y-123530595D02*
X231120105Y-123530595D01*
X231120105Y-123530595D02*
X231144867Y-123518214D01*
X231144867Y-123518214D02*
X231157248Y-123505833D01*
X231157248Y-123505833D02*
X231169629Y-123481071D01*
X231169629Y-123481071D02*
X231169629Y-123431547D01*
X231169629Y-123431547D02*
X231182010Y-123406785D01*
X231182010Y-123406785D02*
X231194391Y-123394404D01*
X231194391Y-123394404D02*
X231219153Y-123382023D01*
X231219153Y-123382023D02*
X231268677Y-123382023D01*
X231268677Y-123382023D02*
X231293439Y-123394404D01*
X231293439Y-123394404D02*
X231305820Y-123406785D01*
X231305820Y-123406785D02*
X231318200Y-123431547D01*
X231318200Y-123431547D02*
X231318200Y-123481071D01*
X231318200Y-123481071D02*
X231305820Y-123505833D01*
X231305820Y-123505833D02*
X231293439Y-123518214D01*
X231293439Y-123518214D02*
X231268677Y-123530595D01*
X231268677Y-123530595D02*
X231219153Y-123530595D01*
X231219153Y-123530595D02*
X231194391Y-123518214D01*
X231194391Y-123518214D02*
X231182010Y-123505833D01*
X231182010Y-123505833D02*
X231169629Y-123481071D01*
D10*
X239297738Y-147284819D02*
X239869166Y-147284819D01*
X239583452Y-147284819D02*
X239583452Y-146284819D01*
X239583452Y-146284819D02*
X239678690Y-146427676D01*
X239678690Y-146427676D02*
X239773928Y-146522914D01*
X239773928Y-146522914D02*
X239869166Y-146570533D01*
X238678690Y-146284819D02*
X238583452Y-146284819D01*
X238583452Y-146284819D02*
X238488214Y-146332438D01*
X238488214Y-146332438D02*
X238440595Y-146380057D01*
X238440595Y-146380057D02*
X238392976Y-146475295D01*
X238392976Y-146475295D02*
X238345357Y-146665771D01*
X238345357Y-146665771D02*
X238345357Y-146903866D01*
X238345357Y-146903866D02*
X238392976Y-147094342D01*
X238392976Y-147094342D02*
X238440595Y-147189580D01*
X238440595Y-147189580D02*
X238488214Y-147237200D01*
X238488214Y-147237200D02*
X238583452Y-147284819D01*
X238583452Y-147284819D02*
X238678690Y-147284819D01*
X238678690Y-147284819D02*
X238773928Y-147237200D01*
X238773928Y-147237200D02*
X238821547Y-147189580D01*
X238821547Y-147189580D02*
X238869166Y-147094342D01*
X238869166Y-147094342D02*
X238916785Y-146903866D01*
X238916785Y-146903866D02*
X238916785Y-146665771D01*
X238916785Y-146665771D02*
X238869166Y-146475295D01*
X238869166Y-146475295D02*
X238821547Y-146380057D01*
X238821547Y-146380057D02*
X238773928Y-146332438D01*
X238773928Y-146332438D02*
X238678690Y-146284819D01*
X237916785Y-147284819D02*
X237916785Y-146284819D01*
X237821547Y-146903866D02*
X237535833Y-147284819D01*
X237535833Y-146618152D02*
X237916785Y-146999104D01*
D14*
X238869642Y-148018200D02*
X238956309Y-147894391D01*
X239018214Y-148018200D02*
X239018214Y-147758200D01*
X239018214Y-147758200D02*
X238919166Y-147758200D01*
X238919166Y-147758200D02*
X238894404Y-147770581D01*
X238894404Y-147770581D02*
X238882023Y-147782962D01*
X238882023Y-147782962D02*
X238869642Y-147807724D01*
X238869642Y-147807724D02*
X238869642Y-147844867D01*
X238869642Y-147844867D02*
X238882023Y-147869629D01*
X238882023Y-147869629D02*
X238894404Y-147882010D01*
X238894404Y-147882010D02*
X238919166Y-147894391D01*
X238919166Y-147894391D02*
X239018214Y-147894391D01*
X238770595Y-147782962D02*
X238758214Y-147770581D01*
X238758214Y-147770581D02*
X238733452Y-147758200D01*
X238733452Y-147758200D02*
X238671547Y-147758200D01*
X238671547Y-147758200D02*
X238646785Y-147770581D01*
X238646785Y-147770581D02*
X238634404Y-147782962D01*
X238634404Y-147782962D02*
X238622023Y-147807724D01*
X238622023Y-147807724D02*
X238622023Y-147832486D01*
X238622023Y-147832486D02*
X238634404Y-147869629D01*
X238634404Y-147869629D02*
X238782976Y-148018200D01*
X238782976Y-148018200D02*
X238622023Y-148018200D01*
X238461071Y-147758200D02*
X238436309Y-147758200D01*
X238436309Y-147758200D02*
X238411547Y-147770581D01*
X238411547Y-147770581D02*
X238399166Y-147782962D01*
X238399166Y-147782962D02*
X238386785Y-147807724D01*
X238386785Y-147807724D02*
X238374404Y-147857248D01*
X238374404Y-147857248D02*
X238374404Y-147919153D01*
X238374404Y-147919153D02*
X238386785Y-147968677D01*
X238386785Y-147968677D02*
X238399166Y-147993439D01*
X238399166Y-147993439D02*
X238411547Y-148005820D01*
X238411547Y-148005820D02*
X238436309Y-148018200D01*
X238436309Y-148018200D02*
X238461071Y-148018200D01*
X238461071Y-148018200D02*
X238485833Y-148005820D01*
X238485833Y-148005820D02*
X238498214Y-147993439D01*
X238498214Y-147993439D02*
X238510595Y-147968677D01*
X238510595Y-147968677D02*
X238522976Y-147919153D01*
X238522976Y-147919153D02*
X238522976Y-147857248D01*
X238522976Y-147857248D02*
X238510595Y-147807724D01*
X238510595Y-147807724D02*
X238498214Y-147782962D01*
X238498214Y-147782962D02*
X238485833Y-147770581D01*
X238485833Y-147770581D02*
X238461071Y-147758200D01*
D10*
X212900057Y-161595238D02*
X212852438Y-161642857D01*
X212852438Y-161642857D02*
X212804819Y-161738095D01*
X212804819Y-161738095D02*
X212804819Y-161976190D01*
X212804819Y-161976190D02*
X212852438Y-162071428D01*
X212852438Y-162071428D02*
X212900057Y-162119047D01*
X212900057Y-162119047D02*
X212995295Y-162166666D01*
X212995295Y-162166666D02*
X213090533Y-162166666D01*
X213090533Y-162166666D02*
X213233390Y-162119047D01*
X213233390Y-162119047D02*
X213804819Y-161547619D01*
X213804819Y-161547619D02*
X213804819Y-162166666D01*
X213709580Y-162595238D02*
X213757200Y-162642857D01*
X213757200Y-162642857D02*
X213804819Y-162595238D01*
X213804819Y-162595238D02*
X213757200Y-162547619D01*
X213757200Y-162547619D02*
X213709580Y-162595238D01*
X213709580Y-162595238D02*
X213804819Y-162595238D01*
X212804819Y-163547618D02*
X212804819Y-163071428D01*
X212804819Y-163071428D02*
X213281009Y-163023809D01*
X213281009Y-163023809D02*
X213233390Y-163071428D01*
X213233390Y-163071428D02*
X213185771Y-163166666D01*
X213185771Y-163166666D02*
X213185771Y-163404761D01*
X213185771Y-163404761D02*
X213233390Y-163499999D01*
X213233390Y-163499999D02*
X213281009Y-163547618D01*
X213281009Y-163547618D02*
X213376247Y-163595237D01*
X213376247Y-163595237D02*
X213614342Y-163595237D01*
X213614342Y-163595237D02*
X213709580Y-163547618D01*
X213709580Y-163547618D02*
X213757200Y-163499999D01*
X213757200Y-163499999D02*
X213804819Y-163404761D01*
X213804819Y-163404761D02*
X213804819Y-163166666D01*
X213804819Y-163166666D02*
X213757200Y-163071428D01*
X213757200Y-163071428D02*
X213709580Y-163023809D01*
X213804819Y-164023809D02*
X212804819Y-164023809D01*
X213423866Y-164119047D02*
X213804819Y-164404761D01*
X213138152Y-164404761D02*
X213519104Y-164023809D01*
D11*
X215227149Y-162678571D02*
X214989054Y-162511905D01*
X215227149Y-162392857D02*
X214727149Y-162392857D01*
X214727149Y-162392857D02*
X214727149Y-162583333D01*
X214727149Y-162583333D02*
X214750959Y-162630952D01*
X214750959Y-162630952D02*
X214774768Y-162654762D01*
X214774768Y-162654762D02*
X214822387Y-162678571D01*
X214822387Y-162678571D02*
X214893816Y-162678571D01*
X214893816Y-162678571D02*
X214941435Y-162654762D01*
X214941435Y-162654762D02*
X214965244Y-162630952D01*
X214965244Y-162630952D02*
X214989054Y-162583333D01*
X214989054Y-162583333D02*
X214989054Y-162392857D01*
X214727149Y-162845238D02*
X214727149Y-163154762D01*
X214727149Y-163154762D02*
X214917625Y-162988095D01*
X214917625Y-162988095D02*
X214917625Y-163059524D01*
X214917625Y-163059524D02*
X214941435Y-163107143D01*
X214941435Y-163107143D02*
X214965244Y-163130952D01*
X214965244Y-163130952D02*
X215012863Y-163154762D01*
X215012863Y-163154762D02*
X215131911Y-163154762D01*
X215131911Y-163154762D02*
X215179530Y-163130952D01*
X215179530Y-163130952D02*
X215203340Y-163107143D01*
X215203340Y-163107143D02*
X215227149Y-163059524D01*
X215227149Y-163059524D02*
X215227149Y-162916667D01*
X215227149Y-162916667D02*
X215203340Y-162869048D01*
X215203340Y-162869048D02*
X215179530Y-162845238D01*
X214727149Y-163607142D02*
X214727149Y-163369047D01*
X214727149Y-163369047D02*
X214965244Y-163345238D01*
X214965244Y-163345238D02*
X214941435Y-163369047D01*
X214941435Y-163369047D02*
X214917625Y-163416666D01*
X214917625Y-163416666D02*
X214917625Y-163535714D01*
X214917625Y-163535714D02*
X214941435Y-163583333D01*
X214941435Y-163583333D02*
X214965244Y-163607142D01*
X214965244Y-163607142D02*
X215012863Y-163630952D01*
X215012863Y-163630952D02*
X215131911Y-163630952D01*
X215131911Y-163630952D02*
X215179530Y-163607142D01*
X215179530Y-163607142D02*
X215203340Y-163583333D01*
X215203340Y-163583333D02*
X215227149Y-163535714D01*
X215227149Y-163535714D02*
X215227149Y-163416666D01*
X215227149Y-163416666D02*
X215203340Y-163369047D01*
X215203340Y-163369047D02*
X215179530Y-163345238D01*
D10*
X216089881Y-146734819D02*
X216661309Y-146734819D01*
X216375595Y-146734819D02*
X216375595Y-145734819D01*
X216375595Y-145734819D02*
X216470833Y-145877676D01*
X216470833Y-145877676D02*
X216566071Y-145972914D01*
X216566071Y-145972914D02*
X216661309Y-146020533D01*
X215470833Y-145734819D02*
X215375595Y-145734819D01*
X215375595Y-145734819D02*
X215280357Y-145782438D01*
X215280357Y-145782438D02*
X215232738Y-145830057D01*
X215232738Y-145830057D02*
X215185119Y-145925295D01*
X215185119Y-145925295D02*
X215137500Y-146115771D01*
X215137500Y-146115771D02*
X215137500Y-146353866D01*
X215137500Y-146353866D02*
X215185119Y-146544342D01*
X215185119Y-146544342D02*
X215232738Y-146639580D01*
X215232738Y-146639580D02*
X215280357Y-146687200D01*
X215280357Y-146687200D02*
X215375595Y-146734819D01*
X215375595Y-146734819D02*
X215470833Y-146734819D01*
X215470833Y-146734819D02*
X215566071Y-146687200D01*
X215566071Y-146687200D02*
X215613690Y-146639580D01*
X215613690Y-146639580D02*
X215661309Y-146544342D01*
X215661309Y-146544342D02*
X215708928Y-146353866D01*
X215708928Y-146353866D02*
X215708928Y-146115771D01*
X215708928Y-146115771D02*
X215661309Y-145925295D01*
X215661309Y-145925295D02*
X215613690Y-145830057D01*
X215613690Y-145830057D02*
X215566071Y-145782438D01*
X215566071Y-145782438D02*
X215470833Y-145734819D01*
X213518452Y-146068152D02*
X213518452Y-146734819D01*
X213947023Y-146068152D02*
X213947023Y-146591961D01*
X213947023Y-146591961D02*
X213899404Y-146687200D01*
X213899404Y-146687200D02*
X213804166Y-146734819D01*
X213804166Y-146734819D02*
X213661309Y-146734819D01*
X213661309Y-146734819D02*
X213566071Y-146687200D01*
X213566071Y-146687200D02*
X213518452Y-146639580D01*
X212708928Y-146211009D02*
X213042261Y-146211009D01*
X213042261Y-146734819D02*
X213042261Y-145734819D01*
X213042261Y-145734819D02*
X212566071Y-145734819D01*
D11*
X214958928Y-144779530D02*
X214982737Y-144803340D01*
X214982737Y-144803340D02*
X215054166Y-144827149D01*
X215054166Y-144827149D02*
X215101785Y-144827149D01*
X215101785Y-144827149D02*
X215173213Y-144803340D01*
X215173213Y-144803340D02*
X215220832Y-144755720D01*
X215220832Y-144755720D02*
X215244642Y-144708101D01*
X215244642Y-144708101D02*
X215268451Y-144612863D01*
X215268451Y-144612863D02*
X215268451Y-144541435D01*
X215268451Y-144541435D02*
X215244642Y-144446197D01*
X215244642Y-144446197D02*
X215220832Y-144398578D01*
X215220832Y-144398578D02*
X215173213Y-144350959D01*
X215173213Y-144350959D02*
X215101785Y-144327149D01*
X215101785Y-144327149D02*
X215054166Y-144327149D01*
X215054166Y-144327149D02*
X214982737Y-144350959D01*
X214982737Y-144350959D02*
X214958928Y-144374768D01*
X214792261Y-144327149D02*
X214482737Y-144327149D01*
X214482737Y-144327149D02*
X214649404Y-144517625D01*
X214649404Y-144517625D02*
X214577975Y-144517625D01*
X214577975Y-144517625D02*
X214530356Y-144541435D01*
X214530356Y-144541435D02*
X214506547Y-144565244D01*
X214506547Y-144565244D02*
X214482737Y-144612863D01*
X214482737Y-144612863D02*
X214482737Y-144731911D01*
X214482737Y-144731911D02*
X214506547Y-144779530D01*
X214506547Y-144779530D02*
X214530356Y-144803340D01*
X214530356Y-144803340D02*
X214577975Y-144827149D01*
X214577975Y-144827149D02*
X214720832Y-144827149D01*
X214720832Y-144827149D02*
X214768451Y-144803340D01*
X214768451Y-144803340D02*
X214792261Y-144779530D01*
X214197023Y-144541435D02*
X214244642Y-144517625D01*
X214244642Y-144517625D02*
X214268452Y-144493816D01*
X214268452Y-144493816D02*
X214292261Y-144446197D01*
X214292261Y-144446197D02*
X214292261Y-144422387D01*
X214292261Y-144422387D02*
X214268452Y-144374768D01*
X214268452Y-144374768D02*
X214244642Y-144350959D01*
X214244642Y-144350959D02*
X214197023Y-144327149D01*
X214197023Y-144327149D02*
X214101785Y-144327149D01*
X214101785Y-144327149D02*
X214054166Y-144350959D01*
X214054166Y-144350959D02*
X214030357Y-144374768D01*
X214030357Y-144374768D02*
X214006547Y-144422387D01*
X214006547Y-144422387D02*
X214006547Y-144446197D01*
X214006547Y-144446197D02*
X214030357Y-144493816D01*
X214030357Y-144493816D02*
X214054166Y-144517625D01*
X214054166Y-144517625D02*
X214101785Y-144541435D01*
X214101785Y-144541435D02*
X214197023Y-144541435D01*
X214197023Y-144541435D02*
X214244642Y-144565244D01*
X214244642Y-144565244D02*
X214268452Y-144589054D01*
X214268452Y-144589054D02*
X214292261Y-144636673D01*
X214292261Y-144636673D02*
X214292261Y-144731911D01*
X214292261Y-144731911D02*
X214268452Y-144779530D01*
X214268452Y-144779530D02*
X214244642Y-144803340D01*
X214244642Y-144803340D02*
X214197023Y-144827149D01*
X214197023Y-144827149D02*
X214101785Y-144827149D01*
X214101785Y-144827149D02*
X214054166Y-144803340D01*
X214054166Y-144803340D02*
X214030357Y-144779530D01*
X214030357Y-144779530D02*
X214006547Y-144731911D01*
X214006547Y-144731911D02*
X214006547Y-144636673D01*
X214006547Y-144636673D02*
X214030357Y-144589054D01*
X214030357Y-144589054D02*
X214054166Y-144565244D01*
X214054166Y-144565244D02*
X214101785Y-144541435D01*
D10*
X246619047Y-127954819D02*
X247190475Y-127954819D01*
X246904761Y-127954819D02*
X246904761Y-126954819D01*
X246904761Y-126954819D02*
X246999999Y-127097676D01*
X246999999Y-127097676D02*
X247095237Y-127192914D01*
X247095237Y-127192914D02*
X247190475Y-127240533D01*
X246190475Y-127954819D02*
X246190475Y-126954819D01*
X246095237Y-127573866D02*
X245809523Y-127954819D01*
X245809523Y-127288152D02*
X246190475Y-127669104D01*
D15*
X248669642Y-125281927D02*
X248802975Y-125091451D01*
X248898213Y-125281927D02*
X248898213Y-124881927D01*
X248898213Y-124881927D02*
X248745832Y-124881927D01*
X248745832Y-124881927D02*
X248707737Y-124900975D01*
X248707737Y-124900975D02*
X248688690Y-124920022D01*
X248688690Y-124920022D02*
X248669642Y-124958118D01*
X248669642Y-124958118D02*
X248669642Y-125015260D01*
X248669642Y-125015260D02*
X248688690Y-125053356D01*
X248688690Y-125053356D02*
X248707737Y-125072403D01*
X248707737Y-125072403D02*
X248745832Y-125091451D01*
X248745832Y-125091451D02*
X248898213Y-125091451D01*
X248517261Y-124920022D02*
X248498213Y-124900975D01*
X248498213Y-124900975D02*
X248460118Y-124881927D01*
X248460118Y-124881927D02*
X248364880Y-124881927D01*
X248364880Y-124881927D02*
X248326785Y-124900975D01*
X248326785Y-124900975D02*
X248307737Y-124920022D01*
X248307737Y-124920022D02*
X248288690Y-124958118D01*
X248288690Y-124958118D02*
X248288690Y-124996213D01*
X248288690Y-124996213D02*
X248307737Y-125053356D01*
X248307737Y-125053356D02*
X248536309Y-125281927D01*
X248536309Y-125281927D02*
X248288690Y-125281927D01*
X248136309Y-124920022D02*
X248117261Y-124900975D01*
X248117261Y-124900975D02*
X248079166Y-124881927D01*
X248079166Y-124881927D02*
X247983928Y-124881927D01*
X247983928Y-124881927D02*
X247945833Y-124900975D01*
X247945833Y-124900975D02*
X247926785Y-124920022D01*
X247926785Y-124920022D02*
X247907738Y-124958118D01*
X247907738Y-124958118D02*
X247907738Y-124996213D01*
X247907738Y-124996213D02*
X247926785Y-125053356D01*
X247926785Y-125053356D02*
X248155357Y-125281927D01*
X248155357Y-125281927D02*
X247907738Y-125281927D01*
D10*
X236174819Y-136242857D02*
X236174819Y-135671429D01*
X236174819Y-135957143D02*
X235174819Y-135957143D01*
X235174819Y-135957143D02*
X235317676Y-135861905D01*
X235317676Y-135861905D02*
X235412914Y-135766667D01*
X235412914Y-135766667D02*
X235460533Y-135671429D01*
X235174819Y-136861905D02*
X235174819Y-136957143D01*
X235174819Y-136957143D02*
X235222438Y-137052381D01*
X235222438Y-137052381D02*
X235270057Y-137100000D01*
X235270057Y-137100000D02*
X235365295Y-137147619D01*
X235365295Y-137147619D02*
X235555771Y-137195238D01*
X235555771Y-137195238D02*
X235793866Y-137195238D01*
X235793866Y-137195238D02*
X235984342Y-137147619D01*
X235984342Y-137147619D02*
X236079580Y-137100000D01*
X236079580Y-137100000D02*
X236127200Y-137052381D01*
X236127200Y-137052381D02*
X236174819Y-136957143D01*
X236174819Y-136957143D02*
X236174819Y-136861905D01*
X236174819Y-136861905D02*
X236127200Y-136766667D01*
X236127200Y-136766667D02*
X236079580Y-136719048D01*
X236079580Y-136719048D02*
X235984342Y-136671429D01*
X235984342Y-136671429D02*
X235793866Y-136623810D01*
X235793866Y-136623810D02*
X235555771Y-136623810D01*
X235555771Y-136623810D02*
X235365295Y-136671429D01*
X235365295Y-136671429D02*
X235270057Y-136719048D01*
X235270057Y-136719048D02*
X235222438Y-136766667D01*
X235222438Y-136766667D02*
X235174819Y-136861905D01*
X236174819Y-137623810D02*
X235508152Y-137623810D01*
X235603390Y-137623810D02*
X235555771Y-137671429D01*
X235555771Y-137671429D02*
X235508152Y-137766667D01*
X235508152Y-137766667D02*
X235508152Y-137909524D01*
X235508152Y-137909524D02*
X235555771Y-138004762D01*
X235555771Y-138004762D02*
X235651009Y-138052381D01*
X235651009Y-138052381D02*
X236174819Y-138052381D01*
X235651009Y-138052381D02*
X235555771Y-138100000D01*
X235555771Y-138100000D02*
X235508152Y-138195238D01*
X235508152Y-138195238D02*
X235508152Y-138338095D01*
X235508152Y-138338095D02*
X235555771Y-138433334D01*
X235555771Y-138433334D02*
X235651009Y-138480953D01*
X235651009Y-138480953D02*
X236174819Y-138480953D01*
X238454819Y-136457142D02*
X237978628Y-136123809D01*
X238454819Y-135885714D02*
X237454819Y-135885714D01*
X237454819Y-135885714D02*
X237454819Y-136266666D01*
X237454819Y-136266666D02*
X237502438Y-136361904D01*
X237502438Y-136361904D02*
X237550057Y-136409523D01*
X237550057Y-136409523D02*
X237645295Y-136457142D01*
X237645295Y-136457142D02*
X237788152Y-136457142D01*
X237788152Y-136457142D02*
X237883390Y-136409523D01*
X237883390Y-136409523D02*
X237931009Y-136361904D01*
X237931009Y-136361904D02*
X237978628Y-136266666D01*
X237978628Y-136266666D02*
X237978628Y-135885714D01*
X238454819Y-137409523D02*
X238454819Y-136838095D01*
X238454819Y-137123809D02*
X237454819Y-137123809D01*
X237454819Y-137123809D02*
X237597676Y-137028571D01*
X237597676Y-137028571D02*
X237692914Y-136933333D01*
X237692914Y-136933333D02*
X237740533Y-136838095D01*
X237454819Y-137742857D02*
X237454819Y-138409523D01*
X237454819Y-138409523D02*
X238454819Y-137980952D01*
X243354819Y-134404761D02*
X243354819Y-133833333D01*
X243354819Y-134119047D02*
X242354819Y-134119047D01*
X242354819Y-134119047D02*
X242497676Y-134023809D01*
X242497676Y-134023809D02*
X242592914Y-133928571D01*
X242592914Y-133928571D02*
X242640533Y-133833333D01*
X242354819Y-135023809D02*
X242354819Y-135119047D01*
X242354819Y-135119047D02*
X242402438Y-135214285D01*
X242402438Y-135214285D02*
X242450057Y-135261904D01*
X242450057Y-135261904D02*
X242545295Y-135309523D01*
X242545295Y-135309523D02*
X242735771Y-135357142D01*
X242735771Y-135357142D02*
X242973866Y-135357142D01*
X242973866Y-135357142D02*
X243164342Y-135309523D01*
X243164342Y-135309523D02*
X243259580Y-135261904D01*
X243259580Y-135261904D02*
X243307200Y-135214285D01*
X243307200Y-135214285D02*
X243354819Y-135119047D01*
X243354819Y-135119047D02*
X243354819Y-135023809D01*
X243354819Y-135023809D02*
X243307200Y-134928571D01*
X243307200Y-134928571D02*
X243259580Y-134880952D01*
X243259580Y-134880952D02*
X243164342Y-134833333D01*
X243164342Y-134833333D02*
X242973866Y-134785714D01*
X242973866Y-134785714D02*
X242735771Y-134785714D01*
X242735771Y-134785714D02*
X242545295Y-134833333D01*
X242545295Y-134833333D02*
X242450057Y-134880952D01*
X242450057Y-134880952D02*
X242402438Y-134928571D01*
X242402438Y-134928571D02*
X242354819Y-135023809D01*
X243354819Y-135785714D02*
X242354819Y-135785714D01*
X242973866Y-135880952D02*
X243354819Y-136166666D01*
X242688152Y-136166666D02*
X243069104Y-135785714D01*
D14*
X241918200Y-134830357D02*
X241794391Y-134743690D01*
X241918200Y-134681785D02*
X241658200Y-134681785D01*
X241658200Y-134681785D02*
X241658200Y-134780833D01*
X241658200Y-134780833D02*
X241670581Y-134805595D01*
X241670581Y-134805595D02*
X241682962Y-134817976D01*
X241682962Y-134817976D02*
X241707724Y-134830357D01*
X241707724Y-134830357D02*
X241744867Y-134830357D01*
X241744867Y-134830357D02*
X241769629Y-134817976D01*
X241769629Y-134817976D02*
X241782010Y-134805595D01*
X241782010Y-134805595D02*
X241794391Y-134780833D01*
X241794391Y-134780833D02*
X241794391Y-134681785D01*
X241682962Y-134929404D02*
X241670581Y-134941785D01*
X241670581Y-134941785D02*
X241658200Y-134966547D01*
X241658200Y-134966547D02*
X241658200Y-135028452D01*
X241658200Y-135028452D02*
X241670581Y-135053214D01*
X241670581Y-135053214D02*
X241682962Y-135065595D01*
X241682962Y-135065595D02*
X241707724Y-135077976D01*
X241707724Y-135077976D02*
X241732486Y-135077976D01*
X241732486Y-135077976D02*
X241769629Y-135065595D01*
X241769629Y-135065595D02*
X241918200Y-134917023D01*
X241918200Y-134917023D02*
X241918200Y-135077976D01*
X241918200Y-135325595D02*
X241918200Y-135177023D01*
X241918200Y-135251309D02*
X241658200Y-135251309D01*
X241658200Y-135251309D02*
X241695343Y-135226547D01*
X241695343Y-135226547D02*
X241720105Y-135201785D01*
X241720105Y-135201785D02*
X241732486Y-135177023D01*
D13*
X253024318Y-139862618D02*
X251754318Y-139862618D01*
X251754318Y-139862618D02*
X251754318Y-140164999D01*
X251754318Y-140164999D02*
X251814794Y-140346428D01*
X251814794Y-140346428D02*
X251935746Y-140467380D01*
X251935746Y-140467380D02*
X252056699Y-140527857D01*
X252056699Y-140527857D02*
X252298603Y-140588333D01*
X252298603Y-140588333D02*
X252480032Y-140588333D01*
X252480032Y-140588333D02*
X252721937Y-140527857D01*
X252721937Y-140527857D02*
X252842889Y-140467380D01*
X252842889Y-140467380D02*
X252963842Y-140346428D01*
X252963842Y-140346428D02*
X253024318Y-140164999D01*
X253024318Y-140164999D02*
X253024318Y-139862618D01*
X251754318Y-141011666D02*
X251754318Y-141797857D01*
X251754318Y-141797857D02*
X252238127Y-141374523D01*
X252238127Y-141374523D02*
X252238127Y-141555952D01*
X252238127Y-141555952D02*
X252298603Y-141676904D01*
X252298603Y-141676904D02*
X252359080Y-141737380D01*
X252359080Y-141737380D02*
X252480032Y-141797857D01*
X252480032Y-141797857D02*
X252782413Y-141797857D01*
X252782413Y-141797857D02*
X252903365Y-141737380D01*
X252903365Y-141737380D02*
X252963842Y-141676904D01*
X252963842Y-141676904D02*
X253024318Y-141555952D01*
X253024318Y-141555952D02*
X253024318Y-141193095D01*
X253024318Y-141193095D02*
X252963842Y-141072142D01*
X252963842Y-141072142D02*
X252903365Y-141011666D01*
X213492619Y-118214318D02*
X213492619Y-119242413D01*
X213492619Y-119242413D02*
X213432142Y-119363365D01*
X213432142Y-119363365D02*
X213371666Y-119423842D01*
X213371666Y-119423842D02*
X213250714Y-119484318D01*
X213250714Y-119484318D02*
X213008809Y-119484318D01*
X213008809Y-119484318D02*
X212887857Y-119423842D01*
X212887857Y-119423842D02*
X212827380Y-119363365D01*
X212827380Y-119363365D02*
X212766904Y-119242413D01*
X212766904Y-119242413D02*
X212766904Y-118214318D01*
X211496904Y-119484318D02*
X212222619Y-119484318D01*
X211859762Y-119484318D02*
X211859762Y-118214318D01*
X211859762Y-118214318D02*
X211980714Y-118395746D01*
X211980714Y-118395746D02*
X212101666Y-118516699D01*
X212101666Y-118516699D02*
X212222619Y-118577175D01*
D10*
X253006547Y-160984819D02*
X253577975Y-160984819D01*
X253292261Y-160984819D02*
X253292261Y-159984819D01*
X253292261Y-159984819D02*
X253387499Y-160127676D01*
X253387499Y-160127676D02*
X253482737Y-160222914D01*
X253482737Y-160222914D02*
X253577975Y-160270533D01*
X252577975Y-160984819D02*
X252577975Y-159984819D01*
X252482737Y-160603866D02*
X252197023Y-160984819D01*
X252197023Y-160318152D02*
X252577975Y-160699104D01*
D15*
X253144642Y-159281927D02*
X253277975Y-159091451D01*
X253373213Y-159281927D02*
X253373213Y-158881927D01*
X253373213Y-158881927D02*
X253220832Y-158881927D01*
X253220832Y-158881927D02*
X253182737Y-158900975D01*
X253182737Y-158900975D02*
X253163690Y-158920022D01*
X253163690Y-158920022D02*
X253144642Y-158958118D01*
X253144642Y-158958118D02*
X253144642Y-159015260D01*
X253144642Y-159015260D02*
X253163690Y-159053356D01*
X253163690Y-159053356D02*
X253182737Y-159072403D01*
X253182737Y-159072403D02*
X253220832Y-159091451D01*
X253220832Y-159091451D02*
X253373213Y-159091451D01*
X253011309Y-158881927D02*
X252763690Y-158881927D01*
X252763690Y-158881927D02*
X252897023Y-159034308D01*
X252897023Y-159034308D02*
X252839880Y-159034308D01*
X252839880Y-159034308D02*
X252801785Y-159053356D01*
X252801785Y-159053356D02*
X252782737Y-159072403D01*
X252782737Y-159072403D02*
X252763690Y-159110499D01*
X252763690Y-159110499D02*
X252763690Y-159205737D01*
X252763690Y-159205737D02*
X252782737Y-159243832D01*
X252782737Y-159243832D02*
X252801785Y-159262880D01*
X252801785Y-159262880D02*
X252839880Y-159281927D01*
X252839880Y-159281927D02*
X252954166Y-159281927D01*
X252954166Y-159281927D02*
X252992261Y-159262880D01*
X252992261Y-159262880D02*
X253011309Y-159243832D01*
X252630357Y-158881927D02*
X252382738Y-158881927D01*
X252382738Y-158881927D02*
X252516071Y-159034308D01*
X252516071Y-159034308D02*
X252458928Y-159034308D01*
X252458928Y-159034308D02*
X252420833Y-159053356D01*
X252420833Y-159053356D02*
X252401785Y-159072403D01*
X252401785Y-159072403D02*
X252382738Y-159110499D01*
X252382738Y-159110499D02*
X252382738Y-159205737D01*
X252382738Y-159205737D02*
X252401785Y-159243832D01*
X252401785Y-159243832D02*
X252420833Y-159262880D01*
X252420833Y-159262880D02*
X252458928Y-159281927D01*
X252458928Y-159281927D02*
X252573214Y-159281927D01*
X252573214Y-159281927D02*
X252611309Y-159262880D01*
X252611309Y-159262880D02*
X252630357Y-159243832D01*
D10*
X227474819Y-116657143D02*
X227474819Y-116752381D01*
X227474819Y-116752381D02*
X227522438Y-116847619D01*
X227522438Y-116847619D02*
X227570057Y-116895238D01*
X227570057Y-116895238D02*
X227665295Y-116942857D01*
X227665295Y-116942857D02*
X227855771Y-116990476D01*
X227855771Y-116990476D02*
X228093866Y-116990476D01*
X228093866Y-116990476D02*
X228284342Y-116942857D01*
X228284342Y-116942857D02*
X228379580Y-116895238D01*
X228379580Y-116895238D02*
X228427200Y-116847619D01*
X228427200Y-116847619D02*
X228474819Y-116752381D01*
X228474819Y-116752381D02*
X228474819Y-116657143D01*
X228474819Y-116657143D02*
X228427200Y-116561905D01*
X228427200Y-116561905D02*
X228379580Y-116514286D01*
X228379580Y-116514286D02*
X228284342Y-116466667D01*
X228284342Y-116466667D02*
X228093866Y-116419048D01*
X228093866Y-116419048D02*
X227855771Y-116419048D01*
X227855771Y-116419048D02*
X227665295Y-116466667D01*
X227665295Y-116466667D02*
X227570057Y-116514286D01*
X227570057Y-116514286D02*
X227522438Y-116561905D01*
X227522438Y-116561905D02*
X227474819Y-116657143D01*
X228379580Y-117419048D02*
X228427200Y-117466667D01*
X228427200Y-117466667D02*
X228474819Y-117419048D01*
X228474819Y-117419048D02*
X228427200Y-117371429D01*
X228427200Y-117371429D02*
X228379580Y-117419048D01*
X228379580Y-117419048D02*
X228474819Y-117419048D01*
X228474819Y-118419047D02*
X228474819Y-117847619D01*
X228474819Y-118133333D02*
X227474819Y-118133333D01*
X227474819Y-118133333D02*
X227617676Y-118038095D01*
X227617676Y-118038095D02*
X227712914Y-117942857D01*
X227712914Y-117942857D02*
X227760533Y-117847619D01*
X227808152Y-119276190D02*
X228474819Y-119276190D01*
X227808152Y-118847619D02*
X228331961Y-118847619D01*
X228331961Y-118847619D02*
X228427200Y-118895238D01*
X228427200Y-118895238D02*
X228474819Y-118990476D01*
X228474819Y-118990476D02*
X228474819Y-119133333D01*
X228474819Y-119133333D02*
X228427200Y-119228571D01*
X228427200Y-119228571D02*
X228379580Y-119276190D01*
X227951009Y-120085714D02*
X227951009Y-119752381D01*
X228474819Y-119752381D02*
X227474819Y-119752381D01*
X227474819Y-119752381D02*
X227474819Y-120228571D01*
D11*
X229879530Y-117978571D02*
X229903340Y-117954762D01*
X229903340Y-117954762D02*
X229927149Y-117883333D01*
X229927149Y-117883333D02*
X229927149Y-117835714D01*
X229927149Y-117835714D02*
X229903340Y-117764286D01*
X229903340Y-117764286D02*
X229855720Y-117716667D01*
X229855720Y-117716667D02*
X229808101Y-117692857D01*
X229808101Y-117692857D02*
X229712863Y-117669048D01*
X229712863Y-117669048D02*
X229641435Y-117669048D01*
X229641435Y-117669048D02*
X229546197Y-117692857D01*
X229546197Y-117692857D02*
X229498578Y-117716667D01*
X229498578Y-117716667D02*
X229450959Y-117764286D01*
X229450959Y-117764286D02*
X229427149Y-117835714D01*
X229427149Y-117835714D02*
X229427149Y-117883333D01*
X229427149Y-117883333D02*
X229450959Y-117954762D01*
X229450959Y-117954762D02*
X229474768Y-117978571D01*
X229474768Y-118169048D02*
X229450959Y-118192857D01*
X229450959Y-118192857D02*
X229427149Y-118240476D01*
X229427149Y-118240476D02*
X229427149Y-118359524D01*
X229427149Y-118359524D02*
X229450959Y-118407143D01*
X229450959Y-118407143D02*
X229474768Y-118430952D01*
X229474768Y-118430952D02*
X229522387Y-118454762D01*
X229522387Y-118454762D02*
X229570006Y-118454762D01*
X229570006Y-118454762D02*
X229641435Y-118430952D01*
X229641435Y-118430952D02*
X229927149Y-118145238D01*
X229927149Y-118145238D02*
X229927149Y-118454762D01*
X229427149Y-118907142D02*
X229427149Y-118669047D01*
X229427149Y-118669047D02*
X229665244Y-118645238D01*
X229665244Y-118645238D02*
X229641435Y-118669047D01*
X229641435Y-118669047D02*
X229617625Y-118716666D01*
X229617625Y-118716666D02*
X229617625Y-118835714D01*
X229617625Y-118835714D02*
X229641435Y-118883333D01*
X229641435Y-118883333D02*
X229665244Y-118907142D01*
X229665244Y-118907142D02*
X229712863Y-118930952D01*
X229712863Y-118930952D02*
X229831911Y-118930952D01*
X229831911Y-118930952D02*
X229879530Y-118907142D01*
X229879530Y-118907142D02*
X229903340Y-118883333D01*
X229903340Y-118883333D02*
X229927149Y-118835714D01*
X229927149Y-118835714D02*
X229927149Y-118716666D01*
X229927149Y-118716666D02*
X229903340Y-118669047D01*
X229903340Y-118669047D02*
X229879530Y-118645238D01*
D10*
X219700057Y-161595238D02*
X219652438Y-161642857D01*
X219652438Y-161642857D02*
X219604819Y-161738095D01*
X219604819Y-161738095D02*
X219604819Y-161976190D01*
X219604819Y-161976190D02*
X219652438Y-162071428D01*
X219652438Y-162071428D02*
X219700057Y-162119047D01*
X219700057Y-162119047D02*
X219795295Y-162166666D01*
X219795295Y-162166666D02*
X219890533Y-162166666D01*
X219890533Y-162166666D02*
X220033390Y-162119047D01*
X220033390Y-162119047D02*
X220604819Y-161547619D01*
X220604819Y-161547619D02*
X220604819Y-162166666D01*
X220509580Y-162595238D02*
X220557200Y-162642857D01*
X220557200Y-162642857D02*
X220604819Y-162595238D01*
X220604819Y-162595238D02*
X220557200Y-162547619D01*
X220557200Y-162547619D02*
X220509580Y-162595238D01*
X220509580Y-162595238D02*
X220604819Y-162595238D01*
X219604819Y-163547618D02*
X219604819Y-163071428D01*
X219604819Y-163071428D02*
X220081009Y-163023809D01*
X220081009Y-163023809D02*
X220033390Y-163071428D01*
X220033390Y-163071428D02*
X219985771Y-163166666D01*
X219985771Y-163166666D02*
X219985771Y-163404761D01*
X219985771Y-163404761D02*
X220033390Y-163499999D01*
X220033390Y-163499999D02*
X220081009Y-163547618D01*
X220081009Y-163547618D02*
X220176247Y-163595237D01*
X220176247Y-163595237D02*
X220414342Y-163595237D01*
X220414342Y-163595237D02*
X220509580Y-163547618D01*
X220509580Y-163547618D02*
X220557200Y-163499999D01*
X220557200Y-163499999D02*
X220604819Y-163404761D01*
X220604819Y-163404761D02*
X220604819Y-163166666D01*
X220604819Y-163166666D02*
X220557200Y-163071428D01*
X220557200Y-163071428D02*
X220509580Y-163023809D01*
X220604819Y-164023809D02*
X219604819Y-164023809D01*
X220223866Y-164119047D02*
X220604819Y-164404761D01*
X219938152Y-164404761D02*
X220319104Y-164023809D01*
D11*
X218727149Y-162678571D02*
X218489054Y-162511905D01*
X218727149Y-162392857D02*
X218227149Y-162392857D01*
X218227149Y-162392857D02*
X218227149Y-162583333D01*
X218227149Y-162583333D02*
X218250959Y-162630952D01*
X218250959Y-162630952D02*
X218274768Y-162654762D01*
X218274768Y-162654762D02*
X218322387Y-162678571D01*
X218322387Y-162678571D02*
X218393816Y-162678571D01*
X218393816Y-162678571D02*
X218441435Y-162654762D01*
X218441435Y-162654762D02*
X218465244Y-162630952D01*
X218465244Y-162630952D02*
X218489054Y-162583333D01*
X218489054Y-162583333D02*
X218489054Y-162392857D01*
X218227149Y-162845238D02*
X218227149Y-163154762D01*
X218227149Y-163154762D02*
X218417625Y-162988095D01*
X218417625Y-162988095D02*
X218417625Y-163059524D01*
X218417625Y-163059524D02*
X218441435Y-163107143D01*
X218441435Y-163107143D02*
X218465244Y-163130952D01*
X218465244Y-163130952D02*
X218512863Y-163154762D01*
X218512863Y-163154762D02*
X218631911Y-163154762D01*
X218631911Y-163154762D02*
X218679530Y-163130952D01*
X218679530Y-163130952D02*
X218703340Y-163107143D01*
X218703340Y-163107143D02*
X218727149Y-163059524D01*
X218727149Y-163059524D02*
X218727149Y-162916667D01*
X218727149Y-162916667D02*
X218703340Y-162869048D01*
X218703340Y-162869048D02*
X218679530Y-162845238D01*
X218393816Y-163583333D02*
X218727149Y-163583333D01*
X218203340Y-163464285D02*
X218560482Y-163345238D01*
X218560482Y-163345238D02*
X218560482Y-163654761D01*
D10*
X259695238Y-156954819D02*
X260266666Y-156954819D01*
X259980952Y-156954819D02*
X259980952Y-155954819D01*
X259980952Y-155954819D02*
X260076190Y-156097676D01*
X260076190Y-156097676D02*
X260171428Y-156192914D01*
X260171428Y-156192914D02*
X260266666Y-156240533D01*
X258838095Y-156288152D02*
X258838095Y-156954819D01*
X259266666Y-156288152D02*
X259266666Y-156811961D01*
X259266666Y-156811961D02*
X259219047Y-156907200D01*
X259219047Y-156907200D02*
X259123809Y-156954819D01*
X259123809Y-156954819D02*
X258980952Y-156954819D01*
X258980952Y-156954819D02*
X258885714Y-156907200D01*
X258885714Y-156907200D02*
X258838095Y-156859580D01*
X258028571Y-156431009D02*
X258361904Y-156431009D01*
X258361904Y-156954819D02*
X258361904Y-155954819D01*
X258361904Y-155954819D02*
X257885714Y-155954819D01*
D11*
X262041428Y-156679530D02*
X262065237Y-156703340D01*
X262065237Y-156703340D02*
X262136666Y-156727149D01*
X262136666Y-156727149D02*
X262184285Y-156727149D01*
X262184285Y-156727149D02*
X262255713Y-156703340D01*
X262255713Y-156703340D02*
X262303332Y-156655720D01*
X262303332Y-156655720D02*
X262327142Y-156608101D01*
X262327142Y-156608101D02*
X262350951Y-156512863D01*
X262350951Y-156512863D02*
X262350951Y-156441435D01*
X262350951Y-156441435D02*
X262327142Y-156346197D01*
X262327142Y-156346197D02*
X262303332Y-156298578D01*
X262303332Y-156298578D02*
X262255713Y-156250959D01*
X262255713Y-156250959D02*
X262184285Y-156227149D01*
X262184285Y-156227149D02*
X262136666Y-156227149D01*
X262136666Y-156227149D02*
X262065237Y-156250959D01*
X262065237Y-156250959D02*
X262041428Y-156274768D01*
X261850951Y-156274768D02*
X261827142Y-156250959D01*
X261827142Y-156250959D02*
X261779523Y-156227149D01*
X261779523Y-156227149D02*
X261660475Y-156227149D01*
X261660475Y-156227149D02*
X261612856Y-156250959D01*
X261612856Y-156250959D02*
X261589047Y-156274768D01*
X261589047Y-156274768D02*
X261565237Y-156322387D01*
X261565237Y-156322387D02*
X261565237Y-156370006D01*
X261565237Y-156370006D02*
X261589047Y-156441435D01*
X261589047Y-156441435D02*
X261874761Y-156727149D01*
X261874761Y-156727149D02*
X261565237Y-156727149D01*
X261398571Y-156227149D02*
X261089047Y-156227149D01*
X261089047Y-156227149D02*
X261255714Y-156417625D01*
X261255714Y-156417625D02*
X261184285Y-156417625D01*
X261184285Y-156417625D02*
X261136666Y-156441435D01*
X261136666Y-156441435D02*
X261112857Y-156465244D01*
X261112857Y-156465244D02*
X261089047Y-156512863D01*
X261089047Y-156512863D02*
X261089047Y-156631911D01*
X261089047Y-156631911D02*
X261112857Y-156679530D01*
X261112857Y-156679530D02*
X261136666Y-156703340D01*
X261136666Y-156703340D02*
X261184285Y-156727149D01*
X261184285Y-156727149D02*
X261327142Y-156727149D01*
X261327142Y-156727149D02*
X261374761Y-156703340D01*
X261374761Y-156703340D02*
X261398571Y-156679530D01*
D13*
X224961666Y-143924318D02*
X225566428Y-143924318D01*
X225566428Y-143924318D02*
X225566428Y-142654318D01*
X224598809Y-142775270D02*
X224538333Y-142714794D01*
X224538333Y-142714794D02*
X224417380Y-142654318D01*
X224417380Y-142654318D02*
X224114999Y-142654318D01*
X224114999Y-142654318D02*
X223994047Y-142714794D01*
X223994047Y-142714794D02*
X223933571Y-142775270D01*
X223933571Y-142775270D02*
X223873094Y-142896222D01*
X223873094Y-142896222D02*
X223873094Y-143017175D01*
X223873094Y-143017175D02*
X223933571Y-143198603D01*
X223933571Y-143198603D02*
X224659285Y-143924318D01*
X224659285Y-143924318D02*
X223873094Y-143924318D01*
X236867619Y-124004318D02*
X236867619Y-125032413D01*
X236867619Y-125032413D02*
X236807142Y-125153365D01*
X236807142Y-125153365D02*
X236746666Y-125213842D01*
X236746666Y-125213842D02*
X236625714Y-125274318D01*
X236625714Y-125274318D02*
X236383809Y-125274318D01*
X236383809Y-125274318D02*
X236262857Y-125213842D01*
X236262857Y-125213842D02*
X236202380Y-125153365D01*
X236202380Y-125153365D02*
X236141904Y-125032413D01*
X236141904Y-125032413D02*
X236141904Y-124004318D01*
X234992857Y-124427651D02*
X234992857Y-125274318D01*
X235295238Y-123943842D02*
X235597619Y-124850984D01*
X235597619Y-124850984D02*
X234811428Y-124850984D01*
D10*
X243895238Y-150584819D02*
X244466666Y-150584819D01*
X244180952Y-150584819D02*
X244180952Y-149584819D01*
X244180952Y-149584819D02*
X244276190Y-149727676D01*
X244276190Y-149727676D02*
X244371428Y-149822914D01*
X244371428Y-149822914D02*
X244466666Y-149870533D01*
X243276190Y-149584819D02*
X243180952Y-149584819D01*
X243180952Y-149584819D02*
X243085714Y-149632438D01*
X243085714Y-149632438D02*
X243038095Y-149680057D01*
X243038095Y-149680057D02*
X242990476Y-149775295D01*
X242990476Y-149775295D02*
X242942857Y-149965771D01*
X242942857Y-149965771D02*
X242942857Y-150203866D01*
X242942857Y-150203866D02*
X242990476Y-150394342D01*
X242990476Y-150394342D02*
X243038095Y-150489580D01*
X243038095Y-150489580D02*
X243085714Y-150537200D01*
X243085714Y-150537200D02*
X243180952Y-150584819D01*
X243180952Y-150584819D02*
X243276190Y-150584819D01*
X243276190Y-150584819D02*
X243371428Y-150537200D01*
X243371428Y-150537200D02*
X243419047Y-150489580D01*
X243419047Y-150489580D02*
X243466666Y-150394342D01*
X243466666Y-150394342D02*
X243514285Y-150203866D01*
X243514285Y-150203866D02*
X243514285Y-149965771D01*
X243514285Y-149965771D02*
X243466666Y-149775295D01*
X243466666Y-149775295D02*
X243419047Y-149680057D01*
X243419047Y-149680057D02*
X243371428Y-149632438D01*
X243371428Y-149632438D02*
X243276190Y-149584819D01*
X242514285Y-150584819D02*
X242514285Y-149584819D01*
X242419047Y-150203866D02*
X242133333Y-150584819D01*
X242133333Y-149918152D02*
X242514285Y-150299104D01*
D14*
X243467142Y-151418200D02*
X243553809Y-151294391D01*
X243615714Y-151418200D02*
X243615714Y-151158200D01*
X243615714Y-151158200D02*
X243516666Y-151158200D01*
X243516666Y-151158200D02*
X243491904Y-151170581D01*
X243491904Y-151170581D02*
X243479523Y-151182962D01*
X243479523Y-151182962D02*
X243467142Y-151207724D01*
X243467142Y-151207724D02*
X243467142Y-151244867D01*
X243467142Y-151244867D02*
X243479523Y-151269629D01*
X243479523Y-151269629D02*
X243491904Y-151282010D01*
X243491904Y-151282010D02*
X243516666Y-151294391D01*
X243516666Y-151294391D02*
X243615714Y-151294391D01*
X243368095Y-151182962D02*
X243355714Y-151170581D01*
X243355714Y-151170581D02*
X243330952Y-151158200D01*
X243330952Y-151158200D02*
X243269047Y-151158200D01*
X243269047Y-151158200D02*
X243244285Y-151170581D01*
X243244285Y-151170581D02*
X243231904Y-151182962D01*
X243231904Y-151182962D02*
X243219523Y-151207724D01*
X243219523Y-151207724D02*
X243219523Y-151232486D01*
X243219523Y-151232486D02*
X243231904Y-151269629D01*
X243231904Y-151269629D02*
X243380476Y-151418200D01*
X243380476Y-151418200D02*
X243219523Y-151418200D01*
X243132857Y-151158200D02*
X242959523Y-151158200D01*
X242959523Y-151158200D02*
X243070952Y-151418200D01*
D10*
X251638095Y-126154819D02*
X251638095Y-125154819D01*
X251638095Y-125154819D02*
X251400000Y-125154819D01*
X251400000Y-125154819D02*
X251257143Y-125202438D01*
X251257143Y-125202438D02*
X251161905Y-125297676D01*
X251161905Y-125297676D02*
X251114286Y-125392914D01*
X251114286Y-125392914D02*
X251066667Y-125583390D01*
X251066667Y-125583390D02*
X251066667Y-125726247D01*
X251066667Y-125726247D02*
X251114286Y-125916723D01*
X251114286Y-125916723D02*
X251161905Y-126011961D01*
X251161905Y-126011961D02*
X251257143Y-126107200D01*
X251257143Y-126107200D02*
X251400000Y-126154819D01*
X251400000Y-126154819D02*
X251638095Y-126154819D01*
X250876191Y-126250057D02*
X250114286Y-126250057D01*
X249971428Y-125154819D02*
X249304762Y-125154819D01*
X249304762Y-125154819D02*
X249971428Y-126154819D01*
X249971428Y-126154819D02*
X249304762Y-126154819D01*
X248542857Y-126107200D02*
X248638095Y-126154819D01*
X248638095Y-126154819D02*
X248828571Y-126154819D01*
X248828571Y-126154819D02*
X248923809Y-126107200D01*
X248923809Y-126107200D02*
X248971428Y-126011961D01*
X248971428Y-126011961D02*
X248971428Y-125631009D01*
X248971428Y-125631009D02*
X248923809Y-125535771D01*
X248923809Y-125535771D02*
X248828571Y-125488152D01*
X248828571Y-125488152D02*
X248638095Y-125488152D01*
X248638095Y-125488152D02*
X248542857Y-125535771D01*
X248542857Y-125535771D02*
X248495238Y-125631009D01*
X248495238Y-125631009D02*
X248495238Y-125726247D01*
X248495238Y-125726247D02*
X248971428Y-125821485D01*
X248066666Y-125488152D02*
X248066666Y-126154819D01*
X248066666Y-125583390D02*
X248019047Y-125535771D01*
X248019047Y-125535771D02*
X247923809Y-125488152D01*
X247923809Y-125488152D02*
X247780952Y-125488152D01*
X247780952Y-125488152D02*
X247685714Y-125535771D01*
X247685714Y-125535771D02*
X247638095Y-125631009D01*
X247638095Y-125631009D02*
X247638095Y-126154819D01*
X246780952Y-126107200D02*
X246876190Y-126154819D01*
X246876190Y-126154819D02*
X247066666Y-126154819D01*
X247066666Y-126154819D02*
X247161904Y-126107200D01*
X247161904Y-126107200D02*
X247209523Y-126011961D01*
X247209523Y-126011961D02*
X247209523Y-125631009D01*
X247209523Y-125631009D02*
X247161904Y-125535771D01*
X247161904Y-125535771D02*
X247066666Y-125488152D01*
X247066666Y-125488152D02*
X246876190Y-125488152D01*
X246876190Y-125488152D02*
X246780952Y-125535771D01*
X246780952Y-125535771D02*
X246733333Y-125631009D01*
X246733333Y-125631009D02*
X246733333Y-125726247D01*
X246733333Y-125726247D02*
X247209523Y-125821485D01*
X246304761Y-126154819D02*
X246304761Y-125488152D01*
X246304761Y-125678628D02*
X246257142Y-125583390D01*
X246257142Y-125583390D02*
X246209523Y-125535771D01*
X246209523Y-125535771D02*
X246114285Y-125488152D01*
X246114285Y-125488152D02*
X246019047Y-125488152D01*
X249511094Y-130159819D02*
X249511094Y-129159819D01*
X249511094Y-129159819D02*
X249272999Y-129159819D01*
X249272999Y-129159819D02*
X249130142Y-129207438D01*
X249130142Y-129207438D02*
X249034904Y-129302676D01*
X249034904Y-129302676D02*
X248987285Y-129397914D01*
X248987285Y-129397914D02*
X248939666Y-129588390D01*
X248939666Y-129588390D02*
X248939666Y-129731247D01*
X248939666Y-129731247D02*
X248987285Y-129921723D01*
X248987285Y-129921723D02*
X249034904Y-130016961D01*
X249034904Y-130016961D02*
X249130142Y-130112200D01*
X249130142Y-130112200D02*
X249272999Y-130159819D01*
X249272999Y-130159819D02*
X249511094Y-130159819D01*
X248082523Y-129493152D02*
X248082523Y-130159819D01*
X248320618Y-129112200D02*
X248558713Y-129826485D01*
X248558713Y-129826485D02*
X247939666Y-129826485D01*
D11*
X206779530Y-117278571D02*
X206803340Y-117254762D01*
X206803340Y-117254762D02*
X206827149Y-117183333D01*
X206827149Y-117183333D02*
X206827149Y-117135714D01*
X206827149Y-117135714D02*
X206803340Y-117064286D01*
X206803340Y-117064286D02*
X206755720Y-117016667D01*
X206755720Y-117016667D02*
X206708101Y-116992857D01*
X206708101Y-116992857D02*
X206612863Y-116969048D01*
X206612863Y-116969048D02*
X206541435Y-116969048D01*
X206541435Y-116969048D02*
X206446197Y-116992857D01*
X206446197Y-116992857D02*
X206398578Y-117016667D01*
X206398578Y-117016667D02*
X206350959Y-117064286D01*
X206350959Y-117064286D02*
X206327149Y-117135714D01*
X206327149Y-117135714D02*
X206327149Y-117183333D01*
X206327149Y-117183333D02*
X206350959Y-117254762D01*
X206350959Y-117254762D02*
X206374768Y-117278571D01*
X206374768Y-117469048D02*
X206350959Y-117492857D01*
X206350959Y-117492857D02*
X206327149Y-117540476D01*
X206327149Y-117540476D02*
X206327149Y-117659524D01*
X206327149Y-117659524D02*
X206350959Y-117707143D01*
X206350959Y-117707143D02*
X206374768Y-117730952D01*
X206374768Y-117730952D02*
X206422387Y-117754762D01*
X206422387Y-117754762D02*
X206470006Y-117754762D01*
X206470006Y-117754762D02*
X206541435Y-117730952D01*
X206541435Y-117730952D02*
X206827149Y-117445238D01*
X206827149Y-117445238D02*
X206827149Y-117754762D01*
X206327149Y-118183333D02*
X206327149Y-118088095D01*
X206327149Y-118088095D02*
X206350959Y-118040476D01*
X206350959Y-118040476D02*
X206374768Y-118016666D01*
X206374768Y-118016666D02*
X206446197Y-117969047D01*
X206446197Y-117969047D02*
X206541435Y-117945238D01*
X206541435Y-117945238D02*
X206731911Y-117945238D01*
X206731911Y-117945238D02*
X206779530Y-117969047D01*
X206779530Y-117969047D02*
X206803340Y-117992857D01*
X206803340Y-117992857D02*
X206827149Y-118040476D01*
X206827149Y-118040476D02*
X206827149Y-118135714D01*
X206827149Y-118135714D02*
X206803340Y-118183333D01*
X206803340Y-118183333D02*
X206779530Y-118207142D01*
X206779530Y-118207142D02*
X206731911Y-118230952D01*
X206731911Y-118230952D02*
X206612863Y-118230952D01*
X206612863Y-118230952D02*
X206565244Y-118207142D01*
X206565244Y-118207142D02*
X206541435Y-118183333D01*
X206541435Y-118183333D02*
X206517625Y-118135714D01*
X206517625Y-118135714D02*
X206517625Y-118040476D01*
X206517625Y-118040476D02*
X206541435Y-117992857D01*
X206541435Y-117992857D02*
X206565244Y-117969047D01*
X206565244Y-117969047D02*
X206612863Y-117945238D01*
D10*
X235474819Y-117767261D02*
X235474819Y-117195833D01*
X235474819Y-117481547D02*
X234474819Y-117481547D01*
X234474819Y-117481547D02*
X234617676Y-117386309D01*
X234617676Y-117386309D02*
X234712914Y-117291071D01*
X234712914Y-117291071D02*
X234760533Y-117195833D01*
X234808152Y-118624404D02*
X235474819Y-118624404D01*
X234808152Y-118195833D02*
X235331961Y-118195833D01*
X235331961Y-118195833D02*
X235427200Y-118243452D01*
X235427200Y-118243452D02*
X235474819Y-118338690D01*
X235474819Y-118338690D02*
X235474819Y-118481547D01*
X235474819Y-118481547D02*
X235427200Y-118576785D01*
X235427200Y-118576785D02*
X235379580Y-118624404D01*
X234951009Y-119433928D02*
X234951009Y-119100595D01*
X235474819Y-119100595D02*
X234474819Y-119100595D01*
X234474819Y-119100595D02*
X234474819Y-119576785D01*
D11*
X236879530Y-118041071D02*
X236903340Y-118017262D01*
X236903340Y-118017262D02*
X236927149Y-117945833D01*
X236927149Y-117945833D02*
X236927149Y-117898214D01*
X236927149Y-117898214D02*
X236903340Y-117826786D01*
X236903340Y-117826786D02*
X236855720Y-117779167D01*
X236855720Y-117779167D02*
X236808101Y-117755357D01*
X236808101Y-117755357D02*
X236712863Y-117731548D01*
X236712863Y-117731548D02*
X236641435Y-117731548D01*
X236641435Y-117731548D02*
X236546197Y-117755357D01*
X236546197Y-117755357D02*
X236498578Y-117779167D01*
X236498578Y-117779167D02*
X236450959Y-117826786D01*
X236450959Y-117826786D02*
X236427149Y-117898214D01*
X236427149Y-117898214D02*
X236427149Y-117945833D01*
X236427149Y-117945833D02*
X236450959Y-118017262D01*
X236450959Y-118017262D02*
X236474768Y-118041071D01*
X236474768Y-118231548D02*
X236450959Y-118255357D01*
X236450959Y-118255357D02*
X236427149Y-118302976D01*
X236427149Y-118302976D02*
X236427149Y-118422024D01*
X236427149Y-118422024D02*
X236450959Y-118469643D01*
X236450959Y-118469643D02*
X236474768Y-118493452D01*
X236474768Y-118493452D02*
X236522387Y-118517262D01*
X236522387Y-118517262D02*
X236570006Y-118517262D01*
X236570006Y-118517262D02*
X236641435Y-118493452D01*
X236641435Y-118493452D02*
X236927149Y-118207738D01*
X236927149Y-118207738D02*
X236927149Y-118517262D01*
X236593816Y-118945833D02*
X236927149Y-118945833D01*
X236403340Y-118826785D02*
X236760482Y-118707738D01*
X236760482Y-118707738D02*
X236760482Y-119017261D01*
D10*
X230484819Y-125407261D02*
X230484819Y-124835833D01*
X230484819Y-125121547D02*
X229484819Y-125121547D01*
X229484819Y-125121547D02*
X229627676Y-125026309D01*
X229627676Y-125026309D02*
X229722914Y-124931071D01*
X229722914Y-124931071D02*
X229770533Y-124835833D01*
X229484819Y-126026309D02*
X229484819Y-126121547D01*
X229484819Y-126121547D02*
X229532438Y-126216785D01*
X229532438Y-126216785D02*
X229580057Y-126264404D01*
X229580057Y-126264404D02*
X229675295Y-126312023D01*
X229675295Y-126312023D02*
X229865771Y-126359642D01*
X229865771Y-126359642D02*
X230103866Y-126359642D01*
X230103866Y-126359642D02*
X230294342Y-126312023D01*
X230294342Y-126312023D02*
X230389580Y-126264404D01*
X230389580Y-126264404D02*
X230437200Y-126216785D01*
X230437200Y-126216785D02*
X230484819Y-126121547D01*
X230484819Y-126121547D02*
X230484819Y-126026309D01*
X230484819Y-126026309D02*
X230437200Y-125931071D01*
X230437200Y-125931071D02*
X230389580Y-125883452D01*
X230389580Y-125883452D02*
X230294342Y-125835833D01*
X230294342Y-125835833D02*
X230103866Y-125788214D01*
X230103866Y-125788214D02*
X229865771Y-125788214D01*
X229865771Y-125788214D02*
X229675295Y-125835833D01*
X229675295Y-125835833D02*
X229580057Y-125883452D01*
X229580057Y-125883452D02*
X229532438Y-125931071D01*
X229532438Y-125931071D02*
X229484819Y-126026309D01*
X230484819Y-126788214D02*
X229484819Y-126788214D01*
X230103866Y-126883452D02*
X230484819Y-127169166D01*
X229818152Y-127169166D02*
X230199104Y-126788214D01*
D14*
X231318200Y-125835357D02*
X231194391Y-125748690D01*
X231318200Y-125686785D02*
X231058200Y-125686785D01*
X231058200Y-125686785D02*
X231058200Y-125785833D01*
X231058200Y-125785833D02*
X231070581Y-125810595D01*
X231070581Y-125810595D02*
X231082962Y-125822976D01*
X231082962Y-125822976D02*
X231107724Y-125835357D01*
X231107724Y-125835357D02*
X231144867Y-125835357D01*
X231144867Y-125835357D02*
X231169629Y-125822976D01*
X231169629Y-125822976D02*
X231182010Y-125810595D01*
X231182010Y-125810595D02*
X231194391Y-125785833D01*
X231194391Y-125785833D02*
X231194391Y-125686785D01*
X231318200Y-126082976D02*
X231318200Y-125934404D01*
X231318200Y-126008690D02*
X231058200Y-126008690D01*
X231058200Y-126008690D02*
X231095343Y-125983928D01*
X231095343Y-125983928D02*
X231120105Y-125959166D01*
X231120105Y-125959166D02*
X231132486Y-125934404D01*
X231318200Y-126206785D02*
X231318200Y-126256309D01*
X231318200Y-126256309D02*
X231305820Y-126281071D01*
X231305820Y-126281071D02*
X231293439Y-126293452D01*
X231293439Y-126293452D02*
X231256296Y-126318214D01*
X231256296Y-126318214D02*
X231206772Y-126330595D01*
X231206772Y-126330595D02*
X231107724Y-126330595D01*
X231107724Y-126330595D02*
X231082962Y-126318214D01*
X231082962Y-126318214D02*
X231070581Y-126305833D01*
X231070581Y-126305833D02*
X231058200Y-126281071D01*
X231058200Y-126281071D02*
X231058200Y-126231547D01*
X231058200Y-126231547D02*
X231070581Y-126206785D01*
X231070581Y-126206785D02*
X231082962Y-126194404D01*
X231082962Y-126194404D02*
X231107724Y-126182023D01*
X231107724Y-126182023D02*
X231169629Y-126182023D01*
X231169629Y-126182023D02*
X231194391Y-126194404D01*
X231194391Y-126194404D02*
X231206772Y-126206785D01*
X231206772Y-126206785D02*
X231219153Y-126231547D01*
X231219153Y-126231547D02*
X231219153Y-126281071D01*
X231219153Y-126281071D02*
X231206772Y-126305833D01*
X231206772Y-126305833D02*
X231194391Y-126318214D01*
X231194391Y-126318214D02*
X231169629Y-126330595D01*
D13*
X245320952Y-169495270D02*
X245441904Y-169434794D01*
X245441904Y-169434794D02*
X245562857Y-169313842D01*
X245562857Y-169313842D02*
X245744285Y-169132413D01*
X245744285Y-169132413D02*
X245865238Y-169071937D01*
X245865238Y-169071937D02*
X245986190Y-169071937D01*
X245925714Y-169374318D02*
X246046666Y-169313842D01*
X246046666Y-169313842D02*
X246167619Y-169192889D01*
X246167619Y-169192889D02*
X246228095Y-168950984D01*
X246228095Y-168950984D02*
X246228095Y-168527651D01*
X246228095Y-168527651D02*
X246167619Y-168285746D01*
X246167619Y-168285746D02*
X246046666Y-168164794D01*
X246046666Y-168164794D02*
X245925714Y-168104318D01*
X245925714Y-168104318D02*
X245683809Y-168104318D01*
X245683809Y-168104318D02*
X245562857Y-168164794D01*
X245562857Y-168164794D02*
X245441904Y-168285746D01*
X245441904Y-168285746D02*
X245381428Y-168527651D01*
X245381428Y-168527651D02*
X245381428Y-168950984D01*
X245381428Y-168950984D02*
X245441904Y-169192889D01*
X245441904Y-169192889D02*
X245562857Y-169313842D01*
X245562857Y-169313842D02*
X245683809Y-169374318D01*
X245683809Y-169374318D02*
X245925714Y-169374318D01*
X244897619Y-168225270D02*
X244837143Y-168164794D01*
X244837143Y-168164794D02*
X244716190Y-168104318D01*
X244716190Y-168104318D02*
X244413809Y-168104318D01*
X244413809Y-168104318D02*
X244292857Y-168164794D01*
X244292857Y-168164794D02*
X244232381Y-168225270D01*
X244232381Y-168225270D02*
X244171904Y-168346222D01*
X244171904Y-168346222D02*
X244171904Y-168467175D01*
X244171904Y-168467175D02*
X244232381Y-168648603D01*
X244232381Y-168648603D02*
X244958095Y-169374318D01*
X244958095Y-169374318D02*
X244171904Y-169374318D01*
D10*
X239295238Y-149084819D02*
X239866666Y-149084819D01*
X239580952Y-149084819D02*
X239580952Y-148084819D01*
X239580952Y-148084819D02*
X239676190Y-148227676D01*
X239676190Y-148227676D02*
X239771428Y-148322914D01*
X239771428Y-148322914D02*
X239866666Y-148370533D01*
X238676190Y-148084819D02*
X238580952Y-148084819D01*
X238580952Y-148084819D02*
X238485714Y-148132438D01*
X238485714Y-148132438D02*
X238438095Y-148180057D01*
X238438095Y-148180057D02*
X238390476Y-148275295D01*
X238390476Y-148275295D02*
X238342857Y-148465771D01*
X238342857Y-148465771D02*
X238342857Y-148703866D01*
X238342857Y-148703866D02*
X238390476Y-148894342D01*
X238390476Y-148894342D02*
X238438095Y-148989580D01*
X238438095Y-148989580D02*
X238485714Y-149037200D01*
X238485714Y-149037200D02*
X238580952Y-149084819D01*
X238580952Y-149084819D02*
X238676190Y-149084819D01*
X238676190Y-149084819D02*
X238771428Y-149037200D01*
X238771428Y-149037200D02*
X238819047Y-148989580D01*
X238819047Y-148989580D02*
X238866666Y-148894342D01*
X238866666Y-148894342D02*
X238914285Y-148703866D01*
X238914285Y-148703866D02*
X238914285Y-148465771D01*
X238914285Y-148465771D02*
X238866666Y-148275295D01*
X238866666Y-148275295D02*
X238819047Y-148180057D01*
X238819047Y-148180057D02*
X238771428Y-148132438D01*
X238771428Y-148132438D02*
X238676190Y-148084819D01*
X237914285Y-149084819D02*
X237914285Y-148084819D01*
X237819047Y-148703866D02*
X237533333Y-149084819D01*
X237533333Y-148418152D02*
X237914285Y-148799104D01*
D14*
X238867142Y-149918200D02*
X238953809Y-149794391D01*
X239015714Y-149918200D02*
X239015714Y-149658200D01*
X239015714Y-149658200D02*
X238916666Y-149658200D01*
X238916666Y-149658200D02*
X238891904Y-149670581D01*
X238891904Y-149670581D02*
X238879523Y-149682962D01*
X238879523Y-149682962D02*
X238867142Y-149707724D01*
X238867142Y-149707724D02*
X238867142Y-149744867D01*
X238867142Y-149744867D02*
X238879523Y-149769629D01*
X238879523Y-149769629D02*
X238891904Y-149782010D01*
X238891904Y-149782010D02*
X238916666Y-149794391D01*
X238916666Y-149794391D02*
X239015714Y-149794391D01*
X238768095Y-149682962D02*
X238755714Y-149670581D01*
X238755714Y-149670581D02*
X238730952Y-149658200D01*
X238730952Y-149658200D02*
X238669047Y-149658200D01*
X238669047Y-149658200D02*
X238644285Y-149670581D01*
X238644285Y-149670581D02*
X238631904Y-149682962D01*
X238631904Y-149682962D02*
X238619523Y-149707724D01*
X238619523Y-149707724D02*
X238619523Y-149732486D01*
X238619523Y-149732486D02*
X238631904Y-149769629D01*
X238631904Y-149769629D02*
X238780476Y-149918200D01*
X238780476Y-149918200D02*
X238619523Y-149918200D01*
X238470952Y-149769629D02*
X238495714Y-149757248D01*
X238495714Y-149757248D02*
X238508095Y-149744867D01*
X238508095Y-149744867D02*
X238520476Y-149720105D01*
X238520476Y-149720105D02*
X238520476Y-149707724D01*
X238520476Y-149707724D02*
X238508095Y-149682962D01*
X238508095Y-149682962D02*
X238495714Y-149670581D01*
X238495714Y-149670581D02*
X238470952Y-149658200D01*
X238470952Y-149658200D02*
X238421428Y-149658200D01*
X238421428Y-149658200D02*
X238396666Y-149670581D01*
X238396666Y-149670581D02*
X238384285Y-149682962D01*
X238384285Y-149682962D02*
X238371904Y-149707724D01*
X238371904Y-149707724D02*
X238371904Y-149720105D01*
X238371904Y-149720105D02*
X238384285Y-149744867D01*
X238384285Y-149744867D02*
X238396666Y-149757248D01*
X238396666Y-149757248D02*
X238421428Y-149769629D01*
X238421428Y-149769629D02*
X238470952Y-149769629D01*
X238470952Y-149769629D02*
X238495714Y-149782010D01*
X238495714Y-149782010D02*
X238508095Y-149794391D01*
X238508095Y-149794391D02*
X238520476Y-149819153D01*
X238520476Y-149819153D02*
X238520476Y-149868677D01*
X238520476Y-149868677D02*
X238508095Y-149893439D01*
X238508095Y-149893439D02*
X238495714Y-149905820D01*
X238495714Y-149905820D02*
X238470952Y-149918200D01*
X238470952Y-149918200D02*
X238421428Y-149918200D01*
X238421428Y-149918200D02*
X238396666Y-149905820D01*
X238396666Y-149905820D02*
X238384285Y-149893439D01*
X238384285Y-149893439D02*
X238371904Y-149868677D01*
X238371904Y-149868677D02*
X238371904Y-149819153D01*
X238371904Y-149819153D02*
X238384285Y-149794391D01*
X238384285Y-149794391D02*
X238396666Y-149782010D01*
X238396666Y-149782010D02*
X238421428Y-149769629D01*
D10*
X240319047Y-160370057D02*
X240271428Y-160322438D01*
X240271428Y-160322438D02*
X240176190Y-160274819D01*
X240176190Y-160274819D02*
X239938095Y-160274819D01*
X239938095Y-160274819D02*
X239842857Y-160322438D01*
X239842857Y-160322438D02*
X239795238Y-160370057D01*
X239795238Y-160370057D02*
X239747619Y-160465295D01*
X239747619Y-160465295D02*
X239747619Y-160560533D01*
X239747619Y-160560533D02*
X239795238Y-160703390D01*
X239795238Y-160703390D02*
X240366666Y-161274819D01*
X240366666Y-161274819D02*
X239747619Y-161274819D01*
X239366666Y-160370057D02*
X239319047Y-160322438D01*
X239319047Y-160322438D02*
X239223809Y-160274819D01*
X239223809Y-160274819D02*
X238985714Y-160274819D01*
X238985714Y-160274819D02*
X238890476Y-160322438D01*
X238890476Y-160322438D02*
X238842857Y-160370057D01*
X238842857Y-160370057D02*
X238795238Y-160465295D01*
X238795238Y-160465295D02*
X238795238Y-160560533D01*
X238795238Y-160560533D02*
X238842857Y-160703390D01*
X238842857Y-160703390D02*
X239414285Y-161274819D01*
X239414285Y-161274819D02*
X238795238Y-161274819D01*
X238176190Y-160274819D02*
X238080952Y-160274819D01*
X238080952Y-160274819D02*
X237985714Y-160322438D01*
X237985714Y-160322438D02*
X237938095Y-160370057D01*
X237938095Y-160370057D02*
X237890476Y-160465295D01*
X237890476Y-160465295D02*
X237842857Y-160655771D01*
X237842857Y-160655771D02*
X237842857Y-160893866D01*
X237842857Y-160893866D02*
X237890476Y-161084342D01*
X237890476Y-161084342D02*
X237938095Y-161179580D01*
X237938095Y-161179580D02*
X237985714Y-161227200D01*
X237985714Y-161227200D02*
X238080952Y-161274819D01*
X238080952Y-161274819D02*
X238176190Y-161274819D01*
X238176190Y-161274819D02*
X238271428Y-161227200D01*
X238271428Y-161227200D02*
X238319047Y-161179580D01*
X238319047Y-161179580D02*
X238366666Y-161084342D01*
X238366666Y-161084342D02*
X238414285Y-160893866D01*
X238414285Y-160893866D02*
X238414285Y-160655771D01*
X238414285Y-160655771D02*
X238366666Y-160465295D01*
X238366666Y-160465295D02*
X238319047Y-160370057D01*
X238319047Y-160370057D02*
X238271428Y-160322438D01*
X238271428Y-160322438D02*
X238176190Y-160274819D01*
X237414285Y-160608152D02*
X237414285Y-161274819D01*
X237414285Y-160703390D02*
X237366666Y-160655771D01*
X237366666Y-160655771D02*
X237271428Y-160608152D01*
X237271428Y-160608152D02*
X237128571Y-160608152D01*
X237128571Y-160608152D02*
X237033333Y-160655771D01*
X237033333Y-160655771D02*
X236985714Y-160751009D01*
X236985714Y-160751009D02*
X236985714Y-161274819D01*
X236176190Y-160751009D02*
X236509523Y-160751009D01*
X236509523Y-161274819D02*
X236509523Y-160274819D01*
X236509523Y-160274819D02*
X236033333Y-160274819D01*
D11*
X238521428Y-162679530D02*
X238545237Y-162703340D01*
X238545237Y-162703340D02*
X238616666Y-162727149D01*
X238616666Y-162727149D02*
X238664285Y-162727149D01*
X238664285Y-162727149D02*
X238735713Y-162703340D01*
X238735713Y-162703340D02*
X238783332Y-162655720D01*
X238783332Y-162655720D02*
X238807142Y-162608101D01*
X238807142Y-162608101D02*
X238830951Y-162512863D01*
X238830951Y-162512863D02*
X238830951Y-162441435D01*
X238830951Y-162441435D02*
X238807142Y-162346197D01*
X238807142Y-162346197D02*
X238783332Y-162298578D01*
X238783332Y-162298578D02*
X238735713Y-162250959D01*
X238735713Y-162250959D02*
X238664285Y-162227149D01*
X238664285Y-162227149D02*
X238616666Y-162227149D01*
X238616666Y-162227149D02*
X238545237Y-162250959D01*
X238545237Y-162250959D02*
X238521428Y-162274768D01*
X238354761Y-162227149D02*
X238045237Y-162227149D01*
X238045237Y-162227149D02*
X238211904Y-162417625D01*
X238211904Y-162417625D02*
X238140475Y-162417625D01*
X238140475Y-162417625D02*
X238092856Y-162441435D01*
X238092856Y-162441435D02*
X238069047Y-162465244D01*
X238069047Y-162465244D02*
X238045237Y-162512863D01*
X238045237Y-162512863D02*
X238045237Y-162631911D01*
X238045237Y-162631911D02*
X238069047Y-162679530D01*
X238069047Y-162679530D02*
X238092856Y-162703340D01*
X238092856Y-162703340D02*
X238140475Y-162727149D01*
X238140475Y-162727149D02*
X238283332Y-162727149D01*
X238283332Y-162727149D02*
X238330951Y-162703340D01*
X238330951Y-162703340D02*
X238354761Y-162679530D01*
X237616666Y-162393816D02*
X237616666Y-162727149D01*
X237735714Y-162203340D02*
X237854761Y-162560482D01*
X237854761Y-162560482D02*
X237545238Y-162560482D01*
D13*
X225520270Y-116242047D02*
X225459794Y-116121095D01*
X225459794Y-116121095D02*
X225338842Y-116000142D01*
X225338842Y-116000142D02*
X225157413Y-115818714D01*
X225157413Y-115818714D02*
X225096937Y-115697761D01*
X225096937Y-115697761D02*
X225096937Y-115576809D01*
X225399318Y-115637285D02*
X225338842Y-115516333D01*
X225338842Y-115516333D02*
X225217889Y-115395380D01*
X225217889Y-115395380D02*
X224975984Y-115334904D01*
X224975984Y-115334904D02*
X224552651Y-115334904D01*
X224552651Y-115334904D02*
X224310746Y-115395380D01*
X224310746Y-115395380D02*
X224189794Y-115516333D01*
X224189794Y-115516333D02*
X224129318Y-115637285D01*
X224129318Y-115637285D02*
X224129318Y-115879190D01*
X224129318Y-115879190D02*
X224189794Y-116000142D01*
X224189794Y-116000142D02*
X224310746Y-116121095D01*
X224310746Y-116121095D02*
X224552651Y-116181571D01*
X224552651Y-116181571D02*
X224975984Y-116181571D01*
X224975984Y-116181571D02*
X225217889Y-116121095D01*
X225217889Y-116121095D02*
X225338842Y-116000142D01*
X225338842Y-116000142D02*
X225399318Y-115879190D01*
X225399318Y-115879190D02*
X225399318Y-115637285D01*
X225399318Y-117391095D02*
X225399318Y-116665380D01*
X225399318Y-117028237D02*
X224129318Y-117028237D01*
X224129318Y-117028237D02*
X224310746Y-116907285D01*
X224310746Y-116907285D02*
X224431699Y-116786333D01*
X224431699Y-116786333D02*
X224492175Y-116665380D01*
D10*
X260354819Y-145780952D02*
X260354819Y-145209524D01*
X260354819Y-145495238D02*
X259354819Y-145495238D01*
X259354819Y-145495238D02*
X259497676Y-145400000D01*
X259497676Y-145400000D02*
X259592914Y-145304762D01*
X259592914Y-145304762D02*
X259640533Y-145209524D01*
X260354819Y-146209524D02*
X259354819Y-146209524D01*
X259973866Y-146304762D02*
X260354819Y-146590476D01*
X259688152Y-146590476D02*
X260069104Y-146209524D01*
D15*
X260181927Y-147342857D02*
X259991451Y-147209524D01*
X260181927Y-147114286D02*
X259781927Y-147114286D01*
X259781927Y-147114286D02*
X259781927Y-147266667D01*
X259781927Y-147266667D02*
X259800975Y-147304762D01*
X259800975Y-147304762D02*
X259820022Y-147323809D01*
X259820022Y-147323809D02*
X259858118Y-147342857D01*
X259858118Y-147342857D02*
X259915260Y-147342857D01*
X259915260Y-147342857D02*
X259953356Y-147323809D01*
X259953356Y-147323809D02*
X259972403Y-147304762D01*
X259972403Y-147304762D02*
X259991451Y-147266667D01*
X259991451Y-147266667D02*
X259991451Y-147114286D01*
X259820022Y-147495238D02*
X259800975Y-147514286D01*
X259800975Y-147514286D02*
X259781927Y-147552381D01*
X259781927Y-147552381D02*
X259781927Y-147647619D01*
X259781927Y-147647619D02*
X259800975Y-147685714D01*
X259800975Y-147685714D02*
X259820022Y-147704762D01*
X259820022Y-147704762D02*
X259858118Y-147723809D01*
X259858118Y-147723809D02*
X259896213Y-147723809D01*
X259896213Y-147723809D02*
X259953356Y-147704762D01*
X259953356Y-147704762D02*
X260181927Y-147476190D01*
X260181927Y-147476190D02*
X260181927Y-147723809D01*
X259781927Y-147857142D02*
X259781927Y-148104761D01*
X259781927Y-148104761D02*
X259934308Y-147971428D01*
X259934308Y-147971428D02*
X259934308Y-148028571D01*
X259934308Y-148028571D02*
X259953356Y-148066666D01*
X259953356Y-148066666D02*
X259972403Y-148085714D01*
X259972403Y-148085714D02*
X260010499Y-148104761D01*
X260010499Y-148104761D02*
X260105737Y-148104761D01*
X260105737Y-148104761D02*
X260143832Y-148085714D01*
X260143832Y-148085714D02*
X260162880Y-148066666D01*
X260162880Y-148066666D02*
X260181927Y-148028571D01*
X260181927Y-148028571D02*
X260181927Y-147914285D01*
X260181927Y-147914285D02*
X260162880Y-147876190D01*
X260162880Y-147876190D02*
X260143832Y-147857142D01*
D10*
X264138095Y-149354819D02*
X264138095Y-148354819D01*
X264138095Y-148354819D02*
X263900000Y-148354819D01*
X263900000Y-148354819D02*
X263757143Y-148402438D01*
X263757143Y-148402438D02*
X263661905Y-148497676D01*
X263661905Y-148497676D02*
X263614286Y-148592914D01*
X263614286Y-148592914D02*
X263566667Y-148783390D01*
X263566667Y-148783390D02*
X263566667Y-148926247D01*
X263566667Y-148926247D02*
X263614286Y-149116723D01*
X263614286Y-149116723D02*
X263661905Y-149211961D01*
X263661905Y-149211961D02*
X263757143Y-149307200D01*
X263757143Y-149307200D02*
X263900000Y-149354819D01*
X263900000Y-149354819D02*
X264138095Y-149354819D01*
X263376191Y-149450057D02*
X262614286Y-149450057D01*
X262471428Y-148354819D02*
X261804762Y-148354819D01*
X261804762Y-148354819D02*
X262471428Y-149354819D01*
X262471428Y-149354819D02*
X261804762Y-149354819D01*
X261042857Y-149307200D02*
X261138095Y-149354819D01*
X261138095Y-149354819D02*
X261328571Y-149354819D01*
X261328571Y-149354819D02*
X261423809Y-149307200D01*
X261423809Y-149307200D02*
X261471428Y-149211961D01*
X261471428Y-149211961D02*
X261471428Y-148831009D01*
X261471428Y-148831009D02*
X261423809Y-148735771D01*
X261423809Y-148735771D02*
X261328571Y-148688152D01*
X261328571Y-148688152D02*
X261138095Y-148688152D01*
X261138095Y-148688152D02*
X261042857Y-148735771D01*
X261042857Y-148735771D02*
X260995238Y-148831009D01*
X260995238Y-148831009D02*
X260995238Y-148926247D01*
X260995238Y-148926247D02*
X261471428Y-149021485D01*
X260566666Y-148688152D02*
X260566666Y-149354819D01*
X260566666Y-148783390D02*
X260519047Y-148735771D01*
X260519047Y-148735771D02*
X260423809Y-148688152D01*
X260423809Y-148688152D02*
X260280952Y-148688152D01*
X260280952Y-148688152D02*
X260185714Y-148735771D01*
X260185714Y-148735771D02*
X260138095Y-148831009D01*
X260138095Y-148831009D02*
X260138095Y-149354819D01*
X259280952Y-149307200D02*
X259376190Y-149354819D01*
X259376190Y-149354819D02*
X259566666Y-149354819D01*
X259566666Y-149354819D02*
X259661904Y-149307200D01*
X259661904Y-149307200D02*
X259709523Y-149211961D01*
X259709523Y-149211961D02*
X259709523Y-148831009D01*
X259709523Y-148831009D02*
X259661904Y-148735771D01*
X259661904Y-148735771D02*
X259566666Y-148688152D01*
X259566666Y-148688152D02*
X259376190Y-148688152D01*
X259376190Y-148688152D02*
X259280952Y-148735771D01*
X259280952Y-148735771D02*
X259233333Y-148831009D01*
X259233333Y-148831009D02*
X259233333Y-148926247D01*
X259233333Y-148926247D02*
X259709523Y-149021485D01*
X258804761Y-149354819D02*
X258804761Y-148688152D01*
X258804761Y-148878628D02*
X258757142Y-148783390D01*
X258757142Y-148783390D02*
X258709523Y-148735771D01*
X258709523Y-148735771D02*
X258614285Y-148688152D01*
X258614285Y-148688152D02*
X258519047Y-148688152D01*
X262011094Y-153359819D02*
X262011094Y-152359819D01*
X262011094Y-152359819D02*
X261772999Y-152359819D01*
X261772999Y-152359819D02*
X261630142Y-152407438D01*
X261630142Y-152407438D02*
X261534904Y-152502676D01*
X261534904Y-152502676D02*
X261487285Y-152597914D01*
X261487285Y-152597914D02*
X261439666Y-152788390D01*
X261439666Y-152788390D02*
X261439666Y-152931247D01*
X261439666Y-152931247D02*
X261487285Y-153121723D01*
X261487285Y-153121723D02*
X261534904Y-153216961D01*
X261534904Y-153216961D02*
X261630142Y-153312200D01*
X261630142Y-153312200D02*
X261772999Y-153359819D01*
X261772999Y-153359819D02*
X262011094Y-153359819D01*
X260534904Y-152359819D02*
X261011094Y-152359819D01*
X261011094Y-152359819D02*
X261058713Y-152836009D01*
X261058713Y-152836009D02*
X261011094Y-152788390D01*
X261011094Y-152788390D02*
X260915856Y-152740771D01*
X260915856Y-152740771D02*
X260677761Y-152740771D01*
X260677761Y-152740771D02*
X260582523Y-152788390D01*
X260582523Y-152788390D02*
X260534904Y-152836009D01*
X260534904Y-152836009D02*
X260487285Y-152931247D01*
X260487285Y-152931247D02*
X260487285Y-153169342D01*
X260487285Y-153169342D02*
X260534904Y-153264580D01*
X260534904Y-153264580D02*
X260582523Y-153312200D01*
X260582523Y-153312200D02*
X260677761Y-153359819D01*
X260677761Y-153359819D02*
X260915856Y-153359819D01*
X260915856Y-153359819D02*
X261011094Y-153312200D01*
X261011094Y-153312200D02*
X261058713Y-153264580D01*
X259695238Y-154054819D02*
X260266666Y-154054819D01*
X259980952Y-154054819D02*
X259980952Y-153054819D01*
X259980952Y-153054819D02*
X260076190Y-153197676D01*
X260076190Y-153197676D02*
X260171428Y-153292914D01*
X260171428Y-153292914D02*
X260266666Y-153340533D01*
X258838095Y-153388152D02*
X258838095Y-154054819D01*
X259266666Y-153388152D02*
X259266666Y-153911961D01*
X259266666Y-153911961D02*
X259219047Y-154007200D01*
X259219047Y-154007200D02*
X259123809Y-154054819D01*
X259123809Y-154054819D02*
X258980952Y-154054819D01*
X258980952Y-154054819D02*
X258885714Y-154007200D01*
X258885714Y-154007200D02*
X258838095Y-153959580D01*
X258028571Y-153531009D02*
X258361904Y-153531009D01*
X258361904Y-154054819D02*
X258361904Y-153054819D01*
X258361904Y-153054819D02*
X257885714Y-153054819D01*
D11*
X262041428Y-153879530D02*
X262065237Y-153903340D01*
X262065237Y-153903340D02*
X262136666Y-153927149D01*
X262136666Y-153927149D02*
X262184285Y-153927149D01*
X262184285Y-153927149D02*
X262255713Y-153903340D01*
X262255713Y-153903340D02*
X262303332Y-153855720D01*
X262303332Y-153855720D02*
X262327142Y-153808101D01*
X262327142Y-153808101D02*
X262350951Y-153712863D01*
X262350951Y-153712863D02*
X262350951Y-153641435D01*
X262350951Y-153641435D02*
X262327142Y-153546197D01*
X262327142Y-153546197D02*
X262303332Y-153498578D01*
X262303332Y-153498578D02*
X262255713Y-153450959D01*
X262255713Y-153450959D02*
X262184285Y-153427149D01*
X262184285Y-153427149D02*
X262136666Y-153427149D01*
X262136666Y-153427149D02*
X262065237Y-153450959D01*
X262065237Y-153450959D02*
X262041428Y-153474768D01*
X261850951Y-153474768D02*
X261827142Y-153450959D01*
X261827142Y-153450959D02*
X261779523Y-153427149D01*
X261779523Y-153427149D02*
X261660475Y-153427149D01*
X261660475Y-153427149D02*
X261612856Y-153450959D01*
X261612856Y-153450959D02*
X261589047Y-153474768D01*
X261589047Y-153474768D02*
X261565237Y-153522387D01*
X261565237Y-153522387D02*
X261565237Y-153570006D01*
X261565237Y-153570006D02*
X261589047Y-153641435D01*
X261589047Y-153641435D02*
X261874761Y-153927149D01*
X261874761Y-153927149D02*
X261565237Y-153927149D01*
X261374761Y-153474768D02*
X261350952Y-153450959D01*
X261350952Y-153450959D02*
X261303333Y-153427149D01*
X261303333Y-153427149D02*
X261184285Y-153427149D01*
X261184285Y-153427149D02*
X261136666Y-153450959D01*
X261136666Y-153450959D02*
X261112857Y-153474768D01*
X261112857Y-153474768D02*
X261089047Y-153522387D01*
X261089047Y-153522387D02*
X261089047Y-153570006D01*
X261089047Y-153570006D02*
X261112857Y-153641435D01*
X261112857Y-153641435D02*
X261398571Y-153927149D01*
X261398571Y-153927149D02*
X261089047Y-153927149D01*
D10*
X246695238Y-131054819D02*
X247266666Y-131054819D01*
X246980952Y-131054819D02*
X246980952Y-130054819D01*
X246980952Y-130054819D02*
X247076190Y-130197676D01*
X247076190Y-130197676D02*
X247171428Y-130292914D01*
X247171428Y-130292914D02*
X247266666Y-130340533D01*
X245838095Y-130388152D02*
X245838095Y-131054819D01*
X246266666Y-130388152D02*
X246266666Y-130911961D01*
X246266666Y-130911961D02*
X246219047Y-131007200D01*
X246219047Y-131007200D02*
X246123809Y-131054819D01*
X246123809Y-131054819D02*
X245980952Y-131054819D01*
X245980952Y-131054819D02*
X245885714Y-131007200D01*
X245885714Y-131007200D02*
X245838095Y-130959580D01*
X245028571Y-130531009D02*
X245361904Y-130531009D01*
X245361904Y-131054819D02*
X245361904Y-130054819D01*
X245361904Y-130054819D02*
X244885714Y-130054819D01*
D11*
X248921428Y-130779530D02*
X248945237Y-130803340D01*
X248945237Y-130803340D02*
X249016666Y-130827149D01*
X249016666Y-130827149D02*
X249064285Y-130827149D01*
X249064285Y-130827149D02*
X249135713Y-130803340D01*
X249135713Y-130803340D02*
X249183332Y-130755720D01*
X249183332Y-130755720D02*
X249207142Y-130708101D01*
X249207142Y-130708101D02*
X249230951Y-130612863D01*
X249230951Y-130612863D02*
X249230951Y-130541435D01*
X249230951Y-130541435D02*
X249207142Y-130446197D01*
X249207142Y-130446197D02*
X249183332Y-130398578D01*
X249183332Y-130398578D02*
X249135713Y-130350959D01*
X249135713Y-130350959D02*
X249064285Y-130327149D01*
X249064285Y-130327149D02*
X249016666Y-130327149D01*
X249016666Y-130327149D02*
X248945237Y-130350959D01*
X248945237Y-130350959D02*
X248921428Y-130374768D01*
X248730951Y-130374768D02*
X248707142Y-130350959D01*
X248707142Y-130350959D02*
X248659523Y-130327149D01*
X248659523Y-130327149D02*
X248540475Y-130327149D01*
X248540475Y-130327149D02*
X248492856Y-130350959D01*
X248492856Y-130350959D02*
X248469047Y-130374768D01*
X248469047Y-130374768D02*
X248445237Y-130422387D01*
X248445237Y-130422387D02*
X248445237Y-130470006D01*
X248445237Y-130470006D02*
X248469047Y-130541435D01*
X248469047Y-130541435D02*
X248754761Y-130827149D01*
X248754761Y-130827149D02*
X248445237Y-130827149D01*
X248135714Y-130327149D02*
X248088095Y-130327149D01*
X248088095Y-130327149D02*
X248040476Y-130350959D01*
X248040476Y-130350959D02*
X248016666Y-130374768D01*
X248016666Y-130374768D02*
X247992857Y-130422387D01*
X247992857Y-130422387D02*
X247969047Y-130517625D01*
X247969047Y-130517625D02*
X247969047Y-130636673D01*
X247969047Y-130636673D02*
X247992857Y-130731911D01*
X247992857Y-130731911D02*
X248016666Y-130779530D01*
X248016666Y-130779530D02*
X248040476Y-130803340D01*
X248040476Y-130803340D02*
X248088095Y-130827149D01*
X248088095Y-130827149D02*
X248135714Y-130827149D01*
X248135714Y-130827149D02*
X248183333Y-130803340D01*
X248183333Y-130803340D02*
X248207142Y-130779530D01*
X248207142Y-130779530D02*
X248230952Y-130731911D01*
X248230952Y-130731911D02*
X248254761Y-130636673D01*
X248254761Y-130636673D02*
X248254761Y-130517625D01*
X248254761Y-130517625D02*
X248230952Y-130422387D01*
X248230952Y-130422387D02*
X248207142Y-130374768D01*
X248207142Y-130374768D02*
X248183333Y-130350959D01*
X248183333Y-130350959D02*
X248135714Y-130327149D01*
D10*
X233754819Y-114028571D02*
X233754819Y-113457143D01*
X233754819Y-113742857D02*
X232754819Y-113742857D01*
X232754819Y-113742857D02*
X232897676Y-113647619D01*
X232897676Y-113647619D02*
X232992914Y-113552381D01*
X232992914Y-113552381D02*
X233040533Y-113457143D01*
X232754819Y-114647619D02*
X232754819Y-114742857D01*
X232754819Y-114742857D02*
X232802438Y-114838095D01*
X232802438Y-114838095D02*
X232850057Y-114885714D01*
X232850057Y-114885714D02*
X232945295Y-114933333D01*
X232945295Y-114933333D02*
X233135771Y-114980952D01*
X233135771Y-114980952D02*
X233373866Y-114980952D01*
X233373866Y-114980952D02*
X233564342Y-114933333D01*
X233564342Y-114933333D02*
X233659580Y-114885714D01*
X233659580Y-114885714D02*
X233707200Y-114838095D01*
X233707200Y-114838095D02*
X233754819Y-114742857D01*
X233754819Y-114742857D02*
X233754819Y-114647619D01*
X233754819Y-114647619D02*
X233707200Y-114552381D01*
X233707200Y-114552381D02*
X233659580Y-114504762D01*
X233659580Y-114504762D02*
X233564342Y-114457143D01*
X233564342Y-114457143D02*
X233373866Y-114409524D01*
X233373866Y-114409524D02*
X233135771Y-114409524D01*
X233135771Y-114409524D02*
X232945295Y-114457143D01*
X232945295Y-114457143D02*
X232850057Y-114504762D01*
X232850057Y-114504762D02*
X232802438Y-114552381D01*
X232802438Y-114552381D02*
X232754819Y-114647619D01*
X232754819Y-115600000D02*
X232754819Y-115695238D01*
X232754819Y-115695238D02*
X232802438Y-115790476D01*
X232802438Y-115790476D02*
X232850057Y-115838095D01*
X232850057Y-115838095D02*
X232945295Y-115885714D01*
X232945295Y-115885714D02*
X233135771Y-115933333D01*
X233135771Y-115933333D02*
X233373866Y-115933333D01*
X233373866Y-115933333D02*
X233564342Y-115885714D01*
X233564342Y-115885714D02*
X233659580Y-115838095D01*
X233659580Y-115838095D02*
X233707200Y-115790476D01*
X233707200Y-115790476D02*
X233754819Y-115695238D01*
X233754819Y-115695238D02*
X233754819Y-115600000D01*
X233754819Y-115600000D02*
X233707200Y-115504762D01*
X233707200Y-115504762D02*
X233659580Y-115457143D01*
X233659580Y-115457143D02*
X233564342Y-115409524D01*
X233564342Y-115409524D02*
X233373866Y-115361905D01*
X233373866Y-115361905D02*
X233135771Y-115361905D01*
X233135771Y-115361905D02*
X232945295Y-115409524D01*
X232945295Y-115409524D02*
X232850057Y-115457143D01*
X232850057Y-115457143D02*
X232802438Y-115504762D01*
X232802438Y-115504762D02*
X232754819Y-115600000D01*
X233754819Y-116361905D02*
X232754819Y-116361905D01*
X233373866Y-116457143D02*
X233754819Y-116742857D01*
X233088152Y-116742857D02*
X233469104Y-116361905D01*
D12*
X233563855Y-118385714D02*
X233182902Y-118119047D01*
X233563855Y-117928571D02*
X232763855Y-117928571D01*
X232763855Y-117928571D02*
X232763855Y-118233333D01*
X232763855Y-118233333D02*
X232801950Y-118309523D01*
X232801950Y-118309523D02*
X232840045Y-118347618D01*
X232840045Y-118347618D02*
X232916236Y-118385714D01*
X232916236Y-118385714D02*
X233030521Y-118385714D01*
X233030521Y-118385714D02*
X233106712Y-118347618D01*
X233106712Y-118347618D02*
X233144807Y-118309523D01*
X233144807Y-118309523D02*
X233182902Y-118233333D01*
X233182902Y-118233333D02*
X233182902Y-117928571D01*
X232840045Y-118690475D02*
X232801950Y-118728571D01*
X232801950Y-118728571D02*
X232763855Y-118804761D01*
X232763855Y-118804761D02*
X232763855Y-118995237D01*
X232763855Y-118995237D02*
X232801950Y-119071428D01*
X232801950Y-119071428D02*
X232840045Y-119109523D01*
X232840045Y-119109523D02*
X232916236Y-119147618D01*
X232916236Y-119147618D02*
X232992426Y-119147618D01*
X232992426Y-119147618D02*
X233106712Y-119109523D01*
X233106712Y-119109523D02*
X233563855Y-118652380D01*
X233563855Y-118652380D02*
X233563855Y-119147618D01*
X233030521Y-119833333D02*
X233563855Y-119833333D01*
X232725760Y-119642857D02*
X233297188Y-119452380D01*
X233297188Y-119452380D02*
X233297188Y-119947619D01*
D10*
X249195238Y-132774819D02*
X249766666Y-132774819D01*
X249480952Y-132774819D02*
X249480952Y-131774819D01*
X249480952Y-131774819D02*
X249576190Y-131917676D01*
X249576190Y-131917676D02*
X249671428Y-132012914D01*
X249671428Y-132012914D02*
X249766666Y-132060533D01*
X248338095Y-132108152D02*
X248338095Y-132774819D01*
X248766666Y-132108152D02*
X248766666Y-132631961D01*
X248766666Y-132631961D02*
X248719047Y-132727200D01*
X248719047Y-132727200D02*
X248623809Y-132774819D01*
X248623809Y-132774819D02*
X248480952Y-132774819D01*
X248480952Y-132774819D02*
X248385714Y-132727200D01*
X248385714Y-132727200D02*
X248338095Y-132679580D01*
X247528571Y-132251009D02*
X247861904Y-132251009D01*
X247861904Y-132774819D02*
X247861904Y-131774819D01*
X247861904Y-131774819D02*
X247385714Y-131774819D01*
D11*
X248921428Y-134179530D02*
X248945237Y-134203340D01*
X248945237Y-134203340D02*
X249016666Y-134227149D01*
X249016666Y-134227149D02*
X249064285Y-134227149D01*
X249064285Y-134227149D02*
X249135713Y-134203340D01*
X249135713Y-134203340D02*
X249183332Y-134155720D01*
X249183332Y-134155720D02*
X249207142Y-134108101D01*
X249207142Y-134108101D02*
X249230951Y-134012863D01*
X249230951Y-134012863D02*
X249230951Y-133941435D01*
X249230951Y-133941435D02*
X249207142Y-133846197D01*
X249207142Y-133846197D02*
X249183332Y-133798578D01*
X249183332Y-133798578D02*
X249135713Y-133750959D01*
X249135713Y-133750959D02*
X249064285Y-133727149D01*
X249064285Y-133727149D02*
X249016666Y-133727149D01*
X249016666Y-133727149D02*
X248945237Y-133750959D01*
X248945237Y-133750959D02*
X248921428Y-133774768D01*
X248730951Y-133774768D02*
X248707142Y-133750959D01*
X248707142Y-133750959D02*
X248659523Y-133727149D01*
X248659523Y-133727149D02*
X248540475Y-133727149D01*
X248540475Y-133727149D02*
X248492856Y-133750959D01*
X248492856Y-133750959D02*
X248469047Y-133774768D01*
X248469047Y-133774768D02*
X248445237Y-133822387D01*
X248445237Y-133822387D02*
X248445237Y-133870006D01*
X248445237Y-133870006D02*
X248469047Y-133941435D01*
X248469047Y-133941435D02*
X248754761Y-134227149D01*
X248754761Y-134227149D02*
X248445237Y-134227149D01*
X247969047Y-134227149D02*
X248254761Y-134227149D01*
X248111904Y-134227149D02*
X248111904Y-133727149D01*
X248111904Y-133727149D02*
X248159523Y-133798578D01*
X248159523Y-133798578D02*
X248207142Y-133846197D01*
X248207142Y-133846197D02*
X248254761Y-133870006D01*
D10*
X237257142Y-131934819D02*
X237828570Y-131934819D01*
X237542856Y-131934819D02*
X237542856Y-130934819D01*
X237542856Y-130934819D02*
X237638094Y-131077676D01*
X237638094Y-131077676D02*
X237733332Y-131172914D01*
X237733332Y-131172914D02*
X237828570Y-131220533D01*
X236638094Y-130934819D02*
X236542856Y-130934819D01*
X236542856Y-130934819D02*
X236447618Y-130982438D01*
X236447618Y-130982438D02*
X236399999Y-131030057D01*
X236399999Y-131030057D02*
X236352380Y-131125295D01*
X236352380Y-131125295D02*
X236304761Y-131315771D01*
X236304761Y-131315771D02*
X236304761Y-131553866D01*
X236304761Y-131553866D02*
X236352380Y-131744342D01*
X236352380Y-131744342D02*
X236399999Y-131839580D01*
X236399999Y-131839580D02*
X236447618Y-131887200D01*
X236447618Y-131887200D02*
X236542856Y-131934819D01*
X236542856Y-131934819D02*
X236638094Y-131934819D01*
X236638094Y-131934819D02*
X236733332Y-131887200D01*
X236733332Y-131887200D02*
X236780951Y-131839580D01*
X236780951Y-131839580D02*
X236828570Y-131744342D01*
X236828570Y-131744342D02*
X236876189Y-131553866D01*
X236876189Y-131553866D02*
X236876189Y-131315771D01*
X236876189Y-131315771D02*
X236828570Y-131125295D01*
X236828570Y-131125295D02*
X236780951Y-131030057D01*
X236780951Y-131030057D02*
X236733332Y-130982438D01*
X236733332Y-130982438D02*
X236638094Y-130934819D01*
X235876189Y-131934819D02*
X235876189Y-131268152D01*
X235876189Y-131363390D02*
X235828570Y-131315771D01*
X235828570Y-131315771D02*
X235733332Y-131268152D01*
X235733332Y-131268152D02*
X235590475Y-131268152D01*
X235590475Y-131268152D02*
X235495237Y-131315771D01*
X235495237Y-131315771D02*
X235447618Y-131411009D01*
X235447618Y-131411009D02*
X235447618Y-131934819D01*
X235447618Y-131411009D02*
X235399999Y-131315771D01*
X235399999Y-131315771D02*
X235304761Y-131268152D01*
X235304761Y-131268152D02*
X235161904Y-131268152D01*
X235161904Y-131268152D02*
X235066665Y-131315771D01*
X235066665Y-131315771D02*
X235019046Y-131411009D01*
X235019046Y-131411009D02*
X235019046Y-131934819D01*
X237042857Y-129654819D02*
X237376190Y-129178628D01*
X237614285Y-129654819D02*
X237614285Y-128654819D01*
X237614285Y-128654819D02*
X237233333Y-128654819D01*
X237233333Y-128654819D02*
X237138095Y-128702438D01*
X237138095Y-128702438D02*
X237090476Y-128750057D01*
X237090476Y-128750057D02*
X237042857Y-128845295D01*
X237042857Y-128845295D02*
X237042857Y-128988152D01*
X237042857Y-128988152D02*
X237090476Y-129083390D01*
X237090476Y-129083390D02*
X237138095Y-129131009D01*
X237138095Y-129131009D02*
X237233333Y-129178628D01*
X237233333Y-129178628D02*
X237614285Y-129178628D01*
X236090476Y-129654819D02*
X236661904Y-129654819D01*
X236376190Y-129654819D02*
X236376190Y-128654819D01*
X236376190Y-128654819D02*
X236471428Y-128797676D01*
X236471428Y-128797676D02*
X236566666Y-128892914D01*
X236566666Y-128892914D02*
X236661904Y-128940533D01*
X235233333Y-128654819D02*
X235423809Y-128654819D01*
X235423809Y-128654819D02*
X235519047Y-128702438D01*
X235519047Y-128702438D02*
X235566666Y-128750057D01*
X235566666Y-128750057D02*
X235661904Y-128892914D01*
X235661904Y-128892914D02*
X235709523Y-129083390D01*
X235709523Y-129083390D02*
X235709523Y-129464342D01*
X235709523Y-129464342D02*
X235661904Y-129559580D01*
X235661904Y-129559580D02*
X235614285Y-129607200D01*
X235614285Y-129607200D02*
X235519047Y-129654819D01*
X235519047Y-129654819D02*
X235328571Y-129654819D01*
X235328571Y-129654819D02*
X235233333Y-129607200D01*
X235233333Y-129607200D02*
X235185714Y-129559580D01*
X235185714Y-129559580D02*
X235138095Y-129464342D01*
X235138095Y-129464342D02*
X235138095Y-129226247D01*
X235138095Y-129226247D02*
X235185714Y-129131009D01*
X235185714Y-129131009D02*
X235233333Y-129083390D01*
X235233333Y-129083390D02*
X235328571Y-129035771D01*
X235328571Y-129035771D02*
X235519047Y-129035771D01*
X235519047Y-129035771D02*
X235614285Y-129083390D01*
X235614285Y-129083390D02*
X235661904Y-129131009D01*
X235661904Y-129131009D02*
X235709523Y-129226247D01*
X253006547Y-171984819D02*
X253577975Y-171984819D01*
X253292261Y-171984819D02*
X253292261Y-170984819D01*
X253292261Y-170984819D02*
X253387499Y-171127676D01*
X253387499Y-171127676D02*
X253482737Y-171222914D01*
X253482737Y-171222914D02*
X253577975Y-171270533D01*
X252577975Y-171984819D02*
X252577975Y-170984819D01*
X252482737Y-171603866D02*
X252197023Y-171984819D01*
X252197023Y-171318152D02*
X252577975Y-171699104D01*
D15*
X253144642Y-170281927D02*
X253277975Y-170091451D01*
X253373213Y-170281927D02*
X253373213Y-169881927D01*
X253373213Y-169881927D02*
X253220832Y-169881927D01*
X253220832Y-169881927D02*
X253182737Y-169900975D01*
X253182737Y-169900975D02*
X253163690Y-169920022D01*
X253163690Y-169920022D02*
X253144642Y-169958118D01*
X253144642Y-169958118D02*
X253144642Y-170015260D01*
X253144642Y-170015260D02*
X253163690Y-170053356D01*
X253163690Y-170053356D02*
X253182737Y-170072403D01*
X253182737Y-170072403D02*
X253220832Y-170091451D01*
X253220832Y-170091451D02*
X253373213Y-170091451D01*
X253011309Y-169881927D02*
X252763690Y-169881927D01*
X252763690Y-169881927D02*
X252897023Y-170034308D01*
X252897023Y-170034308D02*
X252839880Y-170034308D01*
X252839880Y-170034308D02*
X252801785Y-170053356D01*
X252801785Y-170053356D02*
X252782737Y-170072403D01*
X252782737Y-170072403D02*
X252763690Y-170110499D01*
X252763690Y-170110499D02*
X252763690Y-170205737D01*
X252763690Y-170205737D02*
X252782737Y-170243832D01*
X252782737Y-170243832D02*
X252801785Y-170262880D01*
X252801785Y-170262880D02*
X252839880Y-170281927D01*
X252839880Y-170281927D02*
X252954166Y-170281927D01*
X252954166Y-170281927D02*
X252992261Y-170262880D01*
X252992261Y-170262880D02*
X253011309Y-170243832D01*
X252611309Y-169920022D02*
X252592261Y-169900975D01*
X252592261Y-169900975D02*
X252554166Y-169881927D01*
X252554166Y-169881927D02*
X252458928Y-169881927D01*
X252458928Y-169881927D02*
X252420833Y-169900975D01*
X252420833Y-169900975D02*
X252401785Y-169920022D01*
X252401785Y-169920022D02*
X252382738Y-169958118D01*
X252382738Y-169958118D02*
X252382738Y-169996213D01*
X252382738Y-169996213D02*
X252401785Y-170053356D01*
X252401785Y-170053356D02*
X252630357Y-170281927D01*
X252630357Y-170281927D02*
X252382738Y-170281927D01*
D10*
X253006547Y-166484819D02*
X253577975Y-166484819D01*
X253292261Y-166484819D02*
X253292261Y-165484819D01*
X253292261Y-165484819D02*
X253387499Y-165627676D01*
X253387499Y-165627676D02*
X253482737Y-165722914D01*
X253482737Y-165722914D02*
X253577975Y-165770533D01*
X252577975Y-166484819D02*
X252577975Y-165484819D01*
X252482737Y-166103866D02*
X252197023Y-166484819D01*
X252197023Y-165818152D02*
X252577975Y-166199104D01*
D15*
X253144642Y-164781927D02*
X253277975Y-164591451D01*
X253373213Y-164781927D02*
X253373213Y-164381927D01*
X253373213Y-164381927D02*
X253220832Y-164381927D01*
X253220832Y-164381927D02*
X253182737Y-164400975D01*
X253182737Y-164400975D02*
X253163690Y-164420022D01*
X253163690Y-164420022D02*
X253144642Y-164458118D01*
X253144642Y-164458118D02*
X253144642Y-164515260D01*
X253144642Y-164515260D02*
X253163690Y-164553356D01*
X253163690Y-164553356D02*
X253182737Y-164572403D01*
X253182737Y-164572403D02*
X253220832Y-164591451D01*
X253220832Y-164591451D02*
X253373213Y-164591451D01*
X253011309Y-164381927D02*
X252763690Y-164381927D01*
X252763690Y-164381927D02*
X252897023Y-164534308D01*
X252897023Y-164534308D02*
X252839880Y-164534308D01*
X252839880Y-164534308D02*
X252801785Y-164553356D01*
X252801785Y-164553356D02*
X252782737Y-164572403D01*
X252782737Y-164572403D02*
X252763690Y-164610499D01*
X252763690Y-164610499D02*
X252763690Y-164705737D01*
X252763690Y-164705737D02*
X252782737Y-164743832D01*
X252782737Y-164743832D02*
X252801785Y-164762880D01*
X252801785Y-164762880D02*
X252839880Y-164781927D01*
X252839880Y-164781927D02*
X252954166Y-164781927D01*
X252954166Y-164781927D02*
X252992261Y-164762880D01*
X252992261Y-164762880D02*
X253011309Y-164743832D01*
X252382738Y-164781927D02*
X252611309Y-164781927D01*
X252497023Y-164781927D02*
X252497023Y-164381927D01*
X252497023Y-164381927D02*
X252535119Y-164439070D01*
X252535119Y-164439070D02*
X252573214Y-164477165D01*
X252573214Y-164477165D02*
X252611309Y-164496213D01*
D13*
X261798332Y-132379318D02*
X261798332Y-133286461D01*
X261798332Y-133286461D02*
X261858809Y-133467889D01*
X261858809Y-133467889D02*
X261979761Y-133588842D01*
X261979761Y-133588842D02*
X262161190Y-133649318D01*
X262161190Y-133649318D02*
X262282142Y-133649318D01*
X260649285Y-132802651D02*
X260649285Y-133649318D01*
X260951666Y-132318842D02*
X261254047Y-133225984D01*
X261254047Y-133225984D02*
X260467856Y-133225984D01*
D16*
%TO.C,C35*%
X238400000Y-169375000D02*
X240400000Y-169375000D01*
X238400000Y-170625000D02*
X238400000Y-169375000D01*
X240400000Y-169375000D02*
X240400000Y-170625000D01*
X240400000Y-170625000D02*
X238400000Y-170625000D01*
%TO.C,C27*%
X213637500Y-141075000D02*
X215637500Y-141075000D01*
X213637500Y-142325000D02*
X213637500Y-141075000D01*
X215637500Y-141075000D02*
X215637500Y-142325000D01*
X215637500Y-142325000D02*
X213637500Y-142325000D01*
%TO.C,R26*%
X211950000Y-126855000D02*
X215150000Y-126855000D01*
X211950000Y-129345000D02*
X211950000Y-126855000D01*
X215150000Y-126855000D02*
X215150000Y-129345000D01*
X215150000Y-129345000D02*
X211950000Y-129345000D01*
%TO.C,C30*%
X223700000Y-122175000D02*
X225700000Y-122175000D01*
X223700000Y-123425000D02*
X223700000Y-122175000D01*
X225700000Y-122175000D02*
X225700000Y-123425000D01*
X225700000Y-123425000D02*
X223700000Y-123425000D01*
%TO.C,C29*%
X223700000Y-127975000D02*
X225700000Y-127975000D01*
X223700000Y-129225000D02*
X223700000Y-127975000D01*
X225700000Y-127975000D02*
X225700000Y-129225000D01*
X225700000Y-129225000D02*
X223700000Y-129225000D01*
%TO.C,R25*%
X211900000Y-130655000D02*
X215100000Y-130655000D01*
X211900000Y-133145000D02*
X211900000Y-130655000D01*
X215100000Y-130655000D02*
X215100000Y-133145000D01*
X215100000Y-133145000D02*
X211900000Y-133145000D01*
%TO.C,C28*%
X223675000Y-124875000D02*
X225675000Y-124875000D01*
X223675000Y-126125000D02*
X223675000Y-124875000D01*
X225675000Y-124875000D02*
X225675000Y-126125000D01*
X225675000Y-126125000D02*
X223675000Y-126125000D01*
%TO.C,C37*%
X213700000Y-138375000D02*
X215700000Y-138375000D01*
X213700000Y-139625000D02*
X213700000Y-138375000D01*
X215700000Y-138375000D02*
X215700000Y-139625000D01*
X215700000Y-139625000D02*
X213700000Y-139625000D01*
%TO.C,U2*%
X250752000Y-149148000D02*
X254648000Y-149148000D01*
X250752000Y-154052000D02*
X250752000Y-149148000D01*
X252022000Y-154052000D02*
X250752000Y-152782000D01*
X254648000Y-149148000D02*
X254648000Y-154052000D01*
X254648000Y-154052000D02*
X250752000Y-154052000D01*
%TO.C,R30*%
X238100000Y-153850000D02*
X243100000Y-153850000D01*
X238100000Y-156350000D02*
X238100000Y-153850000D01*
X243100000Y-153850000D02*
X243100000Y-156350000D01*
X243100000Y-156350000D02*
X238100000Y-156350000D01*
%TO.C,R18*%
X230930000Y-122677500D02*
X231470000Y-122677500D01*
X230930000Y-123727500D02*
X230930000Y-122677500D01*
X231470000Y-122677500D02*
X231470000Y-123727500D01*
X231470000Y-123727500D02*
X230930000Y-123727500D01*
%TO.C,R20*%
X238177500Y-147730000D02*
X239227500Y-147730000D01*
X238177500Y-148270000D02*
X238177500Y-147730000D01*
X239227500Y-147730000D02*
X239227500Y-148270000D01*
X239227500Y-148270000D02*
X238177500Y-148270000D01*
%TO.C,R35*%
X214375000Y-162000000D02*
X215625000Y-162000000D01*
X214375000Y-164000000D02*
X214375000Y-162000000D01*
X215625000Y-162000000D02*
X215625000Y-164000000D01*
X215625000Y-164000000D02*
X214375000Y-164000000D01*
%TO.C,C38*%
X213637500Y-143975000D02*
X215637500Y-143975000D01*
X213637500Y-145225000D02*
X213637500Y-143975000D01*
X215637500Y-143975000D02*
X215637500Y-145225000D01*
X215637500Y-145225000D02*
X213637500Y-145225000D01*
%TO.C,R22*%
X247612500Y-124687500D02*
X249212500Y-124687500D01*
X247612500Y-125512500D02*
X247612500Y-124687500D01*
X249212500Y-124687500D02*
X249212500Y-125512500D01*
X249212500Y-125512500D02*
X247612500Y-125512500D01*
%TO.C,R17*%
X236750000Y-134600000D02*
X239250000Y-134600000D01*
X236750000Y-139600000D02*
X236750000Y-134600000D01*
X239250000Y-134600000D02*
X239250000Y-139600000D01*
X239250000Y-139600000D02*
X236750000Y-139600000D01*
%TO.C,R21*%
X241530000Y-134472500D02*
X242070000Y-134472500D01*
X241530000Y-135522500D02*
X241530000Y-134472500D01*
X242070000Y-134472500D02*
X242070000Y-135522500D01*
X242070000Y-135522500D02*
X241530000Y-135522500D01*
%TO.C,D3*%
X251000000Y-140000000D02*
X253900000Y-140000000D01*
X251000000Y-141600000D02*
X251000000Y-140000000D01*
X253900000Y-140000000D02*
X253900000Y-141600000D01*
X253900000Y-140650000D02*
X252950000Y-141600000D01*
X253900000Y-141600000D02*
X251000000Y-141600000D01*
%TO.C,U1*%
X210575000Y-114585000D02*
X214475000Y-114585000D01*
X210575000Y-123235000D02*
X210575000Y-114585000D01*
X213205000Y-114585000D02*
X214475000Y-115855000D01*
X214475000Y-114585000D02*
X214475000Y-123235000D01*
X214475000Y-123235000D02*
X210575000Y-123235000D01*
%TO.C,R33*%
X252087500Y-158687500D02*
X253687500Y-158687500D01*
X252087500Y-159512500D02*
X252087500Y-158687500D01*
X253687500Y-158687500D02*
X253687500Y-159512500D01*
X253687500Y-159512500D02*
X252087500Y-159512500D01*
%TO.C,C25*%
X229075000Y-117300000D02*
X230325000Y-117300000D01*
X229075000Y-119300000D02*
X229075000Y-117300000D01*
X230325000Y-117300000D02*
X230325000Y-119300000D01*
X230325000Y-119300000D02*
X229075000Y-119300000D01*
%TO.C,R34*%
X217875000Y-162000000D02*
X219125000Y-162000000D01*
X217875000Y-164000000D02*
X217875000Y-162000000D01*
X219125000Y-162000000D02*
X219125000Y-164000000D01*
X219125000Y-164000000D02*
X217875000Y-164000000D01*
%TO.C,C23*%
X260720000Y-155875000D02*
X262720000Y-155875000D01*
X260720000Y-157125000D02*
X260720000Y-155875000D01*
X262720000Y-155875000D02*
X262720000Y-157125000D01*
X262720000Y-157125000D02*
X260720000Y-157125000D01*
%TO.C,L2*%
X218600000Y-137200000D02*
X230900000Y-137200000D01*
X218600000Y-149500000D02*
X218600000Y-137200000D01*
X230900000Y-137200000D02*
X230900000Y-149500000D01*
X230900000Y-149500000D02*
X218600000Y-149500000D01*
%TO.C,U4*%
X233952000Y-122248000D02*
X237848000Y-122248000D01*
X233952000Y-127152000D02*
X233952000Y-122248000D01*
X235222000Y-127152000D02*
X233952000Y-125882000D01*
X237848000Y-122248000D02*
X237848000Y-127152000D01*
X237848000Y-127152000D02*
X233952000Y-127152000D01*
%TO.C,R27*%
X242775000Y-151030000D02*
X243825000Y-151030000D01*
X242775000Y-151570000D02*
X242775000Y-151030000D01*
X243825000Y-151030000D02*
X243825000Y-151570000D01*
X243825000Y-151570000D02*
X242775000Y-151570000D01*
%TO.C,D4*%
X247500000Y-126900000D02*
X250300000Y-126900000D01*
X247500000Y-128700000D02*
X247500000Y-126900000D01*
X248550000Y-127250000D02*
X248550000Y-127800000D01*
X248550000Y-127800000D02*
X248150000Y-127800000D01*
X248550000Y-127800000D02*
X249150000Y-127400000D01*
X248550000Y-128350000D02*
X248550000Y-127800000D01*
X249150000Y-127400000D02*
X249150000Y-128200000D01*
X249150000Y-128200000D02*
X248550000Y-127800000D01*
X249650000Y-127800000D02*
X249150000Y-127800000D01*
X250300000Y-126900000D02*
X250300000Y-128700000D01*
X250300000Y-128700000D02*
X247500000Y-128700000D01*
%TO.C,C26*%
X205975000Y-116600000D02*
X207225000Y-116600000D01*
X205975000Y-118600000D02*
X205975000Y-116600000D01*
X207225000Y-116600000D02*
X207225000Y-118600000D01*
X207225000Y-118600000D02*
X205975000Y-118600000D01*
%TO.C,C24*%
X236075000Y-117362500D02*
X237325000Y-117362500D01*
X236075000Y-119362500D02*
X236075000Y-117362500D01*
X237325000Y-117362500D02*
X237325000Y-119362500D01*
X237325000Y-119362500D02*
X236075000Y-119362500D01*
%TO.C,R19*%
X230930000Y-125477500D02*
X231470000Y-125477500D01*
X230930000Y-126527500D02*
X230930000Y-125477500D01*
X231470000Y-125477500D02*
X231470000Y-126527500D01*
X231470000Y-126527500D02*
X230930000Y-126527500D01*
%TO.C,Q2*%
X243700000Y-167300000D02*
X246700000Y-167300000D01*
X243700000Y-170300000D02*
X243700000Y-167300000D01*
X246700000Y-167300000D02*
X246700000Y-170300000D01*
X246700000Y-170300000D02*
X243700000Y-170300000D01*
%TO.C,R28*%
X238175000Y-149530000D02*
X239225000Y-149530000D01*
X238175000Y-150070000D02*
X238175000Y-149530000D01*
X239225000Y-149530000D02*
X239225000Y-150070000D01*
X239225000Y-150070000D02*
X238175000Y-150070000D01*
%TO.C,C34*%
X237200000Y-161875000D02*
X239200000Y-161875000D01*
X237200000Y-163125000D02*
X237200000Y-161875000D01*
X239200000Y-161875000D02*
X239200000Y-163125000D01*
X239200000Y-163125000D02*
X237200000Y-163125000D01*
%TO.C,Q1*%
X223325000Y-114863000D02*
X226325000Y-114863000D01*
X223325000Y-117863000D02*
X223325000Y-114863000D01*
X226325000Y-114863000D02*
X226325000Y-117863000D01*
X226325000Y-117863000D02*
X223325000Y-117863000D01*
%TO.C,R23*%
X259587500Y-146800000D02*
X260412500Y-146800000D01*
X259587500Y-148400000D02*
X259587500Y-146800000D01*
X260412500Y-146800000D02*
X260412500Y-148400000D01*
X260412500Y-148400000D02*
X259587500Y-148400000D01*
%TO.C,D5*%
X260000000Y-150100000D02*
X262800000Y-150100000D01*
X260000000Y-151900000D02*
X260000000Y-150100000D01*
X261050000Y-150450000D02*
X261050000Y-151000000D01*
X261050000Y-151000000D02*
X260650000Y-151000000D01*
X261050000Y-151000000D02*
X261650000Y-150600000D01*
X261050000Y-151550000D02*
X261050000Y-151000000D01*
X261650000Y-150600000D02*
X261650000Y-151400000D01*
X261650000Y-151400000D02*
X261050000Y-151000000D01*
X262150000Y-151000000D02*
X261650000Y-151000000D01*
X262800000Y-150100000D02*
X262800000Y-151900000D01*
X262800000Y-151900000D02*
X260000000Y-151900000D01*
%TO.C,C22*%
X260720000Y-153075000D02*
X262720000Y-153075000D01*
X260720000Y-154325000D02*
X260720000Y-153075000D01*
X262720000Y-153075000D02*
X262720000Y-154325000D01*
X262720000Y-154325000D02*
X260720000Y-154325000D01*
%TO.C,C20*%
X247600000Y-129975000D02*
X249600000Y-129975000D01*
X247600000Y-131225000D02*
X247600000Y-129975000D01*
X249600000Y-129975000D02*
X249600000Y-131225000D01*
X249600000Y-131225000D02*
X247600000Y-131225000D01*
%TO.C,R24*%
X231955000Y-117300000D02*
X234445000Y-117300000D01*
X231955000Y-120500000D02*
X231955000Y-117300000D01*
X234445000Y-117300000D02*
X234445000Y-120500000D01*
X234445000Y-120500000D02*
X231955000Y-120500000D01*
%TO.C,C21*%
X247600000Y-133375000D02*
X249600000Y-133375000D01*
X247600000Y-134625000D02*
X247600000Y-133375000D01*
X249600000Y-133375000D02*
X249600000Y-134625000D01*
X249600000Y-134625000D02*
X247600000Y-134625000D01*
%TO.C,R16*%
X233900000Y-127950000D02*
X238900000Y-127950000D01*
X233900000Y-130450000D02*
X233900000Y-127950000D01*
X238900000Y-127950000D02*
X238900000Y-130450000D01*
X238900000Y-130450000D02*
X233900000Y-130450000D01*
%TO.C,R32*%
X252087500Y-169687500D02*
X253687500Y-169687500D01*
X252087500Y-170512500D02*
X252087500Y-169687500D01*
X253687500Y-169687500D02*
X253687500Y-170512500D01*
X253687500Y-170512500D02*
X252087500Y-170512500D01*
%TO.C,R31*%
X252087500Y-164187500D02*
X253687500Y-164187500D01*
X252087500Y-165012500D02*
X252087500Y-164187500D01*
X253687500Y-164187500D02*
X253687500Y-165012500D01*
X253687500Y-165012500D02*
X252087500Y-165012500D01*
%TO.C,J4*%
X257750000Y-129225000D02*
X266750000Y-129225000D01*
X257750000Y-136925000D02*
X257750000Y-129225000D01*
X266750000Y-129225000D02*
X266750000Y-136925000D01*
X266750000Y-136925000D02*
X257750000Y-136925000D01*
%TD*%
M02*
