%TF.GenerationSoftware,KiCad,Pcbnew,8.0.7*%
%TF.CreationDate,2025-05-08T16:31:26-05:00*%
%TF.ProjectId,OU_AIMNet_MPPT_v1.0,4f555f41-494d-44e6-9574-5f4d5050545f,rev?*%
%TF.SameCoordinates,Original*%
%TF.FileFunction,Legend,Bot*%
%TF.FilePolarity,Positive*%
%FSLAX46Y46*%
G04 Gerber Fmt 4.6, Leading zero omitted, Abs format (unit mm)*
G04 Created by KiCad (PCBNEW 8.0.7) date 2025-05-08 16:31:26*
%MOMM*%
%LPD*%
G01*
G04 APERTURE LIST*
%ADD10C,2.000000*%
%ADD11C,0.100000*%
%ADD12C,0.150000*%
%ADD13C,0.254000*%
%ADD14C,0.120000*%
%ADD15C,0.200000*%
G04 APERTURE END LIST*
D10*
X268500000Y-172500000D02*
X268500000Y-111500000D01*
X200500000Y-172500000D02*
X200500000Y-111500000D01*
D11*
G36*
X255422419Y-136953983D02*
G01*
X255383708Y-137031405D01*
X255347561Y-137067551D01*
X255270139Y-137106263D01*
X255150889Y-137106263D01*
X255073465Y-137067551D01*
X255039929Y-137034016D01*
X254998609Y-136910054D01*
X254998609Y-136634835D01*
X255422419Y-136634835D01*
X255422419Y-136953983D01*
G37*
G36*
X254898609Y-136906364D02*
G01*
X254859897Y-136983787D01*
X254823753Y-137019932D01*
X254746330Y-137058644D01*
X254674699Y-137058644D01*
X254597275Y-137019932D01*
X254561130Y-136983788D01*
X254522419Y-136906365D01*
X254522419Y-136634835D01*
X254898609Y-136634835D01*
X254898609Y-136906364D01*
G37*
G36*
X255422419Y-131573032D02*
G01*
X255383708Y-131650454D01*
X255347561Y-131686600D01*
X255270139Y-131725312D01*
X255150889Y-131725312D01*
X255073465Y-131686600D01*
X255039929Y-131653065D01*
X254998609Y-131529103D01*
X254998609Y-131253884D01*
X255422419Y-131253884D01*
X255422419Y-131573032D01*
G37*
G36*
X254898609Y-131525413D02*
G01*
X254859897Y-131602836D01*
X254823753Y-131638981D01*
X254746330Y-131677693D01*
X254674699Y-131677693D01*
X254597275Y-131638981D01*
X254561130Y-131602837D01*
X254522419Y-131525414D01*
X254522419Y-131253884D01*
X254898609Y-131253884D01*
X254898609Y-131525413D01*
G37*
G36*
X255633530Y-137317374D02*
G01*
X254311308Y-137317374D01*
X254311308Y-136584835D01*
X254422419Y-136584835D01*
X254422419Y-136918168D01*
X254422907Y-136920624D01*
X254422545Y-136921713D01*
X254424661Y-136929440D01*
X254426225Y-136937302D01*
X254427036Y-136938113D01*
X254427698Y-136940529D01*
X254475316Y-137035766D01*
X254480231Y-137042099D01*
X254484683Y-137048761D01*
X254532301Y-137096380D01*
X254538967Y-137100834D01*
X254545296Y-137105746D01*
X254640534Y-137153365D01*
X254642949Y-137154026D01*
X254643761Y-137154838D01*
X254651622Y-137156401D01*
X254659350Y-137158518D01*
X254660438Y-137158155D01*
X254662895Y-137158644D01*
X254758133Y-137158644D01*
X254760589Y-137158155D01*
X254761678Y-137158518D01*
X254769405Y-137156401D01*
X254777267Y-137154838D01*
X254778078Y-137154026D01*
X254780494Y-137153365D01*
X254875731Y-137105747D01*
X254882064Y-137100831D01*
X254888726Y-137096380D01*
X254936345Y-137048762D01*
X254938407Y-137045675D01*
X254948794Y-137076836D01*
X254950034Y-137079011D01*
X254950034Y-137080159D01*
X254954487Y-137086823D01*
X254958455Y-137093784D01*
X254959481Y-137094297D01*
X254960873Y-137096380D01*
X255008491Y-137143999D01*
X255015157Y-137148453D01*
X255021486Y-137153365D01*
X255116724Y-137200984D01*
X255119139Y-137201645D01*
X255119951Y-137202457D01*
X255127812Y-137204020D01*
X255135540Y-137206137D01*
X255136628Y-137205774D01*
X255139085Y-137206263D01*
X255281942Y-137206263D01*
X255284398Y-137205774D01*
X255285487Y-137206137D01*
X255293214Y-137204020D01*
X255301076Y-137202457D01*
X255301887Y-137201645D01*
X255304303Y-137200984D01*
X255399540Y-137153366D01*
X255405868Y-137148454D01*
X255412535Y-137144000D01*
X255460155Y-137096381D01*
X255464609Y-137089714D01*
X255469521Y-137083386D01*
X255517140Y-136988148D01*
X255517801Y-136985732D01*
X255518613Y-136984921D01*
X255520176Y-136977059D01*
X255522293Y-136969332D01*
X255521930Y-136968243D01*
X255522419Y-136965787D01*
X255522419Y-136584835D01*
X255518613Y-136565701D01*
X255491553Y-136538641D01*
X255472419Y-136534835D01*
X254472419Y-136534835D01*
X254453285Y-136538641D01*
X254426225Y-136565701D01*
X254422419Y-136584835D01*
X254311308Y-136584835D01*
X254311308Y-136089511D01*
X254426225Y-136089511D01*
X254426225Y-136127779D01*
X254453285Y-136154839D01*
X254472419Y-136158645D01*
X255472419Y-136158645D01*
X255491553Y-136154839D01*
X255518613Y-136127779D01*
X255518613Y-136089511D01*
X255491553Y-136062451D01*
X255472419Y-136058645D01*
X254472419Y-136058645D01*
X254453285Y-136062451D01*
X254426225Y-136089511D01*
X254311308Y-136089511D01*
X254311308Y-135054720D01*
X254422818Y-135054720D01*
X254426225Y-135067212D01*
X254426225Y-135080160D01*
X254431079Y-135085014D01*
X254432887Y-135091641D01*
X254447612Y-135104438D01*
X255284141Y-135582454D01*
X254472419Y-135582454D01*
X254453285Y-135586260D01*
X254426225Y-135613320D01*
X254426225Y-135651588D01*
X254453285Y-135678648D01*
X254472419Y-135682454D01*
X255472419Y-135682454D01*
X255491553Y-135678648D01*
X255496407Y-135673793D01*
X255503034Y-135671986D01*
X255509459Y-135660741D01*
X255518613Y-135651588D01*
X255518613Y-135644722D01*
X255522020Y-135638760D01*
X255518613Y-135626267D01*
X255518613Y-135613320D01*
X255513757Y-135608464D01*
X255511951Y-135601840D01*
X255497226Y-135589042D01*
X254660697Y-135111026D01*
X255472419Y-135111026D01*
X255491553Y-135107220D01*
X255518613Y-135080160D01*
X255518613Y-135041892D01*
X255491553Y-135014832D01*
X255472419Y-135011026D01*
X254472419Y-135011026D01*
X254453285Y-135014832D01*
X254448430Y-135019686D01*
X254441804Y-135021494D01*
X254435378Y-135032738D01*
X254426225Y-135041892D01*
X254426225Y-135048757D01*
X254422818Y-135054720D01*
X254311308Y-135054720D01*
X254311308Y-134565702D01*
X254426225Y-134565702D01*
X254426225Y-134603970D01*
X254453285Y-134631030D01*
X254472419Y-134634836D01*
X255472419Y-134634836D01*
X255491553Y-134631030D01*
X255518613Y-134603970D01*
X255518613Y-134565702D01*
X255491553Y-134538642D01*
X255472419Y-134534836D01*
X254472419Y-134534836D01*
X254453285Y-134538642D01*
X254426225Y-134565702D01*
X254311308Y-134565702D01*
X254311308Y-133439783D01*
X254422467Y-133439783D01*
X254426225Y-133450117D01*
X254426225Y-133461113D01*
X254432507Y-133467395D01*
X254435545Y-133475748D01*
X254451275Y-133487288D01*
X255068469Y-133775312D01*
X254451275Y-134063336D01*
X254435545Y-134074876D01*
X254432507Y-134083228D01*
X254426225Y-134089511D01*
X254426225Y-134100506D01*
X254422467Y-134110841D01*
X254426225Y-134118893D01*
X254426225Y-134127779D01*
X254433999Y-134135553D01*
X254438650Y-134145519D01*
X254447002Y-134148556D01*
X254453285Y-134154839D01*
X254472419Y-134158645D01*
X255472419Y-134158645D01*
X255491553Y-134154839D01*
X255518613Y-134127779D01*
X255518613Y-134089511D01*
X255491553Y-134062451D01*
X255472419Y-134058645D01*
X254697797Y-134058645D01*
X255207849Y-133820621D01*
X255218238Y-133812998D01*
X255220473Y-133812186D01*
X255221059Y-133810928D01*
X255223578Y-133809081D01*
X255229422Y-133793008D01*
X255236656Y-133777508D01*
X255235857Y-133775312D01*
X255236656Y-133773116D01*
X255229422Y-133757615D01*
X255223578Y-133741543D01*
X255221059Y-133739695D01*
X255220473Y-133738438D01*
X255218238Y-133737625D01*
X255207849Y-133730003D01*
X254697797Y-133491979D01*
X255472419Y-133491979D01*
X255491553Y-133488173D01*
X255518613Y-133461113D01*
X255518613Y-133422845D01*
X255491553Y-133395785D01*
X255472419Y-133391979D01*
X254472419Y-133391979D01*
X254453285Y-133395785D01*
X254447002Y-133402067D01*
X254438650Y-133405105D01*
X254433999Y-133415070D01*
X254426225Y-133422845D01*
X254426225Y-133431730D01*
X254422467Y-133439783D01*
X254311308Y-133439783D01*
X254311308Y-132203884D01*
X255041466Y-132203884D01*
X255041466Y-132965789D01*
X255045272Y-132984923D01*
X255072332Y-133011983D01*
X255110600Y-133011983D01*
X255137660Y-132984923D01*
X255141466Y-132965789D01*
X255141466Y-132203884D01*
X255137660Y-132184750D01*
X255110600Y-132157690D01*
X255072332Y-132157690D01*
X255045272Y-132184750D01*
X255041466Y-132203884D01*
X254311308Y-132203884D01*
X254311308Y-131203884D01*
X254422419Y-131203884D01*
X254422419Y-131537217D01*
X254422907Y-131539673D01*
X254422545Y-131540762D01*
X254424661Y-131548489D01*
X254426225Y-131556351D01*
X254427036Y-131557162D01*
X254427698Y-131559578D01*
X254475316Y-131654815D01*
X254480231Y-131661148D01*
X254484683Y-131667810D01*
X254532301Y-131715429D01*
X254538967Y-131719883D01*
X254545296Y-131724795D01*
X254640534Y-131772414D01*
X254642949Y-131773075D01*
X254643761Y-131773887D01*
X254651622Y-131775450D01*
X254659350Y-131777567D01*
X254660438Y-131777204D01*
X254662895Y-131777693D01*
X254758133Y-131777693D01*
X254760589Y-131777204D01*
X254761678Y-131777567D01*
X254769405Y-131775450D01*
X254777267Y-131773887D01*
X254778078Y-131773075D01*
X254780494Y-131772414D01*
X254875731Y-131724796D01*
X254882064Y-131719880D01*
X254888726Y-131715429D01*
X254936345Y-131667811D01*
X254938407Y-131664724D01*
X254948794Y-131695885D01*
X254950034Y-131698060D01*
X254950034Y-131699208D01*
X254954487Y-131705872D01*
X254958455Y-131712833D01*
X254959481Y-131713346D01*
X254960873Y-131715429D01*
X255008491Y-131763048D01*
X255015157Y-131767502D01*
X255021486Y-131772414D01*
X255116724Y-131820033D01*
X255119139Y-131820694D01*
X255119951Y-131821506D01*
X255127812Y-131823069D01*
X255135540Y-131825186D01*
X255136628Y-131824823D01*
X255139085Y-131825312D01*
X255281942Y-131825312D01*
X255284398Y-131824823D01*
X255285487Y-131825186D01*
X255293214Y-131823069D01*
X255301076Y-131821506D01*
X255301887Y-131820694D01*
X255304303Y-131820033D01*
X255399540Y-131772415D01*
X255405868Y-131767503D01*
X255412535Y-131763049D01*
X255460155Y-131715430D01*
X255464609Y-131708763D01*
X255469521Y-131702435D01*
X255517140Y-131607197D01*
X255517801Y-131604781D01*
X255518613Y-131603970D01*
X255520176Y-131596108D01*
X255522293Y-131588381D01*
X255521930Y-131587292D01*
X255522419Y-131584836D01*
X255522419Y-131203884D01*
X255518613Y-131184750D01*
X255491553Y-131157690D01*
X255472419Y-131153884D01*
X254472419Y-131153884D01*
X254453285Y-131157690D01*
X254426225Y-131184750D01*
X254422419Y-131203884D01*
X254311308Y-131203884D01*
X254311308Y-130394360D01*
X254422419Y-130394360D01*
X254422419Y-130632455D01*
X254423982Y-130640317D01*
X254424985Y-130648266D01*
X254472604Y-130791123D01*
X254482265Y-130808071D01*
X254516494Y-130825186D01*
X254552798Y-130813084D01*
X254569912Y-130778856D01*
X254567472Y-130759500D01*
X254522419Y-130624341D01*
X254522419Y-130406163D01*
X254561130Y-130328739D01*
X254597275Y-130292595D01*
X254674699Y-130253884D01*
X254746330Y-130253884D01*
X254823753Y-130292595D01*
X254859897Y-130328740D01*
X254901433Y-130411812D01*
X254947721Y-130596963D01*
X254950060Y-130601915D01*
X254951507Y-130607197D01*
X254999125Y-130702434D01*
X255004040Y-130708767D01*
X255008492Y-130715429D01*
X255056110Y-130763048D01*
X255062776Y-130767502D01*
X255069105Y-130772414D01*
X255164343Y-130820033D01*
X255166758Y-130820694D01*
X255167570Y-130821506D01*
X255175431Y-130823069D01*
X255183159Y-130825186D01*
X255184247Y-130824823D01*
X255186704Y-130825312D01*
X255281942Y-130825312D01*
X255284398Y-130824823D01*
X255285487Y-130825186D01*
X255293214Y-130823069D01*
X255301076Y-130821506D01*
X255301887Y-130820694D01*
X255304303Y-130820033D01*
X255399540Y-130772415D01*
X255405868Y-130767503D01*
X255412535Y-130763049D01*
X255460155Y-130715430D01*
X255464609Y-130708763D01*
X255469521Y-130702435D01*
X255517140Y-130607197D01*
X255517801Y-130604781D01*
X255518613Y-130603970D01*
X255520176Y-130596108D01*
X255522293Y-130588381D01*
X255521930Y-130587292D01*
X255522419Y-130584836D01*
X255522419Y-130346741D01*
X255520855Y-130338879D01*
X255519853Y-130330929D01*
X255472234Y-130188073D01*
X255462573Y-130171124D01*
X255428344Y-130154010D01*
X255392040Y-130166111D01*
X255374926Y-130200340D01*
X255377366Y-130219695D01*
X255422419Y-130354854D01*
X255422419Y-130573032D01*
X255383708Y-130650454D01*
X255347561Y-130686600D01*
X255270139Y-130725312D01*
X255198508Y-130725312D01*
X255121084Y-130686600D01*
X255084939Y-130650456D01*
X255043404Y-130567385D01*
X254997116Y-130382233D01*
X254994776Y-130377280D01*
X254993330Y-130371999D01*
X254945711Y-130276761D01*
X254940799Y-130270432D01*
X254936345Y-130263766D01*
X254888726Y-130216148D01*
X254882064Y-130211696D01*
X254875731Y-130206781D01*
X254780494Y-130159163D01*
X254778078Y-130158501D01*
X254777267Y-130157690D01*
X254769405Y-130156126D01*
X254761678Y-130154010D01*
X254760589Y-130154372D01*
X254758133Y-130153884D01*
X254662895Y-130153884D01*
X254660438Y-130154372D01*
X254659350Y-130154010D01*
X254651622Y-130156126D01*
X254643761Y-130157690D01*
X254642949Y-130158501D01*
X254640534Y-130159163D01*
X254545296Y-130206782D01*
X254538967Y-130211693D01*
X254532301Y-130216148D01*
X254484683Y-130263767D01*
X254480231Y-130270428D01*
X254475316Y-130276762D01*
X254427698Y-130371999D01*
X254427036Y-130374414D01*
X254426225Y-130375226D01*
X254424661Y-130383087D01*
X254422545Y-130390815D01*
X254422907Y-130391903D01*
X254422419Y-130394360D01*
X254311308Y-130394360D01*
X254311308Y-129184750D01*
X254426225Y-129184750D01*
X254426225Y-129223018D01*
X254453285Y-129250078D01*
X254472419Y-129253884D01*
X255270139Y-129253884D01*
X255347561Y-129292595D01*
X255383708Y-129328741D01*
X255422419Y-129406163D01*
X255422419Y-129573032D01*
X255383708Y-129650454D01*
X255347561Y-129686600D01*
X255270139Y-129725312D01*
X254472419Y-129725312D01*
X254453285Y-129729118D01*
X254426225Y-129756178D01*
X254426225Y-129794446D01*
X254453285Y-129821506D01*
X254472419Y-129825312D01*
X255281942Y-129825312D01*
X255284398Y-129824823D01*
X255285487Y-129825186D01*
X255293214Y-129823069D01*
X255301076Y-129821506D01*
X255301887Y-129820694D01*
X255304303Y-129820033D01*
X255399540Y-129772415D01*
X255405868Y-129767503D01*
X255412535Y-129763049D01*
X255460155Y-129715430D01*
X255464609Y-129708763D01*
X255469521Y-129702435D01*
X255517140Y-129607197D01*
X255517801Y-129604781D01*
X255518613Y-129603970D01*
X255520176Y-129596108D01*
X255522293Y-129588381D01*
X255521930Y-129587292D01*
X255522419Y-129584836D01*
X255522419Y-129394360D01*
X255521930Y-129391903D01*
X255522293Y-129390815D01*
X255520176Y-129383087D01*
X255518613Y-129375226D01*
X255517801Y-129374414D01*
X255517140Y-129371999D01*
X255469521Y-129276761D01*
X255464609Y-129270432D01*
X255460155Y-129263766D01*
X255412535Y-129216147D01*
X255405868Y-129211692D01*
X255399540Y-129206781D01*
X255304303Y-129159163D01*
X255301887Y-129158501D01*
X255301076Y-129157690D01*
X255293214Y-129156126D01*
X255285487Y-129154010D01*
X255284398Y-129154372D01*
X255281942Y-129153884D01*
X254472419Y-129153884D01*
X254453285Y-129157690D01*
X254426225Y-129184750D01*
X254311308Y-129184750D01*
X254311308Y-129042773D01*
X255633530Y-129042773D01*
X255633530Y-137317374D01*
G37*
D12*
X236642857Y-170359580D02*
X236690476Y-170407200D01*
X236690476Y-170407200D02*
X236833333Y-170454819D01*
X236833333Y-170454819D02*
X236928571Y-170454819D01*
X236928571Y-170454819D02*
X237071428Y-170407200D01*
X237071428Y-170407200D02*
X237166666Y-170311961D01*
X237166666Y-170311961D02*
X237214285Y-170216723D01*
X237214285Y-170216723D02*
X237261904Y-170026247D01*
X237261904Y-170026247D02*
X237261904Y-169883390D01*
X237261904Y-169883390D02*
X237214285Y-169692914D01*
X237214285Y-169692914D02*
X237166666Y-169597676D01*
X237166666Y-169597676D02*
X237071428Y-169502438D01*
X237071428Y-169502438D02*
X236928571Y-169454819D01*
X236928571Y-169454819D02*
X236833333Y-169454819D01*
X236833333Y-169454819D02*
X236690476Y-169502438D01*
X236690476Y-169502438D02*
X236642857Y-169550057D01*
X236309523Y-169454819D02*
X235690476Y-169454819D01*
X235690476Y-169454819D02*
X236023809Y-169835771D01*
X236023809Y-169835771D02*
X235880952Y-169835771D01*
X235880952Y-169835771D02*
X235785714Y-169883390D01*
X235785714Y-169883390D02*
X235738095Y-169931009D01*
X235738095Y-169931009D02*
X235690476Y-170026247D01*
X235690476Y-170026247D02*
X235690476Y-170264342D01*
X235690476Y-170264342D02*
X235738095Y-170359580D01*
X235738095Y-170359580D02*
X235785714Y-170407200D01*
X235785714Y-170407200D02*
X235880952Y-170454819D01*
X235880952Y-170454819D02*
X236166666Y-170454819D01*
X236166666Y-170454819D02*
X236261904Y-170407200D01*
X236261904Y-170407200D02*
X236309523Y-170359580D01*
X234785714Y-169454819D02*
X235261904Y-169454819D01*
X235261904Y-169454819D02*
X235309523Y-169931009D01*
X235309523Y-169931009D02*
X235261904Y-169883390D01*
X235261904Y-169883390D02*
X235166666Y-169835771D01*
X235166666Y-169835771D02*
X234928571Y-169835771D01*
X234928571Y-169835771D02*
X234833333Y-169883390D01*
X234833333Y-169883390D02*
X234785714Y-169931009D01*
X234785714Y-169931009D02*
X234738095Y-170026247D01*
X234738095Y-170026247D02*
X234738095Y-170264342D01*
X234738095Y-170264342D02*
X234785714Y-170359580D01*
X234785714Y-170359580D02*
X234833333Y-170407200D01*
X234833333Y-170407200D02*
X234928571Y-170454819D01*
X234928571Y-170454819D02*
X235166666Y-170454819D01*
X235166666Y-170454819D02*
X235261904Y-170407200D01*
X235261904Y-170407200D02*
X235309523Y-170359580D01*
X211880357Y-141959580D02*
X211927976Y-142007200D01*
X211927976Y-142007200D02*
X212070833Y-142054819D01*
X212070833Y-142054819D02*
X212166071Y-142054819D01*
X212166071Y-142054819D02*
X212308928Y-142007200D01*
X212308928Y-142007200D02*
X212404166Y-141911961D01*
X212404166Y-141911961D02*
X212451785Y-141816723D01*
X212451785Y-141816723D02*
X212499404Y-141626247D01*
X212499404Y-141626247D02*
X212499404Y-141483390D01*
X212499404Y-141483390D02*
X212451785Y-141292914D01*
X212451785Y-141292914D02*
X212404166Y-141197676D01*
X212404166Y-141197676D02*
X212308928Y-141102438D01*
X212308928Y-141102438D02*
X212166071Y-141054819D01*
X212166071Y-141054819D02*
X212070833Y-141054819D01*
X212070833Y-141054819D02*
X211927976Y-141102438D01*
X211927976Y-141102438D02*
X211880357Y-141150057D01*
X211499404Y-141150057D02*
X211451785Y-141102438D01*
X211451785Y-141102438D02*
X211356547Y-141054819D01*
X211356547Y-141054819D02*
X211118452Y-141054819D01*
X211118452Y-141054819D02*
X211023214Y-141102438D01*
X211023214Y-141102438D02*
X210975595Y-141150057D01*
X210975595Y-141150057D02*
X210927976Y-141245295D01*
X210927976Y-141245295D02*
X210927976Y-141340533D01*
X210927976Y-141340533D02*
X210975595Y-141483390D01*
X210975595Y-141483390D02*
X211547023Y-142054819D01*
X211547023Y-142054819D02*
X210927976Y-142054819D01*
X210594642Y-141054819D02*
X209927976Y-141054819D01*
X209927976Y-141054819D02*
X210356547Y-142054819D01*
X209842857Y-128554819D02*
X210176190Y-128078628D01*
X210414285Y-128554819D02*
X210414285Y-127554819D01*
X210414285Y-127554819D02*
X210033333Y-127554819D01*
X210033333Y-127554819D02*
X209938095Y-127602438D01*
X209938095Y-127602438D02*
X209890476Y-127650057D01*
X209890476Y-127650057D02*
X209842857Y-127745295D01*
X209842857Y-127745295D02*
X209842857Y-127888152D01*
X209842857Y-127888152D02*
X209890476Y-127983390D01*
X209890476Y-127983390D02*
X209938095Y-128031009D01*
X209938095Y-128031009D02*
X210033333Y-128078628D01*
X210033333Y-128078628D02*
X210414285Y-128078628D01*
X209461904Y-127650057D02*
X209414285Y-127602438D01*
X209414285Y-127602438D02*
X209319047Y-127554819D01*
X209319047Y-127554819D02*
X209080952Y-127554819D01*
X209080952Y-127554819D02*
X208985714Y-127602438D01*
X208985714Y-127602438D02*
X208938095Y-127650057D01*
X208938095Y-127650057D02*
X208890476Y-127745295D01*
X208890476Y-127745295D02*
X208890476Y-127840533D01*
X208890476Y-127840533D02*
X208938095Y-127983390D01*
X208938095Y-127983390D02*
X209509523Y-128554819D01*
X209509523Y-128554819D02*
X208890476Y-128554819D01*
X208033333Y-127554819D02*
X208223809Y-127554819D01*
X208223809Y-127554819D02*
X208319047Y-127602438D01*
X208319047Y-127602438D02*
X208366666Y-127650057D01*
X208366666Y-127650057D02*
X208461904Y-127792914D01*
X208461904Y-127792914D02*
X208509523Y-127983390D01*
X208509523Y-127983390D02*
X208509523Y-128364342D01*
X208509523Y-128364342D02*
X208461904Y-128459580D01*
X208461904Y-128459580D02*
X208414285Y-128507200D01*
X208414285Y-128507200D02*
X208319047Y-128554819D01*
X208319047Y-128554819D02*
X208128571Y-128554819D01*
X208128571Y-128554819D02*
X208033333Y-128507200D01*
X208033333Y-128507200D02*
X207985714Y-128459580D01*
X207985714Y-128459580D02*
X207938095Y-128364342D01*
X207938095Y-128364342D02*
X207938095Y-128126247D01*
X207938095Y-128126247D02*
X207985714Y-128031009D01*
X207985714Y-128031009D02*
X208033333Y-127983390D01*
X208033333Y-127983390D02*
X208128571Y-127935771D01*
X208128571Y-127935771D02*
X208319047Y-127935771D01*
X208319047Y-127935771D02*
X208414285Y-127983390D01*
X208414285Y-127983390D02*
X208461904Y-128031009D01*
X208461904Y-128031009D02*
X208509523Y-128126247D01*
X221942857Y-123159580D02*
X221990476Y-123207200D01*
X221990476Y-123207200D02*
X222133333Y-123254819D01*
X222133333Y-123254819D02*
X222228571Y-123254819D01*
X222228571Y-123254819D02*
X222371428Y-123207200D01*
X222371428Y-123207200D02*
X222466666Y-123111961D01*
X222466666Y-123111961D02*
X222514285Y-123016723D01*
X222514285Y-123016723D02*
X222561904Y-122826247D01*
X222561904Y-122826247D02*
X222561904Y-122683390D01*
X222561904Y-122683390D02*
X222514285Y-122492914D01*
X222514285Y-122492914D02*
X222466666Y-122397676D01*
X222466666Y-122397676D02*
X222371428Y-122302438D01*
X222371428Y-122302438D02*
X222228571Y-122254819D01*
X222228571Y-122254819D02*
X222133333Y-122254819D01*
X222133333Y-122254819D02*
X221990476Y-122302438D01*
X221990476Y-122302438D02*
X221942857Y-122350057D01*
X221609523Y-122254819D02*
X220990476Y-122254819D01*
X220990476Y-122254819D02*
X221323809Y-122635771D01*
X221323809Y-122635771D02*
X221180952Y-122635771D01*
X221180952Y-122635771D02*
X221085714Y-122683390D01*
X221085714Y-122683390D02*
X221038095Y-122731009D01*
X221038095Y-122731009D02*
X220990476Y-122826247D01*
X220990476Y-122826247D02*
X220990476Y-123064342D01*
X220990476Y-123064342D02*
X221038095Y-123159580D01*
X221038095Y-123159580D02*
X221085714Y-123207200D01*
X221085714Y-123207200D02*
X221180952Y-123254819D01*
X221180952Y-123254819D02*
X221466666Y-123254819D01*
X221466666Y-123254819D02*
X221561904Y-123207200D01*
X221561904Y-123207200D02*
X221609523Y-123159580D01*
X220371428Y-122254819D02*
X220276190Y-122254819D01*
X220276190Y-122254819D02*
X220180952Y-122302438D01*
X220180952Y-122302438D02*
X220133333Y-122350057D01*
X220133333Y-122350057D02*
X220085714Y-122445295D01*
X220085714Y-122445295D02*
X220038095Y-122635771D01*
X220038095Y-122635771D02*
X220038095Y-122873866D01*
X220038095Y-122873866D02*
X220085714Y-123064342D01*
X220085714Y-123064342D02*
X220133333Y-123159580D01*
X220133333Y-123159580D02*
X220180952Y-123207200D01*
X220180952Y-123207200D02*
X220276190Y-123254819D01*
X220276190Y-123254819D02*
X220371428Y-123254819D01*
X220371428Y-123254819D02*
X220466666Y-123207200D01*
X220466666Y-123207200D02*
X220514285Y-123159580D01*
X220514285Y-123159580D02*
X220561904Y-123064342D01*
X220561904Y-123064342D02*
X220609523Y-122873866D01*
X220609523Y-122873866D02*
X220609523Y-122635771D01*
X220609523Y-122635771D02*
X220561904Y-122445295D01*
X220561904Y-122445295D02*
X220514285Y-122350057D01*
X220514285Y-122350057D02*
X220466666Y-122302438D01*
X220466666Y-122302438D02*
X220371428Y-122254819D01*
X221942857Y-128959580D02*
X221990476Y-129007200D01*
X221990476Y-129007200D02*
X222133333Y-129054819D01*
X222133333Y-129054819D02*
X222228571Y-129054819D01*
X222228571Y-129054819D02*
X222371428Y-129007200D01*
X222371428Y-129007200D02*
X222466666Y-128911961D01*
X222466666Y-128911961D02*
X222514285Y-128816723D01*
X222514285Y-128816723D02*
X222561904Y-128626247D01*
X222561904Y-128626247D02*
X222561904Y-128483390D01*
X222561904Y-128483390D02*
X222514285Y-128292914D01*
X222514285Y-128292914D02*
X222466666Y-128197676D01*
X222466666Y-128197676D02*
X222371428Y-128102438D01*
X222371428Y-128102438D02*
X222228571Y-128054819D01*
X222228571Y-128054819D02*
X222133333Y-128054819D01*
X222133333Y-128054819D02*
X221990476Y-128102438D01*
X221990476Y-128102438D02*
X221942857Y-128150057D01*
X221561904Y-128150057D02*
X221514285Y-128102438D01*
X221514285Y-128102438D02*
X221419047Y-128054819D01*
X221419047Y-128054819D02*
X221180952Y-128054819D01*
X221180952Y-128054819D02*
X221085714Y-128102438D01*
X221085714Y-128102438D02*
X221038095Y-128150057D01*
X221038095Y-128150057D02*
X220990476Y-128245295D01*
X220990476Y-128245295D02*
X220990476Y-128340533D01*
X220990476Y-128340533D02*
X221038095Y-128483390D01*
X221038095Y-128483390D02*
X221609523Y-129054819D01*
X221609523Y-129054819D02*
X220990476Y-129054819D01*
X220514285Y-129054819D02*
X220323809Y-129054819D01*
X220323809Y-129054819D02*
X220228571Y-129007200D01*
X220228571Y-129007200D02*
X220180952Y-128959580D01*
X220180952Y-128959580D02*
X220085714Y-128816723D01*
X220085714Y-128816723D02*
X220038095Y-128626247D01*
X220038095Y-128626247D02*
X220038095Y-128245295D01*
X220038095Y-128245295D02*
X220085714Y-128150057D01*
X220085714Y-128150057D02*
X220133333Y-128102438D01*
X220133333Y-128102438D02*
X220228571Y-128054819D01*
X220228571Y-128054819D02*
X220419047Y-128054819D01*
X220419047Y-128054819D02*
X220514285Y-128102438D01*
X220514285Y-128102438D02*
X220561904Y-128150057D01*
X220561904Y-128150057D02*
X220609523Y-128245295D01*
X220609523Y-128245295D02*
X220609523Y-128483390D01*
X220609523Y-128483390D02*
X220561904Y-128578628D01*
X220561904Y-128578628D02*
X220514285Y-128626247D01*
X220514285Y-128626247D02*
X220419047Y-128673866D01*
X220419047Y-128673866D02*
X220228571Y-128673866D01*
X220228571Y-128673866D02*
X220133333Y-128626247D01*
X220133333Y-128626247D02*
X220085714Y-128578628D01*
X220085714Y-128578628D02*
X220038095Y-128483390D01*
X209842857Y-132354819D02*
X210176190Y-131878628D01*
X210414285Y-132354819D02*
X210414285Y-131354819D01*
X210414285Y-131354819D02*
X210033333Y-131354819D01*
X210033333Y-131354819D02*
X209938095Y-131402438D01*
X209938095Y-131402438D02*
X209890476Y-131450057D01*
X209890476Y-131450057D02*
X209842857Y-131545295D01*
X209842857Y-131545295D02*
X209842857Y-131688152D01*
X209842857Y-131688152D02*
X209890476Y-131783390D01*
X209890476Y-131783390D02*
X209938095Y-131831009D01*
X209938095Y-131831009D02*
X210033333Y-131878628D01*
X210033333Y-131878628D02*
X210414285Y-131878628D01*
X209461904Y-131450057D02*
X209414285Y-131402438D01*
X209414285Y-131402438D02*
X209319047Y-131354819D01*
X209319047Y-131354819D02*
X209080952Y-131354819D01*
X209080952Y-131354819D02*
X208985714Y-131402438D01*
X208985714Y-131402438D02*
X208938095Y-131450057D01*
X208938095Y-131450057D02*
X208890476Y-131545295D01*
X208890476Y-131545295D02*
X208890476Y-131640533D01*
X208890476Y-131640533D02*
X208938095Y-131783390D01*
X208938095Y-131783390D02*
X209509523Y-132354819D01*
X209509523Y-132354819D02*
X208890476Y-132354819D01*
X207985714Y-131354819D02*
X208461904Y-131354819D01*
X208461904Y-131354819D02*
X208509523Y-131831009D01*
X208509523Y-131831009D02*
X208461904Y-131783390D01*
X208461904Y-131783390D02*
X208366666Y-131735771D01*
X208366666Y-131735771D02*
X208128571Y-131735771D01*
X208128571Y-131735771D02*
X208033333Y-131783390D01*
X208033333Y-131783390D02*
X207985714Y-131831009D01*
X207985714Y-131831009D02*
X207938095Y-131926247D01*
X207938095Y-131926247D02*
X207938095Y-132164342D01*
X207938095Y-132164342D02*
X207985714Y-132259580D01*
X207985714Y-132259580D02*
X208033333Y-132307200D01*
X208033333Y-132307200D02*
X208128571Y-132354819D01*
X208128571Y-132354819D02*
X208366666Y-132354819D01*
X208366666Y-132354819D02*
X208461904Y-132307200D01*
X208461904Y-132307200D02*
X208509523Y-132259580D01*
X221942857Y-125859580D02*
X221990476Y-125907200D01*
X221990476Y-125907200D02*
X222133333Y-125954819D01*
X222133333Y-125954819D02*
X222228571Y-125954819D01*
X222228571Y-125954819D02*
X222371428Y-125907200D01*
X222371428Y-125907200D02*
X222466666Y-125811961D01*
X222466666Y-125811961D02*
X222514285Y-125716723D01*
X222514285Y-125716723D02*
X222561904Y-125526247D01*
X222561904Y-125526247D02*
X222561904Y-125383390D01*
X222561904Y-125383390D02*
X222514285Y-125192914D01*
X222514285Y-125192914D02*
X222466666Y-125097676D01*
X222466666Y-125097676D02*
X222371428Y-125002438D01*
X222371428Y-125002438D02*
X222228571Y-124954819D01*
X222228571Y-124954819D02*
X222133333Y-124954819D01*
X222133333Y-124954819D02*
X221990476Y-125002438D01*
X221990476Y-125002438D02*
X221942857Y-125050057D01*
X221561904Y-125050057D02*
X221514285Y-125002438D01*
X221514285Y-125002438D02*
X221419047Y-124954819D01*
X221419047Y-124954819D02*
X221180952Y-124954819D01*
X221180952Y-124954819D02*
X221085714Y-125002438D01*
X221085714Y-125002438D02*
X221038095Y-125050057D01*
X221038095Y-125050057D02*
X220990476Y-125145295D01*
X220990476Y-125145295D02*
X220990476Y-125240533D01*
X220990476Y-125240533D02*
X221038095Y-125383390D01*
X221038095Y-125383390D02*
X221609523Y-125954819D01*
X221609523Y-125954819D02*
X220990476Y-125954819D01*
X220419047Y-125383390D02*
X220514285Y-125335771D01*
X220514285Y-125335771D02*
X220561904Y-125288152D01*
X220561904Y-125288152D02*
X220609523Y-125192914D01*
X220609523Y-125192914D02*
X220609523Y-125145295D01*
X220609523Y-125145295D02*
X220561904Y-125050057D01*
X220561904Y-125050057D02*
X220514285Y-125002438D01*
X220514285Y-125002438D02*
X220419047Y-124954819D01*
X220419047Y-124954819D02*
X220228571Y-124954819D01*
X220228571Y-124954819D02*
X220133333Y-125002438D01*
X220133333Y-125002438D02*
X220085714Y-125050057D01*
X220085714Y-125050057D02*
X220038095Y-125145295D01*
X220038095Y-125145295D02*
X220038095Y-125192914D01*
X220038095Y-125192914D02*
X220085714Y-125288152D01*
X220085714Y-125288152D02*
X220133333Y-125335771D01*
X220133333Y-125335771D02*
X220228571Y-125383390D01*
X220228571Y-125383390D02*
X220419047Y-125383390D01*
X220419047Y-125383390D02*
X220514285Y-125431009D01*
X220514285Y-125431009D02*
X220561904Y-125478628D01*
X220561904Y-125478628D02*
X220609523Y-125573866D01*
X220609523Y-125573866D02*
X220609523Y-125764342D01*
X220609523Y-125764342D02*
X220561904Y-125859580D01*
X220561904Y-125859580D02*
X220514285Y-125907200D01*
X220514285Y-125907200D02*
X220419047Y-125954819D01*
X220419047Y-125954819D02*
X220228571Y-125954819D01*
X220228571Y-125954819D02*
X220133333Y-125907200D01*
X220133333Y-125907200D02*
X220085714Y-125859580D01*
X220085714Y-125859580D02*
X220038095Y-125764342D01*
X220038095Y-125764342D02*
X220038095Y-125573866D01*
X220038095Y-125573866D02*
X220085714Y-125478628D01*
X220085714Y-125478628D02*
X220133333Y-125431009D01*
X220133333Y-125431009D02*
X220228571Y-125383390D01*
X211842857Y-139459580D02*
X211890476Y-139507200D01*
X211890476Y-139507200D02*
X212033333Y-139554819D01*
X212033333Y-139554819D02*
X212128571Y-139554819D01*
X212128571Y-139554819D02*
X212271428Y-139507200D01*
X212271428Y-139507200D02*
X212366666Y-139411961D01*
X212366666Y-139411961D02*
X212414285Y-139316723D01*
X212414285Y-139316723D02*
X212461904Y-139126247D01*
X212461904Y-139126247D02*
X212461904Y-138983390D01*
X212461904Y-138983390D02*
X212414285Y-138792914D01*
X212414285Y-138792914D02*
X212366666Y-138697676D01*
X212366666Y-138697676D02*
X212271428Y-138602438D01*
X212271428Y-138602438D02*
X212128571Y-138554819D01*
X212128571Y-138554819D02*
X212033333Y-138554819D01*
X212033333Y-138554819D02*
X211890476Y-138602438D01*
X211890476Y-138602438D02*
X211842857Y-138650057D01*
X211509523Y-138554819D02*
X210890476Y-138554819D01*
X210890476Y-138554819D02*
X211223809Y-138935771D01*
X211223809Y-138935771D02*
X211080952Y-138935771D01*
X211080952Y-138935771D02*
X210985714Y-138983390D01*
X210985714Y-138983390D02*
X210938095Y-139031009D01*
X210938095Y-139031009D02*
X210890476Y-139126247D01*
X210890476Y-139126247D02*
X210890476Y-139364342D01*
X210890476Y-139364342D02*
X210938095Y-139459580D01*
X210938095Y-139459580D02*
X210985714Y-139507200D01*
X210985714Y-139507200D02*
X211080952Y-139554819D01*
X211080952Y-139554819D02*
X211366666Y-139554819D01*
X211366666Y-139554819D02*
X211461904Y-139507200D01*
X211461904Y-139507200D02*
X211509523Y-139459580D01*
X210557142Y-138554819D02*
X209890476Y-138554819D01*
X209890476Y-138554819D02*
X210319047Y-139554819D01*
X253678619Y-154604726D02*
X253678619Y-155632821D01*
X253678619Y-155632821D02*
X253618142Y-155753773D01*
X253618142Y-155753773D02*
X253557666Y-155814250D01*
X253557666Y-155814250D02*
X253436714Y-155874726D01*
X253436714Y-155874726D02*
X253194809Y-155874726D01*
X253194809Y-155874726D02*
X253073857Y-155814250D01*
X253073857Y-155814250D02*
X253013380Y-155753773D01*
X253013380Y-155753773D02*
X252952904Y-155632821D01*
X252952904Y-155632821D02*
X252952904Y-154604726D01*
X252408619Y-154725678D02*
X252348143Y-154665202D01*
X252348143Y-154665202D02*
X252227190Y-154604726D01*
X252227190Y-154604726D02*
X251924809Y-154604726D01*
X251924809Y-154604726D02*
X251803857Y-154665202D01*
X251803857Y-154665202D02*
X251743381Y-154725678D01*
X251743381Y-154725678D02*
X251682904Y-154846630D01*
X251682904Y-154846630D02*
X251682904Y-154967583D01*
X251682904Y-154967583D02*
X251743381Y-155149011D01*
X251743381Y-155149011D02*
X252469095Y-155874726D01*
X252469095Y-155874726D02*
X251682904Y-155874726D01*
X241242857Y-153274819D02*
X241576190Y-152798628D01*
X241814285Y-153274819D02*
X241814285Y-152274819D01*
X241814285Y-152274819D02*
X241433333Y-152274819D01*
X241433333Y-152274819D02*
X241338095Y-152322438D01*
X241338095Y-152322438D02*
X241290476Y-152370057D01*
X241290476Y-152370057D02*
X241242857Y-152465295D01*
X241242857Y-152465295D02*
X241242857Y-152608152D01*
X241242857Y-152608152D02*
X241290476Y-152703390D01*
X241290476Y-152703390D02*
X241338095Y-152751009D01*
X241338095Y-152751009D02*
X241433333Y-152798628D01*
X241433333Y-152798628D02*
X241814285Y-152798628D01*
X240909523Y-152274819D02*
X240290476Y-152274819D01*
X240290476Y-152274819D02*
X240623809Y-152655771D01*
X240623809Y-152655771D02*
X240480952Y-152655771D01*
X240480952Y-152655771D02*
X240385714Y-152703390D01*
X240385714Y-152703390D02*
X240338095Y-152751009D01*
X240338095Y-152751009D02*
X240290476Y-152846247D01*
X240290476Y-152846247D02*
X240290476Y-153084342D01*
X240290476Y-153084342D02*
X240338095Y-153179580D01*
X240338095Y-153179580D02*
X240385714Y-153227200D01*
X240385714Y-153227200D02*
X240480952Y-153274819D01*
X240480952Y-153274819D02*
X240766666Y-153274819D01*
X240766666Y-153274819D02*
X240861904Y-153227200D01*
X240861904Y-153227200D02*
X240909523Y-153179580D01*
X239671428Y-152274819D02*
X239576190Y-152274819D01*
X239576190Y-152274819D02*
X239480952Y-152322438D01*
X239480952Y-152322438D02*
X239433333Y-152370057D01*
X239433333Y-152370057D02*
X239385714Y-152465295D01*
X239385714Y-152465295D02*
X239338095Y-152655771D01*
X239338095Y-152655771D02*
X239338095Y-152893866D01*
X239338095Y-152893866D02*
X239385714Y-153084342D01*
X239385714Y-153084342D02*
X239433333Y-153179580D01*
X239433333Y-153179580D02*
X239480952Y-153227200D01*
X239480952Y-153227200D02*
X239576190Y-153274819D01*
X239576190Y-153274819D02*
X239671428Y-153274819D01*
X239671428Y-153274819D02*
X239766666Y-153227200D01*
X239766666Y-153227200D02*
X239814285Y-153179580D01*
X239814285Y-153179580D02*
X239861904Y-153084342D01*
X239861904Y-153084342D02*
X239909523Y-152893866D01*
X239909523Y-152893866D02*
X239909523Y-152655771D01*
X239909523Y-152655771D02*
X239861904Y-152465295D01*
X239861904Y-152465295D02*
X239814285Y-152370057D01*
X239814285Y-152370057D02*
X239766666Y-152322438D01*
X239766666Y-152322438D02*
X239671428Y-152274819D01*
X230484819Y-122559642D02*
X230008628Y-122226309D01*
X230484819Y-121988214D02*
X229484819Y-121988214D01*
X229484819Y-121988214D02*
X229484819Y-122369166D01*
X229484819Y-122369166D02*
X229532438Y-122464404D01*
X229532438Y-122464404D02*
X229580057Y-122512023D01*
X229580057Y-122512023D02*
X229675295Y-122559642D01*
X229675295Y-122559642D02*
X229818152Y-122559642D01*
X229818152Y-122559642D02*
X229913390Y-122512023D01*
X229913390Y-122512023D02*
X229961009Y-122464404D01*
X229961009Y-122464404D02*
X230008628Y-122369166D01*
X230008628Y-122369166D02*
X230008628Y-121988214D01*
X230484819Y-123512023D02*
X230484819Y-122940595D01*
X230484819Y-123226309D02*
X229484819Y-123226309D01*
X229484819Y-123226309D02*
X229627676Y-123131071D01*
X229627676Y-123131071D02*
X229722914Y-123035833D01*
X229722914Y-123035833D02*
X229770533Y-122940595D01*
X229913390Y-124083452D02*
X229865771Y-123988214D01*
X229865771Y-123988214D02*
X229818152Y-123940595D01*
X229818152Y-123940595D02*
X229722914Y-123892976D01*
X229722914Y-123892976D02*
X229675295Y-123892976D01*
X229675295Y-123892976D02*
X229580057Y-123940595D01*
X229580057Y-123940595D02*
X229532438Y-123988214D01*
X229532438Y-123988214D02*
X229484819Y-124083452D01*
X229484819Y-124083452D02*
X229484819Y-124273928D01*
X229484819Y-124273928D02*
X229532438Y-124369166D01*
X229532438Y-124369166D02*
X229580057Y-124416785D01*
X229580057Y-124416785D02*
X229675295Y-124464404D01*
X229675295Y-124464404D02*
X229722914Y-124464404D01*
X229722914Y-124464404D02*
X229818152Y-124416785D01*
X229818152Y-124416785D02*
X229865771Y-124369166D01*
X229865771Y-124369166D02*
X229913390Y-124273928D01*
X229913390Y-124273928D02*
X229913390Y-124083452D01*
X229913390Y-124083452D02*
X229961009Y-123988214D01*
X229961009Y-123988214D02*
X230008628Y-123940595D01*
X230008628Y-123940595D02*
X230103866Y-123892976D01*
X230103866Y-123892976D02*
X230294342Y-123892976D01*
X230294342Y-123892976D02*
X230389580Y-123940595D01*
X230389580Y-123940595D02*
X230437200Y-123988214D01*
X230437200Y-123988214D02*
X230484819Y-124083452D01*
X230484819Y-124083452D02*
X230484819Y-124273928D01*
X230484819Y-124273928D02*
X230437200Y-124369166D01*
X230437200Y-124369166D02*
X230389580Y-124416785D01*
X230389580Y-124416785D02*
X230294342Y-124464404D01*
X230294342Y-124464404D02*
X230103866Y-124464404D01*
X230103866Y-124464404D02*
X230008628Y-124416785D01*
X230008628Y-124416785D02*
X229961009Y-124369166D01*
X229961009Y-124369166D02*
X229913390Y-124273928D01*
X239342857Y-147254819D02*
X239676190Y-146778628D01*
X239914285Y-147254819D02*
X239914285Y-146254819D01*
X239914285Y-146254819D02*
X239533333Y-146254819D01*
X239533333Y-146254819D02*
X239438095Y-146302438D01*
X239438095Y-146302438D02*
X239390476Y-146350057D01*
X239390476Y-146350057D02*
X239342857Y-146445295D01*
X239342857Y-146445295D02*
X239342857Y-146588152D01*
X239342857Y-146588152D02*
X239390476Y-146683390D01*
X239390476Y-146683390D02*
X239438095Y-146731009D01*
X239438095Y-146731009D02*
X239533333Y-146778628D01*
X239533333Y-146778628D02*
X239914285Y-146778628D01*
X238961904Y-146350057D02*
X238914285Y-146302438D01*
X238914285Y-146302438D02*
X238819047Y-146254819D01*
X238819047Y-146254819D02*
X238580952Y-146254819D01*
X238580952Y-146254819D02*
X238485714Y-146302438D01*
X238485714Y-146302438D02*
X238438095Y-146350057D01*
X238438095Y-146350057D02*
X238390476Y-146445295D01*
X238390476Y-146445295D02*
X238390476Y-146540533D01*
X238390476Y-146540533D02*
X238438095Y-146683390D01*
X238438095Y-146683390D02*
X239009523Y-147254819D01*
X239009523Y-147254819D02*
X238390476Y-147254819D01*
X237771428Y-146254819D02*
X237676190Y-146254819D01*
X237676190Y-146254819D02*
X237580952Y-146302438D01*
X237580952Y-146302438D02*
X237533333Y-146350057D01*
X237533333Y-146350057D02*
X237485714Y-146445295D01*
X237485714Y-146445295D02*
X237438095Y-146635771D01*
X237438095Y-146635771D02*
X237438095Y-146873866D01*
X237438095Y-146873866D02*
X237485714Y-147064342D01*
X237485714Y-147064342D02*
X237533333Y-147159580D01*
X237533333Y-147159580D02*
X237580952Y-147207200D01*
X237580952Y-147207200D02*
X237676190Y-147254819D01*
X237676190Y-147254819D02*
X237771428Y-147254819D01*
X237771428Y-147254819D02*
X237866666Y-147207200D01*
X237866666Y-147207200D02*
X237914285Y-147159580D01*
X237914285Y-147159580D02*
X237961904Y-147064342D01*
X237961904Y-147064342D02*
X238009523Y-146873866D01*
X238009523Y-146873866D02*
X238009523Y-146635771D01*
X238009523Y-146635771D02*
X237961904Y-146445295D01*
X237961904Y-146445295D02*
X237914285Y-146350057D01*
X237914285Y-146350057D02*
X237866666Y-146302438D01*
X237866666Y-146302438D02*
X237771428Y-146254819D01*
X215454819Y-158857142D02*
X214978628Y-158523809D01*
X215454819Y-158285714D02*
X214454819Y-158285714D01*
X214454819Y-158285714D02*
X214454819Y-158666666D01*
X214454819Y-158666666D02*
X214502438Y-158761904D01*
X214502438Y-158761904D02*
X214550057Y-158809523D01*
X214550057Y-158809523D02*
X214645295Y-158857142D01*
X214645295Y-158857142D02*
X214788152Y-158857142D01*
X214788152Y-158857142D02*
X214883390Y-158809523D01*
X214883390Y-158809523D02*
X214931009Y-158761904D01*
X214931009Y-158761904D02*
X214978628Y-158666666D01*
X214978628Y-158666666D02*
X214978628Y-158285714D01*
X214454819Y-159190476D02*
X214454819Y-159809523D01*
X214454819Y-159809523D02*
X214835771Y-159476190D01*
X214835771Y-159476190D02*
X214835771Y-159619047D01*
X214835771Y-159619047D02*
X214883390Y-159714285D01*
X214883390Y-159714285D02*
X214931009Y-159761904D01*
X214931009Y-159761904D02*
X215026247Y-159809523D01*
X215026247Y-159809523D02*
X215264342Y-159809523D01*
X215264342Y-159809523D02*
X215359580Y-159761904D01*
X215359580Y-159761904D02*
X215407200Y-159714285D01*
X215407200Y-159714285D02*
X215454819Y-159619047D01*
X215454819Y-159619047D02*
X215454819Y-159333333D01*
X215454819Y-159333333D02*
X215407200Y-159238095D01*
X215407200Y-159238095D02*
X215359580Y-159190476D01*
X214454819Y-160714285D02*
X214454819Y-160238095D01*
X214454819Y-160238095D02*
X214931009Y-160190476D01*
X214931009Y-160190476D02*
X214883390Y-160238095D01*
X214883390Y-160238095D02*
X214835771Y-160333333D01*
X214835771Y-160333333D02*
X214835771Y-160571428D01*
X214835771Y-160571428D02*
X214883390Y-160666666D01*
X214883390Y-160666666D02*
X214931009Y-160714285D01*
X214931009Y-160714285D02*
X215026247Y-160761904D01*
X215026247Y-160761904D02*
X215264342Y-160761904D01*
X215264342Y-160761904D02*
X215359580Y-160714285D01*
X215359580Y-160714285D02*
X215407200Y-160666666D01*
X215407200Y-160666666D02*
X215454819Y-160571428D01*
X215454819Y-160571428D02*
X215454819Y-160333333D01*
X215454819Y-160333333D02*
X215407200Y-160238095D01*
X215407200Y-160238095D02*
X215359580Y-160190476D01*
X211980357Y-144959580D02*
X212027976Y-145007200D01*
X212027976Y-145007200D02*
X212170833Y-145054819D01*
X212170833Y-145054819D02*
X212266071Y-145054819D01*
X212266071Y-145054819D02*
X212408928Y-145007200D01*
X212408928Y-145007200D02*
X212504166Y-144911961D01*
X212504166Y-144911961D02*
X212551785Y-144816723D01*
X212551785Y-144816723D02*
X212599404Y-144626247D01*
X212599404Y-144626247D02*
X212599404Y-144483390D01*
X212599404Y-144483390D02*
X212551785Y-144292914D01*
X212551785Y-144292914D02*
X212504166Y-144197676D01*
X212504166Y-144197676D02*
X212408928Y-144102438D01*
X212408928Y-144102438D02*
X212266071Y-144054819D01*
X212266071Y-144054819D02*
X212170833Y-144054819D01*
X212170833Y-144054819D02*
X212027976Y-144102438D01*
X212027976Y-144102438D02*
X211980357Y-144150057D01*
X211647023Y-144054819D02*
X211027976Y-144054819D01*
X211027976Y-144054819D02*
X211361309Y-144435771D01*
X211361309Y-144435771D02*
X211218452Y-144435771D01*
X211218452Y-144435771D02*
X211123214Y-144483390D01*
X211123214Y-144483390D02*
X211075595Y-144531009D01*
X211075595Y-144531009D02*
X211027976Y-144626247D01*
X211027976Y-144626247D02*
X211027976Y-144864342D01*
X211027976Y-144864342D02*
X211075595Y-144959580D01*
X211075595Y-144959580D02*
X211123214Y-145007200D01*
X211123214Y-145007200D02*
X211218452Y-145054819D01*
X211218452Y-145054819D02*
X211504166Y-145054819D01*
X211504166Y-145054819D02*
X211599404Y-145007200D01*
X211599404Y-145007200D02*
X211647023Y-144959580D01*
X210456547Y-144483390D02*
X210551785Y-144435771D01*
X210551785Y-144435771D02*
X210599404Y-144388152D01*
X210599404Y-144388152D02*
X210647023Y-144292914D01*
X210647023Y-144292914D02*
X210647023Y-144245295D01*
X210647023Y-144245295D02*
X210599404Y-144150057D01*
X210599404Y-144150057D02*
X210551785Y-144102438D01*
X210551785Y-144102438D02*
X210456547Y-144054819D01*
X210456547Y-144054819D02*
X210266071Y-144054819D01*
X210266071Y-144054819D02*
X210170833Y-144102438D01*
X210170833Y-144102438D02*
X210123214Y-144150057D01*
X210123214Y-144150057D02*
X210075595Y-144245295D01*
X210075595Y-144245295D02*
X210075595Y-144292914D01*
X210075595Y-144292914D02*
X210123214Y-144388152D01*
X210123214Y-144388152D02*
X210170833Y-144435771D01*
X210170833Y-144435771D02*
X210266071Y-144483390D01*
X210266071Y-144483390D02*
X210456547Y-144483390D01*
X210456547Y-144483390D02*
X210551785Y-144531009D01*
X210551785Y-144531009D02*
X210599404Y-144578628D01*
X210599404Y-144578628D02*
X210647023Y-144673866D01*
X210647023Y-144673866D02*
X210647023Y-144864342D01*
X210647023Y-144864342D02*
X210599404Y-144959580D01*
X210599404Y-144959580D02*
X210551785Y-145007200D01*
X210551785Y-145007200D02*
X210456547Y-145054819D01*
X210456547Y-145054819D02*
X210266071Y-145054819D01*
X210266071Y-145054819D02*
X210170833Y-145007200D01*
X210170833Y-145007200D02*
X210123214Y-144959580D01*
X210123214Y-144959580D02*
X210075595Y-144864342D01*
X210075595Y-144864342D02*
X210075595Y-144673866D01*
X210075595Y-144673866D02*
X210123214Y-144578628D01*
X210123214Y-144578628D02*
X210170833Y-144531009D01*
X210170833Y-144531009D02*
X210266071Y-144483390D01*
X252255357Y-125554819D02*
X252588690Y-125078628D01*
X252826785Y-125554819D02*
X252826785Y-124554819D01*
X252826785Y-124554819D02*
X252445833Y-124554819D01*
X252445833Y-124554819D02*
X252350595Y-124602438D01*
X252350595Y-124602438D02*
X252302976Y-124650057D01*
X252302976Y-124650057D02*
X252255357Y-124745295D01*
X252255357Y-124745295D02*
X252255357Y-124888152D01*
X252255357Y-124888152D02*
X252302976Y-124983390D01*
X252302976Y-124983390D02*
X252350595Y-125031009D01*
X252350595Y-125031009D02*
X252445833Y-125078628D01*
X252445833Y-125078628D02*
X252826785Y-125078628D01*
X251874404Y-124650057D02*
X251826785Y-124602438D01*
X251826785Y-124602438D02*
X251731547Y-124554819D01*
X251731547Y-124554819D02*
X251493452Y-124554819D01*
X251493452Y-124554819D02*
X251398214Y-124602438D01*
X251398214Y-124602438D02*
X251350595Y-124650057D01*
X251350595Y-124650057D02*
X251302976Y-124745295D01*
X251302976Y-124745295D02*
X251302976Y-124840533D01*
X251302976Y-124840533D02*
X251350595Y-124983390D01*
X251350595Y-124983390D02*
X251922023Y-125554819D01*
X251922023Y-125554819D02*
X251302976Y-125554819D01*
X250922023Y-124650057D02*
X250874404Y-124602438D01*
X250874404Y-124602438D02*
X250779166Y-124554819D01*
X250779166Y-124554819D02*
X250541071Y-124554819D01*
X250541071Y-124554819D02*
X250445833Y-124602438D01*
X250445833Y-124602438D02*
X250398214Y-124650057D01*
X250398214Y-124650057D02*
X250350595Y-124745295D01*
X250350595Y-124745295D02*
X250350595Y-124840533D01*
X250350595Y-124840533D02*
X250398214Y-124983390D01*
X250398214Y-124983390D02*
X250969642Y-125554819D01*
X250969642Y-125554819D02*
X250350595Y-125554819D01*
X240734819Y-136457142D02*
X240258628Y-136123809D01*
X240734819Y-135885714D02*
X239734819Y-135885714D01*
X239734819Y-135885714D02*
X239734819Y-136266666D01*
X239734819Y-136266666D02*
X239782438Y-136361904D01*
X239782438Y-136361904D02*
X239830057Y-136409523D01*
X239830057Y-136409523D02*
X239925295Y-136457142D01*
X239925295Y-136457142D02*
X240068152Y-136457142D01*
X240068152Y-136457142D02*
X240163390Y-136409523D01*
X240163390Y-136409523D02*
X240211009Y-136361904D01*
X240211009Y-136361904D02*
X240258628Y-136266666D01*
X240258628Y-136266666D02*
X240258628Y-135885714D01*
X240734819Y-137409523D02*
X240734819Y-136838095D01*
X240734819Y-137123809D02*
X239734819Y-137123809D01*
X239734819Y-137123809D02*
X239877676Y-137028571D01*
X239877676Y-137028571D02*
X239972914Y-136933333D01*
X239972914Y-136933333D02*
X240020533Y-136838095D01*
X239734819Y-137742857D02*
X239734819Y-138409523D01*
X239734819Y-138409523D02*
X240734819Y-137980952D01*
X243554819Y-134357142D02*
X243078628Y-134023809D01*
X243554819Y-133785714D02*
X242554819Y-133785714D01*
X242554819Y-133785714D02*
X242554819Y-134166666D01*
X242554819Y-134166666D02*
X242602438Y-134261904D01*
X242602438Y-134261904D02*
X242650057Y-134309523D01*
X242650057Y-134309523D02*
X242745295Y-134357142D01*
X242745295Y-134357142D02*
X242888152Y-134357142D01*
X242888152Y-134357142D02*
X242983390Y-134309523D01*
X242983390Y-134309523D02*
X243031009Y-134261904D01*
X243031009Y-134261904D02*
X243078628Y-134166666D01*
X243078628Y-134166666D02*
X243078628Y-133785714D01*
X242650057Y-134738095D02*
X242602438Y-134785714D01*
X242602438Y-134785714D02*
X242554819Y-134880952D01*
X242554819Y-134880952D02*
X242554819Y-135119047D01*
X242554819Y-135119047D02*
X242602438Y-135214285D01*
X242602438Y-135214285D02*
X242650057Y-135261904D01*
X242650057Y-135261904D02*
X242745295Y-135309523D01*
X242745295Y-135309523D02*
X242840533Y-135309523D01*
X242840533Y-135309523D02*
X242983390Y-135261904D01*
X242983390Y-135261904D02*
X243554819Y-134690476D01*
X243554819Y-134690476D02*
X243554819Y-135309523D01*
X243554819Y-136261904D02*
X243554819Y-135690476D01*
X243554819Y-135976190D02*
X242554819Y-135976190D01*
X242554819Y-135976190D02*
X242697676Y-135880952D01*
X242697676Y-135880952D02*
X242792914Y-135785714D01*
X242792914Y-135785714D02*
X242840533Y-135690476D01*
X253437381Y-138479726D02*
X253437381Y-137209726D01*
X253437381Y-137209726D02*
X253135000Y-137209726D01*
X253135000Y-137209726D02*
X252953571Y-137270202D01*
X252953571Y-137270202D02*
X252832619Y-137391154D01*
X252832619Y-137391154D02*
X252772142Y-137512107D01*
X252772142Y-137512107D02*
X252711666Y-137754011D01*
X252711666Y-137754011D02*
X252711666Y-137935440D01*
X252711666Y-137935440D02*
X252772142Y-138177345D01*
X252772142Y-138177345D02*
X252832619Y-138298297D01*
X252832619Y-138298297D02*
X252953571Y-138419250D01*
X252953571Y-138419250D02*
X253135000Y-138479726D01*
X253135000Y-138479726D02*
X253437381Y-138479726D01*
X252288333Y-137209726D02*
X251502142Y-137209726D01*
X251502142Y-137209726D02*
X251925476Y-137693535D01*
X251925476Y-137693535D02*
X251744047Y-137693535D01*
X251744047Y-137693535D02*
X251623095Y-137754011D01*
X251623095Y-137754011D02*
X251562619Y-137814488D01*
X251562619Y-137814488D02*
X251502142Y-137935440D01*
X251502142Y-137935440D02*
X251502142Y-138237821D01*
X251502142Y-138237821D02*
X251562619Y-138358773D01*
X251562619Y-138358773D02*
X251623095Y-138419250D01*
X251623095Y-138419250D02*
X251744047Y-138479726D01*
X251744047Y-138479726D02*
X252106904Y-138479726D01*
X252106904Y-138479726D02*
X252227857Y-138419250D01*
X252227857Y-138419250D02*
X252288333Y-138358773D01*
X218792619Y-113119726D02*
X218792619Y-114147821D01*
X218792619Y-114147821D02*
X218732142Y-114268773D01*
X218732142Y-114268773D02*
X218671666Y-114329250D01*
X218671666Y-114329250D02*
X218550714Y-114389726D01*
X218550714Y-114389726D02*
X218308809Y-114389726D01*
X218308809Y-114389726D02*
X218187857Y-114329250D01*
X218187857Y-114329250D02*
X218127380Y-114268773D01*
X218127380Y-114268773D02*
X218066904Y-114147821D01*
X218066904Y-114147821D02*
X218066904Y-113119726D01*
X216796904Y-114389726D02*
X217522619Y-114389726D01*
X217159762Y-114389726D02*
X217159762Y-113119726D01*
X217159762Y-113119726D02*
X217280714Y-113301154D01*
X217280714Y-113301154D02*
X217401666Y-113422107D01*
X217401666Y-113422107D02*
X217522619Y-113482583D01*
X253530357Y-158124819D02*
X253863690Y-157648628D01*
X254101785Y-158124819D02*
X254101785Y-157124819D01*
X254101785Y-157124819D02*
X253720833Y-157124819D01*
X253720833Y-157124819D02*
X253625595Y-157172438D01*
X253625595Y-157172438D02*
X253577976Y-157220057D01*
X253577976Y-157220057D02*
X253530357Y-157315295D01*
X253530357Y-157315295D02*
X253530357Y-157458152D01*
X253530357Y-157458152D02*
X253577976Y-157553390D01*
X253577976Y-157553390D02*
X253625595Y-157601009D01*
X253625595Y-157601009D02*
X253720833Y-157648628D01*
X253720833Y-157648628D02*
X254101785Y-157648628D01*
X253197023Y-157124819D02*
X252577976Y-157124819D01*
X252577976Y-157124819D02*
X252911309Y-157505771D01*
X252911309Y-157505771D02*
X252768452Y-157505771D01*
X252768452Y-157505771D02*
X252673214Y-157553390D01*
X252673214Y-157553390D02*
X252625595Y-157601009D01*
X252625595Y-157601009D02*
X252577976Y-157696247D01*
X252577976Y-157696247D02*
X252577976Y-157934342D01*
X252577976Y-157934342D02*
X252625595Y-158029580D01*
X252625595Y-158029580D02*
X252673214Y-158077200D01*
X252673214Y-158077200D02*
X252768452Y-158124819D01*
X252768452Y-158124819D02*
X253054166Y-158124819D01*
X253054166Y-158124819D02*
X253149404Y-158077200D01*
X253149404Y-158077200D02*
X253197023Y-158029580D01*
X252244642Y-157124819D02*
X251625595Y-157124819D01*
X251625595Y-157124819D02*
X251958928Y-157505771D01*
X251958928Y-157505771D02*
X251816071Y-157505771D01*
X251816071Y-157505771D02*
X251720833Y-157553390D01*
X251720833Y-157553390D02*
X251673214Y-157601009D01*
X251673214Y-157601009D02*
X251625595Y-157696247D01*
X251625595Y-157696247D02*
X251625595Y-157934342D01*
X251625595Y-157934342D02*
X251673214Y-158029580D01*
X251673214Y-158029580D02*
X251720833Y-158077200D01*
X251720833Y-158077200D02*
X251816071Y-158124819D01*
X251816071Y-158124819D02*
X252101785Y-158124819D01*
X252101785Y-158124819D02*
X252197023Y-158077200D01*
X252197023Y-158077200D02*
X252244642Y-158029580D01*
X230059580Y-113957142D02*
X230107200Y-113909523D01*
X230107200Y-113909523D02*
X230154819Y-113766666D01*
X230154819Y-113766666D02*
X230154819Y-113671428D01*
X230154819Y-113671428D02*
X230107200Y-113528571D01*
X230107200Y-113528571D02*
X230011961Y-113433333D01*
X230011961Y-113433333D02*
X229916723Y-113385714D01*
X229916723Y-113385714D02*
X229726247Y-113338095D01*
X229726247Y-113338095D02*
X229583390Y-113338095D01*
X229583390Y-113338095D02*
X229392914Y-113385714D01*
X229392914Y-113385714D02*
X229297676Y-113433333D01*
X229297676Y-113433333D02*
X229202438Y-113528571D01*
X229202438Y-113528571D02*
X229154819Y-113671428D01*
X229154819Y-113671428D02*
X229154819Y-113766666D01*
X229154819Y-113766666D02*
X229202438Y-113909523D01*
X229202438Y-113909523D02*
X229250057Y-113957142D01*
X229250057Y-114338095D02*
X229202438Y-114385714D01*
X229202438Y-114385714D02*
X229154819Y-114480952D01*
X229154819Y-114480952D02*
X229154819Y-114719047D01*
X229154819Y-114719047D02*
X229202438Y-114814285D01*
X229202438Y-114814285D02*
X229250057Y-114861904D01*
X229250057Y-114861904D02*
X229345295Y-114909523D01*
X229345295Y-114909523D02*
X229440533Y-114909523D01*
X229440533Y-114909523D02*
X229583390Y-114861904D01*
X229583390Y-114861904D02*
X230154819Y-114290476D01*
X230154819Y-114290476D02*
X230154819Y-114909523D01*
X229154819Y-115814285D02*
X229154819Y-115338095D01*
X229154819Y-115338095D02*
X229631009Y-115290476D01*
X229631009Y-115290476D02*
X229583390Y-115338095D01*
X229583390Y-115338095D02*
X229535771Y-115433333D01*
X229535771Y-115433333D02*
X229535771Y-115671428D01*
X229535771Y-115671428D02*
X229583390Y-115766666D01*
X229583390Y-115766666D02*
X229631009Y-115814285D01*
X229631009Y-115814285D02*
X229726247Y-115861904D01*
X229726247Y-115861904D02*
X229964342Y-115861904D01*
X229964342Y-115861904D02*
X230059580Y-115814285D01*
X230059580Y-115814285D02*
X230107200Y-115766666D01*
X230107200Y-115766666D02*
X230154819Y-115671428D01*
X230154819Y-115671428D02*
X230154819Y-115433333D01*
X230154819Y-115433333D02*
X230107200Y-115338095D01*
X230107200Y-115338095D02*
X230059580Y-115290476D01*
X218954819Y-158857142D02*
X218478628Y-158523809D01*
X218954819Y-158285714D02*
X217954819Y-158285714D01*
X217954819Y-158285714D02*
X217954819Y-158666666D01*
X217954819Y-158666666D02*
X218002438Y-158761904D01*
X218002438Y-158761904D02*
X218050057Y-158809523D01*
X218050057Y-158809523D02*
X218145295Y-158857142D01*
X218145295Y-158857142D02*
X218288152Y-158857142D01*
X218288152Y-158857142D02*
X218383390Y-158809523D01*
X218383390Y-158809523D02*
X218431009Y-158761904D01*
X218431009Y-158761904D02*
X218478628Y-158666666D01*
X218478628Y-158666666D02*
X218478628Y-158285714D01*
X217954819Y-159190476D02*
X217954819Y-159809523D01*
X217954819Y-159809523D02*
X218335771Y-159476190D01*
X218335771Y-159476190D02*
X218335771Y-159619047D01*
X218335771Y-159619047D02*
X218383390Y-159714285D01*
X218383390Y-159714285D02*
X218431009Y-159761904D01*
X218431009Y-159761904D02*
X218526247Y-159809523D01*
X218526247Y-159809523D02*
X218764342Y-159809523D01*
X218764342Y-159809523D02*
X218859580Y-159761904D01*
X218859580Y-159761904D02*
X218907200Y-159714285D01*
X218907200Y-159714285D02*
X218954819Y-159619047D01*
X218954819Y-159619047D02*
X218954819Y-159333333D01*
X218954819Y-159333333D02*
X218907200Y-159238095D01*
X218907200Y-159238095D02*
X218859580Y-159190476D01*
X218288152Y-160666666D02*
X218954819Y-160666666D01*
X217907200Y-160428571D02*
X218621485Y-160190476D01*
X218621485Y-160190476D02*
X218621485Y-160809523D01*
X265862857Y-156759580D02*
X265910476Y-156807200D01*
X265910476Y-156807200D02*
X266053333Y-156854819D01*
X266053333Y-156854819D02*
X266148571Y-156854819D01*
X266148571Y-156854819D02*
X266291428Y-156807200D01*
X266291428Y-156807200D02*
X266386666Y-156711961D01*
X266386666Y-156711961D02*
X266434285Y-156616723D01*
X266434285Y-156616723D02*
X266481904Y-156426247D01*
X266481904Y-156426247D02*
X266481904Y-156283390D01*
X266481904Y-156283390D02*
X266434285Y-156092914D01*
X266434285Y-156092914D02*
X266386666Y-155997676D01*
X266386666Y-155997676D02*
X266291428Y-155902438D01*
X266291428Y-155902438D02*
X266148571Y-155854819D01*
X266148571Y-155854819D02*
X266053333Y-155854819D01*
X266053333Y-155854819D02*
X265910476Y-155902438D01*
X265910476Y-155902438D02*
X265862857Y-155950057D01*
X265481904Y-155950057D02*
X265434285Y-155902438D01*
X265434285Y-155902438D02*
X265339047Y-155854819D01*
X265339047Y-155854819D02*
X265100952Y-155854819D01*
X265100952Y-155854819D02*
X265005714Y-155902438D01*
X265005714Y-155902438D02*
X264958095Y-155950057D01*
X264958095Y-155950057D02*
X264910476Y-156045295D01*
X264910476Y-156045295D02*
X264910476Y-156140533D01*
X264910476Y-156140533D02*
X264958095Y-156283390D01*
X264958095Y-156283390D02*
X265529523Y-156854819D01*
X265529523Y-156854819D02*
X264910476Y-156854819D01*
X264577142Y-155854819D02*
X263958095Y-155854819D01*
X263958095Y-155854819D02*
X264291428Y-156235771D01*
X264291428Y-156235771D02*
X264148571Y-156235771D01*
X264148571Y-156235771D02*
X264053333Y-156283390D01*
X264053333Y-156283390D02*
X264005714Y-156331009D01*
X264005714Y-156331009D02*
X263958095Y-156426247D01*
X263958095Y-156426247D02*
X263958095Y-156664342D01*
X263958095Y-156664342D02*
X264005714Y-156759580D01*
X264005714Y-156759580D02*
X264053333Y-156807200D01*
X264053333Y-156807200D02*
X264148571Y-156854819D01*
X264148571Y-156854819D02*
X264434285Y-156854819D01*
X264434285Y-156854819D02*
X264529523Y-156807200D01*
X264529523Y-156807200D02*
X264577142Y-156759580D01*
D13*
X230211666Y-136574318D02*
X230816428Y-136574318D01*
X230816428Y-136574318D02*
X230816428Y-135304318D01*
X229848809Y-135425270D02*
X229788333Y-135364794D01*
X229788333Y-135364794D02*
X229667380Y-135304318D01*
X229667380Y-135304318D02*
X229364999Y-135304318D01*
X229364999Y-135304318D02*
X229244047Y-135364794D01*
X229244047Y-135364794D02*
X229183571Y-135425270D01*
X229183571Y-135425270D02*
X229123094Y-135546222D01*
X229123094Y-135546222D02*
X229123094Y-135667175D01*
X229123094Y-135667175D02*
X229183571Y-135848603D01*
X229183571Y-135848603D02*
X229909285Y-136574318D01*
X229909285Y-136574318D02*
X229123094Y-136574318D01*
D12*
X239767619Y-120409726D02*
X239767619Y-121437821D01*
X239767619Y-121437821D02*
X239707142Y-121558773D01*
X239707142Y-121558773D02*
X239646666Y-121619250D01*
X239646666Y-121619250D02*
X239525714Y-121679726D01*
X239525714Y-121679726D02*
X239283809Y-121679726D01*
X239283809Y-121679726D02*
X239162857Y-121619250D01*
X239162857Y-121619250D02*
X239102380Y-121558773D01*
X239102380Y-121558773D02*
X239041904Y-121437821D01*
X239041904Y-121437821D02*
X239041904Y-120409726D01*
X237892857Y-120833059D02*
X237892857Y-121679726D01*
X238195238Y-120349250D02*
X238497619Y-121256392D01*
X238497619Y-121256392D02*
X237711428Y-121256392D01*
X243942857Y-150554819D02*
X244276190Y-150078628D01*
X244514285Y-150554819D02*
X244514285Y-149554819D01*
X244514285Y-149554819D02*
X244133333Y-149554819D01*
X244133333Y-149554819D02*
X244038095Y-149602438D01*
X244038095Y-149602438D02*
X243990476Y-149650057D01*
X243990476Y-149650057D02*
X243942857Y-149745295D01*
X243942857Y-149745295D02*
X243942857Y-149888152D01*
X243942857Y-149888152D02*
X243990476Y-149983390D01*
X243990476Y-149983390D02*
X244038095Y-150031009D01*
X244038095Y-150031009D02*
X244133333Y-150078628D01*
X244133333Y-150078628D02*
X244514285Y-150078628D01*
X243561904Y-149650057D02*
X243514285Y-149602438D01*
X243514285Y-149602438D02*
X243419047Y-149554819D01*
X243419047Y-149554819D02*
X243180952Y-149554819D01*
X243180952Y-149554819D02*
X243085714Y-149602438D01*
X243085714Y-149602438D02*
X243038095Y-149650057D01*
X243038095Y-149650057D02*
X242990476Y-149745295D01*
X242990476Y-149745295D02*
X242990476Y-149840533D01*
X242990476Y-149840533D02*
X243038095Y-149983390D01*
X243038095Y-149983390D02*
X243609523Y-150554819D01*
X243609523Y-150554819D02*
X242990476Y-150554819D01*
X242657142Y-149554819D02*
X241990476Y-149554819D01*
X241990476Y-149554819D02*
X242419047Y-150554819D01*
X252838094Y-128254819D02*
X252838094Y-127254819D01*
X252838094Y-127254819D02*
X252599999Y-127254819D01*
X252599999Y-127254819D02*
X252457142Y-127302438D01*
X252457142Y-127302438D02*
X252361904Y-127397676D01*
X252361904Y-127397676D02*
X252314285Y-127492914D01*
X252314285Y-127492914D02*
X252266666Y-127683390D01*
X252266666Y-127683390D02*
X252266666Y-127826247D01*
X252266666Y-127826247D02*
X252314285Y-128016723D01*
X252314285Y-128016723D02*
X252361904Y-128111961D01*
X252361904Y-128111961D02*
X252457142Y-128207200D01*
X252457142Y-128207200D02*
X252599999Y-128254819D01*
X252599999Y-128254819D02*
X252838094Y-128254819D01*
X251409523Y-127588152D02*
X251409523Y-128254819D01*
X251647618Y-127207200D02*
X251885713Y-127921485D01*
X251885713Y-127921485D02*
X251266666Y-127921485D01*
X205279580Y-116957142D02*
X205327200Y-116909523D01*
X205327200Y-116909523D02*
X205374819Y-116766666D01*
X205374819Y-116766666D02*
X205374819Y-116671428D01*
X205374819Y-116671428D02*
X205327200Y-116528571D01*
X205327200Y-116528571D02*
X205231961Y-116433333D01*
X205231961Y-116433333D02*
X205136723Y-116385714D01*
X205136723Y-116385714D02*
X204946247Y-116338095D01*
X204946247Y-116338095D02*
X204803390Y-116338095D01*
X204803390Y-116338095D02*
X204612914Y-116385714D01*
X204612914Y-116385714D02*
X204517676Y-116433333D01*
X204517676Y-116433333D02*
X204422438Y-116528571D01*
X204422438Y-116528571D02*
X204374819Y-116671428D01*
X204374819Y-116671428D02*
X204374819Y-116766666D01*
X204374819Y-116766666D02*
X204422438Y-116909523D01*
X204422438Y-116909523D02*
X204470057Y-116957142D01*
X204470057Y-117338095D02*
X204422438Y-117385714D01*
X204422438Y-117385714D02*
X204374819Y-117480952D01*
X204374819Y-117480952D02*
X204374819Y-117719047D01*
X204374819Y-117719047D02*
X204422438Y-117814285D01*
X204422438Y-117814285D02*
X204470057Y-117861904D01*
X204470057Y-117861904D02*
X204565295Y-117909523D01*
X204565295Y-117909523D02*
X204660533Y-117909523D01*
X204660533Y-117909523D02*
X204803390Y-117861904D01*
X204803390Y-117861904D02*
X205374819Y-117290476D01*
X205374819Y-117290476D02*
X205374819Y-117909523D01*
X204374819Y-118766666D02*
X204374819Y-118576190D01*
X204374819Y-118576190D02*
X204422438Y-118480952D01*
X204422438Y-118480952D02*
X204470057Y-118433333D01*
X204470057Y-118433333D02*
X204612914Y-118338095D01*
X204612914Y-118338095D02*
X204803390Y-118290476D01*
X204803390Y-118290476D02*
X205184342Y-118290476D01*
X205184342Y-118290476D02*
X205279580Y-118338095D01*
X205279580Y-118338095D02*
X205327200Y-118385714D01*
X205327200Y-118385714D02*
X205374819Y-118480952D01*
X205374819Y-118480952D02*
X205374819Y-118671428D01*
X205374819Y-118671428D02*
X205327200Y-118766666D01*
X205327200Y-118766666D02*
X205279580Y-118814285D01*
X205279580Y-118814285D02*
X205184342Y-118861904D01*
X205184342Y-118861904D02*
X204946247Y-118861904D01*
X204946247Y-118861904D02*
X204851009Y-118814285D01*
X204851009Y-118814285D02*
X204803390Y-118766666D01*
X204803390Y-118766666D02*
X204755771Y-118671428D01*
X204755771Y-118671428D02*
X204755771Y-118480952D01*
X204755771Y-118480952D02*
X204803390Y-118385714D01*
X204803390Y-118385714D02*
X204851009Y-118338095D01*
X204851009Y-118338095D02*
X204946247Y-118290476D01*
X236959580Y-114157142D02*
X237007200Y-114109523D01*
X237007200Y-114109523D02*
X237054819Y-113966666D01*
X237054819Y-113966666D02*
X237054819Y-113871428D01*
X237054819Y-113871428D02*
X237007200Y-113728571D01*
X237007200Y-113728571D02*
X236911961Y-113633333D01*
X236911961Y-113633333D02*
X236816723Y-113585714D01*
X236816723Y-113585714D02*
X236626247Y-113538095D01*
X236626247Y-113538095D02*
X236483390Y-113538095D01*
X236483390Y-113538095D02*
X236292914Y-113585714D01*
X236292914Y-113585714D02*
X236197676Y-113633333D01*
X236197676Y-113633333D02*
X236102438Y-113728571D01*
X236102438Y-113728571D02*
X236054819Y-113871428D01*
X236054819Y-113871428D02*
X236054819Y-113966666D01*
X236054819Y-113966666D02*
X236102438Y-114109523D01*
X236102438Y-114109523D02*
X236150057Y-114157142D01*
X236150057Y-114538095D02*
X236102438Y-114585714D01*
X236102438Y-114585714D02*
X236054819Y-114680952D01*
X236054819Y-114680952D02*
X236054819Y-114919047D01*
X236054819Y-114919047D02*
X236102438Y-115014285D01*
X236102438Y-115014285D02*
X236150057Y-115061904D01*
X236150057Y-115061904D02*
X236245295Y-115109523D01*
X236245295Y-115109523D02*
X236340533Y-115109523D01*
X236340533Y-115109523D02*
X236483390Y-115061904D01*
X236483390Y-115061904D02*
X237054819Y-114490476D01*
X237054819Y-114490476D02*
X237054819Y-115109523D01*
X236388152Y-115966666D02*
X237054819Y-115966666D01*
X236007200Y-115728571D02*
X236721485Y-115490476D01*
X236721485Y-115490476D02*
X236721485Y-116109523D01*
X230354819Y-125557142D02*
X229878628Y-125223809D01*
X230354819Y-124985714D02*
X229354819Y-124985714D01*
X229354819Y-124985714D02*
X229354819Y-125366666D01*
X229354819Y-125366666D02*
X229402438Y-125461904D01*
X229402438Y-125461904D02*
X229450057Y-125509523D01*
X229450057Y-125509523D02*
X229545295Y-125557142D01*
X229545295Y-125557142D02*
X229688152Y-125557142D01*
X229688152Y-125557142D02*
X229783390Y-125509523D01*
X229783390Y-125509523D02*
X229831009Y-125461904D01*
X229831009Y-125461904D02*
X229878628Y-125366666D01*
X229878628Y-125366666D02*
X229878628Y-124985714D01*
X230354819Y-126509523D02*
X230354819Y-125938095D01*
X230354819Y-126223809D02*
X229354819Y-126223809D01*
X229354819Y-126223809D02*
X229497676Y-126128571D01*
X229497676Y-126128571D02*
X229592914Y-126033333D01*
X229592914Y-126033333D02*
X229640533Y-125938095D01*
X230354819Y-126985714D02*
X230354819Y-127176190D01*
X230354819Y-127176190D02*
X230307200Y-127271428D01*
X230307200Y-127271428D02*
X230259580Y-127319047D01*
X230259580Y-127319047D02*
X230116723Y-127414285D01*
X230116723Y-127414285D02*
X229926247Y-127461904D01*
X229926247Y-127461904D02*
X229545295Y-127461904D01*
X229545295Y-127461904D02*
X229450057Y-127414285D01*
X229450057Y-127414285D02*
X229402438Y-127366666D01*
X229402438Y-127366666D02*
X229354819Y-127271428D01*
X229354819Y-127271428D02*
X229354819Y-127080952D01*
X229354819Y-127080952D02*
X229402438Y-126985714D01*
X229402438Y-126985714D02*
X229450057Y-126938095D01*
X229450057Y-126938095D02*
X229545295Y-126890476D01*
X229545295Y-126890476D02*
X229783390Y-126890476D01*
X229783390Y-126890476D02*
X229878628Y-126938095D01*
X229878628Y-126938095D02*
X229926247Y-126985714D01*
X229926247Y-126985714D02*
X229973866Y-127080952D01*
X229973866Y-127080952D02*
X229973866Y-127271428D01*
X229973866Y-127271428D02*
X229926247Y-127366666D01*
X229926247Y-127366666D02*
X229878628Y-127414285D01*
X229878628Y-127414285D02*
X229783390Y-127461904D01*
X248320952Y-169500678D02*
X248441904Y-169440202D01*
X248441904Y-169440202D02*
X248562857Y-169319250D01*
X248562857Y-169319250D02*
X248744285Y-169137821D01*
X248744285Y-169137821D02*
X248865238Y-169077345D01*
X248865238Y-169077345D02*
X248986190Y-169077345D01*
X248925714Y-169379726D02*
X249046666Y-169319250D01*
X249046666Y-169319250D02*
X249167619Y-169198297D01*
X249167619Y-169198297D02*
X249228095Y-168956392D01*
X249228095Y-168956392D02*
X249228095Y-168533059D01*
X249228095Y-168533059D02*
X249167619Y-168291154D01*
X249167619Y-168291154D02*
X249046666Y-168170202D01*
X249046666Y-168170202D02*
X248925714Y-168109726D01*
X248925714Y-168109726D02*
X248683809Y-168109726D01*
X248683809Y-168109726D02*
X248562857Y-168170202D01*
X248562857Y-168170202D02*
X248441904Y-168291154D01*
X248441904Y-168291154D02*
X248381428Y-168533059D01*
X248381428Y-168533059D02*
X248381428Y-168956392D01*
X248381428Y-168956392D02*
X248441904Y-169198297D01*
X248441904Y-169198297D02*
X248562857Y-169319250D01*
X248562857Y-169319250D02*
X248683809Y-169379726D01*
X248683809Y-169379726D02*
X248925714Y-169379726D01*
X247897619Y-168230678D02*
X247837143Y-168170202D01*
X247837143Y-168170202D02*
X247716190Y-168109726D01*
X247716190Y-168109726D02*
X247413809Y-168109726D01*
X247413809Y-168109726D02*
X247292857Y-168170202D01*
X247292857Y-168170202D02*
X247232381Y-168230678D01*
X247232381Y-168230678D02*
X247171904Y-168351630D01*
X247171904Y-168351630D02*
X247171904Y-168472583D01*
X247171904Y-168472583D02*
X247232381Y-168654011D01*
X247232381Y-168654011D02*
X247958095Y-169379726D01*
X247958095Y-169379726D02*
X247171904Y-169379726D01*
X239342857Y-151554819D02*
X239676190Y-151078628D01*
X239914285Y-151554819D02*
X239914285Y-150554819D01*
X239914285Y-150554819D02*
X239533333Y-150554819D01*
X239533333Y-150554819D02*
X239438095Y-150602438D01*
X239438095Y-150602438D02*
X239390476Y-150650057D01*
X239390476Y-150650057D02*
X239342857Y-150745295D01*
X239342857Y-150745295D02*
X239342857Y-150888152D01*
X239342857Y-150888152D02*
X239390476Y-150983390D01*
X239390476Y-150983390D02*
X239438095Y-151031009D01*
X239438095Y-151031009D02*
X239533333Y-151078628D01*
X239533333Y-151078628D02*
X239914285Y-151078628D01*
X238961904Y-150650057D02*
X238914285Y-150602438D01*
X238914285Y-150602438D02*
X238819047Y-150554819D01*
X238819047Y-150554819D02*
X238580952Y-150554819D01*
X238580952Y-150554819D02*
X238485714Y-150602438D01*
X238485714Y-150602438D02*
X238438095Y-150650057D01*
X238438095Y-150650057D02*
X238390476Y-150745295D01*
X238390476Y-150745295D02*
X238390476Y-150840533D01*
X238390476Y-150840533D02*
X238438095Y-150983390D01*
X238438095Y-150983390D02*
X239009523Y-151554819D01*
X239009523Y-151554819D02*
X238390476Y-151554819D01*
X237819047Y-150983390D02*
X237914285Y-150935771D01*
X237914285Y-150935771D02*
X237961904Y-150888152D01*
X237961904Y-150888152D02*
X238009523Y-150792914D01*
X238009523Y-150792914D02*
X238009523Y-150745295D01*
X238009523Y-150745295D02*
X237961904Y-150650057D01*
X237961904Y-150650057D02*
X237914285Y-150602438D01*
X237914285Y-150602438D02*
X237819047Y-150554819D01*
X237819047Y-150554819D02*
X237628571Y-150554819D01*
X237628571Y-150554819D02*
X237533333Y-150602438D01*
X237533333Y-150602438D02*
X237485714Y-150650057D01*
X237485714Y-150650057D02*
X237438095Y-150745295D01*
X237438095Y-150745295D02*
X237438095Y-150792914D01*
X237438095Y-150792914D02*
X237485714Y-150888152D01*
X237485714Y-150888152D02*
X237533333Y-150935771D01*
X237533333Y-150935771D02*
X237628571Y-150983390D01*
X237628571Y-150983390D02*
X237819047Y-150983390D01*
X237819047Y-150983390D02*
X237914285Y-151031009D01*
X237914285Y-151031009D02*
X237961904Y-151078628D01*
X237961904Y-151078628D02*
X238009523Y-151173866D01*
X238009523Y-151173866D02*
X238009523Y-151364342D01*
X238009523Y-151364342D02*
X237961904Y-151459580D01*
X237961904Y-151459580D02*
X237914285Y-151507200D01*
X237914285Y-151507200D02*
X237819047Y-151554819D01*
X237819047Y-151554819D02*
X237628571Y-151554819D01*
X237628571Y-151554819D02*
X237533333Y-151507200D01*
X237533333Y-151507200D02*
X237485714Y-151459580D01*
X237485714Y-151459580D02*
X237438095Y-151364342D01*
X237438095Y-151364342D02*
X237438095Y-151173866D01*
X237438095Y-151173866D02*
X237485714Y-151078628D01*
X237485714Y-151078628D02*
X237533333Y-151031009D01*
X237533333Y-151031009D02*
X237628571Y-150983390D01*
X242342857Y-162759580D02*
X242390476Y-162807200D01*
X242390476Y-162807200D02*
X242533333Y-162854819D01*
X242533333Y-162854819D02*
X242628571Y-162854819D01*
X242628571Y-162854819D02*
X242771428Y-162807200D01*
X242771428Y-162807200D02*
X242866666Y-162711961D01*
X242866666Y-162711961D02*
X242914285Y-162616723D01*
X242914285Y-162616723D02*
X242961904Y-162426247D01*
X242961904Y-162426247D02*
X242961904Y-162283390D01*
X242961904Y-162283390D02*
X242914285Y-162092914D01*
X242914285Y-162092914D02*
X242866666Y-161997676D01*
X242866666Y-161997676D02*
X242771428Y-161902438D01*
X242771428Y-161902438D02*
X242628571Y-161854819D01*
X242628571Y-161854819D02*
X242533333Y-161854819D01*
X242533333Y-161854819D02*
X242390476Y-161902438D01*
X242390476Y-161902438D02*
X242342857Y-161950057D01*
X242009523Y-161854819D02*
X241390476Y-161854819D01*
X241390476Y-161854819D02*
X241723809Y-162235771D01*
X241723809Y-162235771D02*
X241580952Y-162235771D01*
X241580952Y-162235771D02*
X241485714Y-162283390D01*
X241485714Y-162283390D02*
X241438095Y-162331009D01*
X241438095Y-162331009D02*
X241390476Y-162426247D01*
X241390476Y-162426247D02*
X241390476Y-162664342D01*
X241390476Y-162664342D02*
X241438095Y-162759580D01*
X241438095Y-162759580D02*
X241485714Y-162807200D01*
X241485714Y-162807200D02*
X241580952Y-162854819D01*
X241580952Y-162854819D02*
X241866666Y-162854819D01*
X241866666Y-162854819D02*
X241961904Y-162807200D01*
X241961904Y-162807200D02*
X242009523Y-162759580D01*
X240533333Y-162188152D02*
X240533333Y-162854819D01*
X240771428Y-161807200D02*
X241009523Y-162521485D01*
X241009523Y-162521485D02*
X240390476Y-162521485D01*
X226720952Y-114300678D02*
X226841904Y-114240202D01*
X226841904Y-114240202D02*
X226962857Y-114119250D01*
X226962857Y-114119250D02*
X227144285Y-113937821D01*
X227144285Y-113937821D02*
X227265238Y-113877345D01*
X227265238Y-113877345D02*
X227386190Y-113877345D01*
X227325714Y-114179726D02*
X227446666Y-114119250D01*
X227446666Y-114119250D02*
X227567619Y-113998297D01*
X227567619Y-113998297D02*
X227628095Y-113756392D01*
X227628095Y-113756392D02*
X227628095Y-113333059D01*
X227628095Y-113333059D02*
X227567619Y-113091154D01*
X227567619Y-113091154D02*
X227446666Y-112970202D01*
X227446666Y-112970202D02*
X227325714Y-112909726D01*
X227325714Y-112909726D02*
X227083809Y-112909726D01*
X227083809Y-112909726D02*
X226962857Y-112970202D01*
X226962857Y-112970202D02*
X226841904Y-113091154D01*
X226841904Y-113091154D02*
X226781428Y-113333059D01*
X226781428Y-113333059D02*
X226781428Y-113756392D01*
X226781428Y-113756392D02*
X226841904Y-113998297D01*
X226841904Y-113998297D02*
X226962857Y-114119250D01*
X226962857Y-114119250D02*
X227083809Y-114179726D01*
X227083809Y-114179726D02*
X227325714Y-114179726D01*
X225571904Y-114179726D02*
X226297619Y-114179726D01*
X225934762Y-114179726D02*
X225934762Y-112909726D01*
X225934762Y-112909726D02*
X226055714Y-113091154D01*
X226055714Y-113091154D02*
X226176666Y-113212107D01*
X226176666Y-113212107D02*
X226297619Y-113272583D01*
X261242857Y-145642319D02*
X261576190Y-145166128D01*
X261814285Y-145642319D02*
X261814285Y-144642319D01*
X261814285Y-144642319D02*
X261433333Y-144642319D01*
X261433333Y-144642319D02*
X261338095Y-144689938D01*
X261338095Y-144689938D02*
X261290476Y-144737557D01*
X261290476Y-144737557D02*
X261242857Y-144832795D01*
X261242857Y-144832795D02*
X261242857Y-144975652D01*
X261242857Y-144975652D02*
X261290476Y-145070890D01*
X261290476Y-145070890D02*
X261338095Y-145118509D01*
X261338095Y-145118509D02*
X261433333Y-145166128D01*
X261433333Y-145166128D02*
X261814285Y-145166128D01*
X260861904Y-144737557D02*
X260814285Y-144689938D01*
X260814285Y-144689938D02*
X260719047Y-144642319D01*
X260719047Y-144642319D02*
X260480952Y-144642319D01*
X260480952Y-144642319D02*
X260385714Y-144689938D01*
X260385714Y-144689938D02*
X260338095Y-144737557D01*
X260338095Y-144737557D02*
X260290476Y-144832795D01*
X260290476Y-144832795D02*
X260290476Y-144928033D01*
X260290476Y-144928033D02*
X260338095Y-145070890D01*
X260338095Y-145070890D02*
X260909523Y-145642319D01*
X260909523Y-145642319D02*
X260290476Y-145642319D01*
X259957142Y-144642319D02*
X259338095Y-144642319D01*
X259338095Y-144642319D02*
X259671428Y-145023271D01*
X259671428Y-145023271D02*
X259528571Y-145023271D01*
X259528571Y-145023271D02*
X259433333Y-145070890D01*
X259433333Y-145070890D02*
X259385714Y-145118509D01*
X259385714Y-145118509D02*
X259338095Y-145213747D01*
X259338095Y-145213747D02*
X259338095Y-145451842D01*
X259338095Y-145451842D02*
X259385714Y-145547080D01*
X259385714Y-145547080D02*
X259433333Y-145594700D01*
X259433333Y-145594700D02*
X259528571Y-145642319D01*
X259528571Y-145642319D02*
X259814285Y-145642319D01*
X259814285Y-145642319D02*
X259909523Y-145594700D01*
X259909523Y-145594700D02*
X259957142Y-145547080D01*
X265438094Y-151354819D02*
X265438094Y-150354819D01*
X265438094Y-150354819D02*
X265199999Y-150354819D01*
X265199999Y-150354819D02*
X265057142Y-150402438D01*
X265057142Y-150402438D02*
X264961904Y-150497676D01*
X264961904Y-150497676D02*
X264914285Y-150592914D01*
X264914285Y-150592914D02*
X264866666Y-150783390D01*
X264866666Y-150783390D02*
X264866666Y-150926247D01*
X264866666Y-150926247D02*
X264914285Y-151116723D01*
X264914285Y-151116723D02*
X264961904Y-151211961D01*
X264961904Y-151211961D02*
X265057142Y-151307200D01*
X265057142Y-151307200D02*
X265199999Y-151354819D01*
X265199999Y-151354819D02*
X265438094Y-151354819D01*
X263961904Y-150354819D02*
X264438094Y-150354819D01*
X264438094Y-150354819D02*
X264485713Y-150831009D01*
X264485713Y-150831009D02*
X264438094Y-150783390D01*
X264438094Y-150783390D02*
X264342856Y-150735771D01*
X264342856Y-150735771D02*
X264104761Y-150735771D01*
X264104761Y-150735771D02*
X264009523Y-150783390D01*
X264009523Y-150783390D02*
X263961904Y-150831009D01*
X263961904Y-150831009D02*
X263914285Y-150926247D01*
X263914285Y-150926247D02*
X263914285Y-151164342D01*
X263914285Y-151164342D02*
X263961904Y-151259580D01*
X263961904Y-151259580D02*
X264009523Y-151307200D01*
X264009523Y-151307200D02*
X264104761Y-151354819D01*
X264104761Y-151354819D02*
X264342856Y-151354819D01*
X264342856Y-151354819D02*
X264438094Y-151307200D01*
X264438094Y-151307200D02*
X264485713Y-151259580D01*
X265900357Y-153959580D02*
X265947976Y-154007200D01*
X265947976Y-154007200D02*
X266090833Y-154054819D01*
X266090833Y-154054819D02*
X266186071Y-154054819D01*
X266186071Y-154054819D02*
X266328928Y-154007200D01*
X266328928Y-154007200D02*
X266424166Y-153911961D01*
X266424166Y-153911961D02*
X266471785Y-153816723D01*
X266471785Y-153816723D02*
X266519404Y-153626247D01*
X266519404Y-153626247D02*
X266519404Y-153483390D01*
X266519404Y-153483390D02*
X266471785Y-153292914D01*
X266471785Y-153292914D02*
X266424166Y-153197676D01*
X266424166Y-153197676D02*
X266328928Y-153102438D01*
X266328928Y-153102438D02*
X266186071Y-153054819D01*
X266186071Y-153054819D02*
X266090833Y-153054819D01*
X266090833Y-153054819D02*
X265947976Y-153102438D01*
X265947976Y-153102438D02*
X265900357Y-153150057D01*
X265519404Y-153150057D02*
X265471785Y-153102438D01*
X265471785Y-153102438D02*
X265376547Y-153054819D01*
X265376547Y-153054819D02*
X265138452Y-153054819D01*
X265138452Y-153054819D02*
X265043214Y-153102438D01*
X265043214Y-153102438D02*
X264995595Y-153150057D01*
X264995595Y-153150057D02*
X264947976Y-153245295D01*
X264947976Y-153245295D02*
X264947976Y-153340533D01*
X264947976Y-153340533D02*
X264995595Y-153483390D01*
X264995595Y-153483390D02*
X265567023Y-154054819D01*
X265567023Y-154054819D02*
X264947976Y-154054819D01*
X264567023Y-153150057D02*
X264519404Y-153102438D01*
X264519404Y-153102438D02*
X264424166Y-153054819D01*
X264424166Y-153054819D02*
X264186071Y-153054819D01*
X264186071Y-153054819D02*
X264090833Y-153102438D01*
X264090833Y-153102438D02*
X264043214Y-153150057D01*
X264043214Y-153150057D02*
X263995595Y-153245295D01*
X263995595Y-153245295D02*
X263995595Y-153340533D01*
X263995595Y-153340533D02*
X264043214Y-153483390D01*
X264043214Y-153483390D02*
X264614642Y-154054819D01*
X264614642Y-154054819D02*
X263995595Y-154054819D01*
X249142857Y-132759580D02*
X249190476Y-132807200D01*
X249190476Y-132807200D02*
X249333333Y-132854819D01*
X249333333Y-132854819D02*
X249428571Y-132854819D01*
X249428571Y-132854819D02*
X249571428Y-132807200D01*
X249571428Y-132807200D02*
X249666666Y-132711961D01*
X249666666Y-132711961D02*
X249714285Y-132616723D01*
X249714285Y-132616723D02*
X249761904Y-132426247D01*
X249761904Y-132426247D02*
X249761904Y-132283390D01*
X249761904Y-132283390D02*
X249714285Y-132092914D01*
X249714285Y-132092914D02*
X249666666Y-131997676D01*
X249666666Y-131997676D02*
X249571428Y-131902438D01*
X249571428Y-131902438D02*
X249428571Y-131854819D01*
X249428571Y-131854819D02*
X249333333Y-131854819D01*
X249333333Y-131854819D02*
X249190476Y-131902438D01*
X249190476Y-131902438D02*
X249142857Y-131950057D01*
X248761904Y-131950057D02*
X248714285Y-131902438D01*
X248714285Y-131902438D02*
X248619047Y-131854819D01*
X248619047Y-131854819D02*
X248380952Y-131854819D01*
X248380952Y-131854819D02*
X248285714Y-131902438D01*
X248285714Y-131902438D02*
X248238095Y-131950057D01*
X248238095Y-131950057D02*
X248190476Y-132045295D01*
X248190476Y-132045295D02*
X248190476Y-132140533D01*
X248190476Y-132140533D02*
X248238095Y-132283390D01*
X248238095Y-132283390D02*
X248809523Y-132854819D01*
X248809523Y-132854819D02*
X248190476Y-132854819D01*
X247571428Y-131854819D02*
X247476190Y-131854819D01*
X247476190Y-131854819D02*
X247380952Y-131902438D01*
X247380952Y-131902438D02*
X247333333Y-131950057D01*
X247333333Y-131950057D02*
X247285714Y-132045295D01*
X247285714Y-132045295D02*
X247238095Y-132235771D01*
X247238095Y-132235771D02*
X247238095Y-132473866D01*
X247238095Y-132473866D02*
X247285714Y-132664342D01*
X247285714Y-132664342D02*
X247333333Y-132759580D01*
X247333333Y-132759580D02*
X247380952Y-132807200D01*
X247380952Y-132807200D02*
X247476190Y-132854819D01*
X247476190Y-132854819D02*
X247571428Y-132854819D01*
X247571428Y-132854819D02*
X247666666Y-132807200D01*
X247666666Y-132807200D02*
X247714285Y-132759580D01*
X247714285Y-132759580D02*
X247761904Y-132664342D01*
X247761904Y-132664342D02*
X247809523Y-132473866D01*
X247809523Y-132473866D02*
X247809523Y-132235771D01*
X247809523Y-132235771D02*
X247761904Y-132045295D01*
X247761904Y-132045295D02*
X247714285Y-131950057D01*
X247714285Y-131950057D02*
X247666666Y-131902438D01*
X247666666Y-131902438D02*
X247571428Y-131854819D01*
X233554819Y-113957142D02*
X233078628Y-113623809D01*
X233554819Y-113385714D02*
X232554819Y-113385714D01*
X232554819Y-113385714D02*
X232554819Y-113766666D01*
X232554819Y-113766666D02*
X232602438Y-113861904D01*
X232602438Y-113861904D02*
X232650057Y-113909523D01*
X232650057Y-113909523D02*
X232745295Y-113957142D01*
X232745295Y-113957142D02*
X232888152Y-113957142D01*
X232888152Y-113957142D02*
X232983390Y-113909523D01*
X232983390Y-113909523D02*
X233031009Y-113861904D01*
X233031009Y-113861904D02*
X233078628Y-113766666D01*
X233078628Y-113766666D02*
X233078628Y-113385714D01*
X232650057Y-114338095D02*
X232602438Y-114385714D01*
X232602438Y-114385714D02*
X232554819Y-114480952D01*
X232554819Y-114480952D02*
X232554819Y-114719047D01*
X232554819Y-114719047D02*
X232602438Y-114814285D01*
X232602438Y-114814285D02*
X232650057Y-114861904D01*
X232650057Y-114861904D02*
X232745295Y-114909523D01*
X232745295Y-114909523D02*
X232840533Y-114909523D01*
X232840533Y-114909523D02*
X232983390Y-114861904D01*
X232983390Y-114861904D02*
X233554819Y-114290476D01*
X233554819Y-114290476D02*
X233554819Y-114909523D01*
X232888152Y-115766666D02*
X233554819Y-115766666D01*
X232507200Y-115528571D02*
X233221485Y-115290476D01*
X233221485Y-115290476D02*
X233221485Y-115909523D01*
X249242857Y-136059580D02*
X249290476Y-136107200D01*
X249290476Y-136107200D02*
X249433333Y-136154819D01*
X249433333Y-136154819D02*
X249528571Y-136154819D01*
X249528571Y-136154819D02*
X249671428Y-136107200D01*
X249671428Y-136107200D02*
X249766666Y-136011961D01*
X249766666Y-136011961D02*
X249814285Y-135916723D01*
X249814285Y-135916723D02*
X249861904Y-135726247D01*
X249861904Y-135726247D02*
X249861904Y-135583390D01*
X249861904Y-135583390D02*
X249814285Y-135392914D01*
X249814285Y-135392914D02*
X249766666Y-135297676D01*
X249766666Y-135297676D02*
X249671428Y-135202438D01*
X249671428Y-135202438D02*
X249528571Y-135154819D01*
X249528571Y-135154819D02*
X249433333Y-135154819D01*
X249433333Y-135154819D02*
X249290476Y-135202438D01*
X249290476Y-135202438D02*
X249242857Y-135250057D01*
X248861904Y-135250057D02*
X248814285Y-135202438D01*
X248814285Y-135202438D02*
X248719047Y-135154819D01*
X248719047Y-135154819D02*
X248480952Y-135154819D01*
X248480952Y-135154819D02*
X248385714Y-135202438D01*
X248385714Y-135202438D02*
X248338095Y-135250057D01*
X248338095Y-135250057D02*
X248290476Y-135345295D01*
X248290476Y-135345295D02*
X248290476Y-135440533D01*
X248290476Y-135440533D02*
X248338095Y-135583390D01*
X248338095Y-135583390D02*
X248909523Y-136154819D01*
X248909523Y-136154819D02*
X248290476Y-136154819D01*
X247338095Y-136154819D02*
X247909523Y-136154819D01*
X247623809Y-136154819D02*
X247623809Y-135154819D01*
X247623809Y-135154819D02*
X247719047Y-135297676D01*
X247719047Y-135297676D02*
X247814285Y-135392914D01*
X247814285Y-135392914D02*
X247909523Y-135440533D01*
X237042857Y-132154819D02*
X237376190Y-131678628D01*
X237614285Y-132154819D02*
X237614285Y-131154819D01*
X237614285Y-131154819D02*
X237233333Y-131154819D01*
X237233333Y-131154819D02*
X237138095Y-131202438D01*
X237138095Y-131202438D02*
X237090476Y-131250057D01*
X237090476Y-131250057D02*
X237042857Y-131345295D01*
X237042857Y-131345295D02*
X237042857Y-131488152D01*
X237042857Y-131488152D02*
X237090476Y-131583390D01*
X237090476Y-131583390D02*
X237138095Y-131631009D01*
X237138095Y-131631009D02*
X237233333Y-131678628D01*
X237233333Y-131678628D02*
X237614285Y-131678628D01*
X236090476Y-132154819D02*
X236661904Y-132154819D01*
X236376190Y-132154819D02*
X236376190Y-131154819D01*
X236376190Y-131154819D02*
X236471428Y-131297676D01*
X236471428Y-131297676D02*
X236566666Y-131392914D01*
X236566666Y-131392914D02*
X236661904Y-131440533D01*
X235233333Y-131154819D02*
X235423809Y-131154819D01*
X235423809Y-131154819D02*
X235519047Y-131202438D01*
X235519047Y-131202438D02*
X235566666Y-131250057D01*
X235566666Y-131250057D02*
X235661904Y-131392914D01*
X235661904Y-131392914D02*
X235709523Y-131583390D01*
X235709523Y-131583390D02*
X235709523Y-131964342D01*
X235709523Y-131964342D02*
X235661904Y-132059580D01*
X235661904Y-132059580D02*
X235614285Y-132107200D01*
X235614285Y-132107200D02*
X235519047Y-132154819D01*
X235519047Y-132154819D02*
X235328571Y-132154819D01*
X235328571Y-132154819D02*
X235233333Y-132107200D01*
X235233333Y-132107200D02*
X235185714Y-132059580D01*
X235185714Y-132059580D02*
X235138095Y-131964342D01*
X235138095Y-131964342D02*
X235138095Y-131726247D01*
X235138095Y-131726247D02*
X235185714Y-131631009D01*
X235185714Y-131631009D02*
X235233333Y-131583390D01*
X235233333Y-131583390D02*
X235328571Y-131535771D01*
X235328571Y-131535771D02*
X235519047Y-131535771D01*
X235519047Y-131535771D02*
X235614285Y-131583390D01*
X235614285Y-131583390D02*
X235661904Y-131631009D01*
X235661904Y-131631009D02*
X235709523Y-131726247D01*
X253530357Y-169124819D02*
X253863690Y-168648628D01*
X254101785Y-169124819D02*
X254101785Y-168124819D01*
X254101785Y-168124819D02*
X253720833Y-168124819D01*
X253720833Y-168124819D02*
X253625595Y-168172438D01*
X253625595Y-168172438D02*
X253577976Y-168220057D01*
X253577976Y-168220057D02*
X253530357Y-168315295D01*
X253530357Y-168315295D02*
X253530357Y-168458152D01*
X253530357Y-168458152D02*
X253577976Y-168553390D01*
X253577976Y-168553390D02*
X253625595Y-168601009D01*
X253625595Y-168601009D02*
X253720833Y-168648628D01*
X253720833Y-168648628D02*
X254101785Y-168648628D01*
X253197023Y-168124819D02*
X252577976Y-168124819D01*
X252577976Y-168124819D02*
X252911309Y-168505771D01*
X252911309Y-168505771D02*
X252768452Y-168505771D01*
X252768452Y-168505771D02*
X252673214Y-168553390D01*
X252673214Y-168553390D02*
X252625595Y-168601009D01*
X252625595Y-168601009D02*
X252577976Y-168696247D01*
X252577976Y-168696247D02*
X252577976Y-168934342D01*
X252577976Y-168934342D02*
X252625595Y-169029580D01*
X252625595Y-169029580D02*
X252673214Y-169077200D01*
X252673214Y-169077200D02*
X252768452Y-169124819D01*
X252768452Y-169124819D02*
X253054166Y-169124819D01*
X253054166Y-169124819D02*
X253149404Y-169077200D01*
X253149404Y-169077200D02*
X253197023Y-169029580D01*
X252197023Y-168220057D02*
X252149404Y-168172438D01*
X252149404Y-168172438D02*
X252054166Y-168124819D01*
X252054166Y-168124819D02*
X251816071Y-168124819D01*
X251816071Y-168124819D02*
X251720833Y-168172438D01*
X251720833Y-168172438D02*
X251673214Y-168220057D01*
X251673214Y-168220057D02*
X251625595Y-168315295D01*
X251625595Y-168315295D02*
X251625595Y-168410533D01*
X251625595Y-168410533D02*
X251673214Y-168553390D01*
X251673214Y-168553390D02*
X252244642Y-169124819D01*
X252244642Y-169124819D02*
X251625595Y-169124819D01*
X253530357Y-163624819D02*
X253863690Y-163148628D01*
X254101785Y-163624819D02*
X254101785Y-162624819D01*
X254101785Y-162624819D02*
X253720833Y-162624819D01*
X253720833Y-162624819D02*
X253625595Y-162672438D01*
X253625595Y-162672438D02*
X253577976Y-162720057D01*
X253577976Y-162720057D02*
X253530357Y-162815295D01*
X253530357Y-162815295D02*
X253530357Y-162958152D01*
X253530357Y-162958152D02*
X253577976Y-163053390D01*
X253577976Y-163053390D02*
X253625595Y-163101009D01*
X253625595Y-163101009D02*
X253720833Y-163148628D01*
X253720833Y-163148628D02*
X254101785Y-163148628D01*
X253197023Y-162624819D02*
X252577976Y-162624819D01*
X252577976Y-162624819D02*
X252911309Y-163005771D01*
X252911309Y-163005771D02*
X252768452Y-163005771D01*
X252768452Y-163005771D02*
X252673214Y-163053390D01*
X252673214Y-163053390D02*
X252625595Y-163101009D01*
X252625595Y-163101009D02*
X252577976Y-163196247D01*
X252577976Y-163196247D02*
X252577976Y-163434342D01*
X252577976Y-163434342D02*
X252625595Y-163529580D01*
X252625595Y-163529580D02*
X252673214Y-163577200D01*
X252673214Y-163577200D02*
X252768452Y-163624819D01*
X252768452Y-163624819D02*
X253054166Y-163624819D01*
X253054166Y-163624819D02*
X253149404Y-163577200D01*
X253149404Y-163577200D02*
X253197023Y-163529580D01*
X251625595Y-163624819D02*
X252197023Y-163624819D01*
X251911309Y-163624819D02*
X251911309Y-162624819D01*
X251911309Y-162624819D02*
X252006547Y-162767676D01*
X252006547Y-162767676D02*
X252101785Y-162862914D01*
X252101785Y-162862914D02*
X252197023Y-162910533D01*
X254209726Y-126676667D02*
X255116869Y-126676667D01*
X255116869Y-126676667D02*
X255298297Y-126616190D01*
X255298297Y-126616190D02*
X255419250Y-126495238D01*
X255419250Y-126495238D02*
X255479726Y-126313809D01*
X255479726Y-126313809D02*
X255479726Y-126192857D01*
X254633059Y-127825714D02*
X255479726Y-127825714D01*
X254149250Y-127523333D02*
X255056392Y-127220952D01*
X255056392Y-127220952D02*
X255056392Y-128007143D01*
D14*
%TO.C,C35*%
X239138748Y-169265000D02*
X239661252Y-169265000D01*
X239138748Y-170735000D02*
X239661252Y-170735000D01*
%TO.C,C27*%
X214376248Y-140965000D02*
X214898752Y-140965000D01*
X214376248Y-142435000D02*
X214898752Y-142435000D01*
%TO.C,R26*%
X214273737Y-126745000D02*
X212826263Y-126745000D01*
X214273737Y-129455000D02*
X212826263Y-129455000D01*
%TO.C,C30*%
X224438748Y-122065000D02*
X224961252Y-122065000D01*
X224438748Y-123535000D02*
X224961252Y-123535000D01*
%TO.C,C29*%
X224438748Y-127865000D02*
X224961252Y-127865000D01*
X224438748Y-129335000D02*
X224961252Y-129335000D01*
%TO.C,R25*%
X214223737Y-130545000D02*
X212776263Y-130545000D01*
X214223737Y-133255000D02*
X212776263Y-133255000D01*
%TO.C,C28*%
X224413748Y-124765000D02*
X224936252Y-124765000D01*
X224413748Y-126235000D02*
X224936252Y-126235000D01*
%TO.C,C37*%
X214438748Y-138265000D02*
X214961252Y-138265000D01*
X214438748Y-139735000D02*
X214961252Y-139735000D01*
D15*
%TO.C,U2*%
X250752000Y-154180000D02*
X249225000Y-154180000D01*
X251102000Y-149148000D02*
X254298000Y-149148000D01*
X251102000Y-154052000D02*
X251102000Y-149148000D01*
X254298000Y-149148000D02*
X254298000Y-154052000D01*
X254298000Y-154052000D02*
X251102000Y-154052000D01*
D14*
%TO.C,R30*%
X239072936Y-153740000D02*
X242127064Y-153740000D01*
X239072936Y-156460000D02*
X242127064Y-156460000D01*
%TO.C,R18*%
X230820000Y-123370121D02*
X230820000Y-123034879D01*
X231580000Y-123370121D02*
X231580000Y-123034879D01*
%TO.C,R20*%
X238870121Y-147620000D02*
X238534879Y-147620000D01*
X238870121Y-148380000D02*
X238534879Y-148380000D01*
%TO.C,R35*%
X214265000Y-162772936D02*
X214265000Y-163227064D01*
X215735000Y-162772936D02*
X215735000Y-163227064D01*
%TO.C,C38*%
X214376248Y-143865000D02*
X214898752Y-143865000D01*
X214376248Y-145335000D02*
X214898752Y-145335000D01*
%TO.C,R22*%
X248157776Y-124577500D02*
X248667224Y-124577500D01*
X248157776Y-125622500D02*
X248667224Y-125622500D01*
%TO.C,R17*%
X236640000Y-135572936D02*
X236640000Y-138627064D01*
X239360000Y-135572936D02*
X239360000Y-138627064D01*
%TO.C,R21*%
X241420000Y-135165121D02*
X241420000Y-134829879D01*
X242180000Y-135165121D02*
X242180000Y-134829879D01*
D15*
%TO.C,D3*%
X251000000Y-140375000D02*
X253900000Y-140375000D01*
X251000000Y-141225000D02*
X251000000Y-140375000D01*
X253900000Y-140375000D02*
X253900000Y-141225000D01*
X253900000Y-141225000D02*
X251000000Y-141225000D01*
X254025000Y-141575000D02*
X254025000Y-142625000D01*
%TO.C,U1*%
X210925000Y-114585000D02*
X214125000Y-114585000D01*
X210925000Y-123235000D02*
X210925000Y-114585000D01*
X214125000Y-114585000D02*
X214125000Y-123235000D01*
X214125000Y-123235000D02*
X210925000Y-123235000D01*
X214475000Y-114425000D02*
X216025000Y-114425000D01*
D14*
%TO.C,R33*%
X252632776Y-158577500D02*
X253142224Y-158577500D01*
X252632776Y-159622500D02*
X253142224Y-159622500D01*
%TO.C,C25*%
X228965000Y-118038748D02*
X228965000Y-118561252D01*
X230435000Y-118038748D02*
X230435000Y-118561252D01*
%TO.C,R34*%
X217765000Y-163227064D02*
X217765000Y-162772936D01*
X219235000Y-163227064D02*
X219235000Y-162772936D01*
%TO.C,C23*%
X261981252Y-155765000D02*
X261458748Y-155765000D01*
X261981252Y-157235000D02*
X261458748Y-157235000D01*
D15*
%TO.C,L2*%
X218600000Y-137200000D02*
X221750000Y-137200000D01*
X218600000Y-149500000D02*
X218600000Y-137200000D01*
X221750000Y-149500000D02*
X218600000Y-149500000D01*
D11*
X226500000Y-150050000D02*
X226500000Y-150050000D01*
X226500000Y-150150000D02*
X226500000Y-150150000D01*
D15*
X227750000Y-137200000D02*
X230900000Y-137200000D01*
X230900000Y-137200000D02*
X230900000Y-149500000D01*
X230900000Y-149500000D02*
X227750000Y-149500000D01*
D11*
X226500000Y-150050000D02*
G75*
G02*
X226500000Y-150150000I0J-50000D01*
G01*
X226500000Y-150150000D02*
G75*
G02*
X226500000Y-150050000I0J50000D01*
G01*
D15*
%TO.C,U4*%
X233952000Y-127280000D02*
X232425000Y-127280000D01*
X234302000Y-122248000D02*
X237498000Y-122248000D01*
X234302000Y-127152000D02*
X234302000Y-122248000D01*
X237498000Y-122248000D02*
X237498000Y-127152000D01*
X237498000Y-127152000D02*
X234302000Y-127152000D01*
D14*
%TO.C,R27*%
X243467621Y-150920000D02*
X243132379Y-150920000D01*
X243467621Y-151680000D02*
X243132379Y-151680000D01*
%TO.C,D4*%
X246690000Y-126800000D02*
X246690000Y-128800000D01*
X250550000Y-126800000D02*
X246690000Y-126800000D01*
X250550000Y-128800000D02*
X246690000Y-128800000D01*
%TO.C,C26*%
X205865000Y-117861252D02*
X205865000Y-117338748D01*
X207335000Y-117861252D02*
X207335000Y-117338748D01*
%TO.C,C24*%
X235965000Y-118101248D02*
X235965000Y-118623752D01*
X237435000Y-118101248D02*
X237435000Y-118623752D01*
%TO.C,R19*%
X230820000Y-125834879D02*
X230820000Y-126170121D01*
X231580000Y-125834879D02*
X231580000Y-126170121D01*
D11*
%TO.C,Q2*%
X244100000Y-166700000D02*
X244100000Y-166700000D01*
X244200000Y-166700000D02*
X244200000Y-166700000D01*
X244100000Y-166700000D02*
G75*
G02*
X244200000Y-166700000I50000J0D01*
G01*
X244200000Y-166700000D02*
G75*
G02*
X244100000Y-166700000I-50000J0D01*
G01*
D14*
%TO.C,R28*%
X238867621Y-149420000D02*
X238532379Y-149420000D01*
X238867621Y-150180000D02*
X238532379Y-150180000D01*
%TO.C,C34*%
X238461252Y-161765000D02*
X237938748Y-161765000D01*
X238461252Y-163235000D02*
X237938748Y-163235000D01*
D11*
%TO.C,Q1*%
X222725000Y-117363000D02*
X222725000Y-117363000D01*
X222725000Y-117463000D02*
X222725000Y-117463000D01*
X222725000Y-117363000D02*
G75*
G02*
X222725000Y-117463000I0J-50000D01*
G01*
X222725000Y-117463000D02*
G75*
G02*
X222725000Y-117363000I0J50000D01*
G01*
D14*
%TO.C,R23*%
X259477500Y-147854724D02*
X259477500Y-147345276D01*
X260522500Y-147854724D02*
X260522500Y-147345276D01*
%TO.C,D5*%
X259190000Y-150000000D02*
X259190000Y-152000000D01*
X263050000Y-150000000D02*
X259190000Y-150000000D01*
X263050000Y-152000000D02*
X259190000Y-152000000D01*
%TO.C,C22*%
X261981252Y-152965000D02*
X261458748Y-152965000D01*
X261981252Y-154435000D02*
X261458748Y-154435000D01*
%TO.C,C20*%
X248861252Y-129865000D02*
X248338748Y-129865000D01*
X248861252Y-131335000D02*
X248338748Y-131335000D01*
%TO.C,R24*%
X231845000Y-119623737D02*
X231845000Y-118176263D01*
X234555000Y-119623737D02*
X234555000Y-118176263D01*
%TO.C,C21*%
X248861252Y-133265000D02*
X248338748Y-133265000D01*
X248861252Y-134735000D02*
X248338748Y-134735000D01*
%TO.C,R16*%
X234872936Y-127840000D02*
X237927064Y-127840000D01*
X234872936Y-130560000D02*
X237927064Y-130560000D01*
%TO.C,R32*%
X252632776Y-169577500D02*
X253142224Y-169577500D01*
X252632776Y-170622500D02*
X253142224Y-170622500D01*
%TO.C,R31*%
X252632776Y-164077500D02*
X253142224Y-164077500D01*
X252632776Y-165122500D02*
X253142224Y-165122500D01*
D11*
%TO.C,J4*%
X255850000Y-131475000D02*
X255850000Y-131475000D01*
X255950000Y-131475000D02*
X255950000Y-131475000D01*
D15*
X264450000Y-136925000D02*
X266750000Y-136925000D01*
X266750000Y-129225000D02*
X264450000Y-129225000D01*
X266750000Y-136925000D02*
X266750000Y-129225000D01*
D11*
X255850000Y-131475000D02*
G75*
G02*
X255950000Y-131475000I50000J0D01*
G01*
X255950000Y-131475000D02*
G75*
G02*
X255850000Y-131475000I-50000J0D01*
G01*
%TD*%
M02*
